<?xml version="1.0" encoding="utf-8"?>
<!-- Generator: Avocode 2.4.2-d618096 - http://avocode.com -->
<svg height="264" width="91" xmlns:xlink="http://www.w3.org/1999/xlink" xmlns="http://www.w3.org/2000/svg" viewBox="0 0 91 264">
    <path fill="#87d1c5" fill-rule="evenodd" d="M 13.61 0.86 L 10.4 0.86 L 10.4 53.67 C 10.4 60.45 15.92 65.97 22.7 65.97 L 78.29 65.97 C 83.3 65.97 87.37 70.04 87.37 75.05 L 87.37 177.9 C 87.37 182.91 83.3 186.99 78.29 186.99 L 32.32 186.99 C 25.54 186.99 20.03 192.51 20.03 199.28 L 20.03 222.17 C 20.03 227.18 16.29 231.26 11.69 231.26 C 5.33 231.26 0.15 236.77 0.15 243.55 L 0.15 299.92 C 0.15 306.7 5.67 312.21 12.45 312.21 L 50.82 312.21 C 55.83 312.21 59.91 316.29 59.91 321.3 L 59.91 339.47 L 63.11 339.47 L 63.11 321.3 C 63.11 314.52 57.6 309 50.82 309 L 12.45 309 C 7.44 309 3.36 304.93 3.36 299.92 L 3.36 243.55 C 3.36 238.54 7.1 234.47 11.69 234.47 C 18.06 234.47 23.23 228.95 23.23 222.17 L 23.23 199.28 C 23.23 194.27 27.31 190.2 32.32 190.2 L 78.29 190.2 C 85.06 190.2 90.58 184.68 90.58 177.9 L 90.58 75.05 C 90.58 68.27 85.06 62.76 78.29 62.76 L 22.7 62.76 C 17.69 62.76 13.61 58.68 13.61 53.67 L 13.61 0.86" />
</svg>