<?xml version="1.0" encoding="utf-8"?>
<!-- Generator: Avocode 2.4.2-d618096 - http://avocode.com -->
<svg height="321" width="214" xmlns:xlink="http://www.w3.org/1999/xlink" xmlns="http://www.w3.org/2000/svg" viewBox="0 0 214 321">
    <path fill="#87d1c5" fill-rule="evenodd" d="M 158.5 -235.43 L 56.42 -235.43 C 49.64 -235.43 44.12 -229.92 44.12 -223.14 L 44.12 -222.04 C 44.12 -215.26 49.64 -209.75 56.42 -209.75 L 93.83 -209.75 C 98.84 -209.75 102.92 -205.67 102.92 -200.66 L 102.92 -190.92 C 102.92 -185.91 98.84 -181.83 93.83 -181.83 L -0.24 -181.83 C -7.02 -181.83 -12.53 -176.32 -12.53 -169.54 L -12.53 -145.97 C -12.53 -139.19 -7.02 -133.68 -0.24 -133.68 L 48.93 -133.68 C 53.94 -133.68 58.02 -129.6 58.02 -124.59 L 58.02 -100 C 58.02 -93.23 63.29 -87.71 69.78 -87.71 C 74.49 -87.71 78.33 -83.63 78.33 -78.62 L 78.33 -27.58 C 78.33 -20.8 83.84 -15.29 90.62 -15.29 L 141.94 -15.29 C 146.95 -15.29 151.02 -11.21 151.02 -6.2 L 151.02 38.39 C 151.02 43.4 146.95 47.48 141.94 47.48 L 134.45 47.48 C 127.67 47.48 122.16 52.99 122.16 59.77 L 122.16 90.28 C 122.16 97.06 127.67 102.57 134.45 102.57 L 200.76 102.57 C 205.77 102.57 209.84 106.65 209.84 111.66 L 209.84 166.18 C 209.84 171.19 205.77 175.26 200.76 175.26 L 31.88 175.26 C 25.1 175.26 19.58 180.78 19.58 187.56 L 19.58 281.63 L 22.79 281.63 L 22.79 187.56 C 22.79 182.55 26.87 178.47 31.88 178.47 L 200.76 178.47 C 207.54 178.47 213.05 172.96 213.05 166.18 L 213.05 111.66 C 213.05 104.88 207.54 99.36 200.76 99.36 L 134.45 99.36 C 129.44 99.36 125.37 95.29 125.37 90.28 L 125.37 59.77 C 125.37 54.76 129.44 50.69 134.45 50.69 L 141.94 50.69 C 148.71 50.69 154.23 45.17 154.23 38.39 L 154.23 -6.2 C 154.23 -12.98 148.71 -18.49 141.94 -18.49 L 90.62 -18.49 C 85.61 -18.49 81.54 -22.57 81.54 -27.58 L 81.54 -78.62 C 81.54 -85.4 76.26 -90.92 69.78 -90.92 C 65.06 -90.92 61.23 -94.99 61.23 -100 L 61.23 -124.59 C 61.23 -131.37 55.71 -136.88 48.93 -136.88 L -0.24 -136.88 C -5.25 -136.88 -9.33 -140.96 -9.33 -145.97 L -9.33 -169.54 C -9.33 -174.55 -5.25 -178.63 -0.24 -178.63 L 93.83 -178.63 C 100.61 -178.63 106.12 -184.14 106.12 -190.92 L 106.12 -200.66 C 106.12 -207.44 100.61 -212.95 93.83 -212.95 L 56.42 -212.95 C 51.41 -212.95 47.33 -217.03 47.33 -222.04 L 47.33 -223.14 C 47.33 -228.15 51.41 -232.23 56.42 -232.23 L 158.5 -232.23 C 163.51 -232.23 167.59 -228.15 167.59 -223.14 L 167.59 -129.16 C 167.59 -122.38 172.98 -116.86 179.62 -116.86 L 190.04 -116.86 L 190.04 -120.07 L 179.62 -120.07 C 174.75 -120.07 170.79 -124.15 170.79 -129.16 L 170.79 -223.14 C 170.79 -229.92 165.28 -235.43 158.5 -235.43" />
    <path fill="#87d1c5" fill-rule="evenodd" d="M 31.18 300.1 C 31.18 305.62 26.71 310.09 21.19 310.09 C 15.67 310.09 11.19 305.62 11.19 300.1 C 11.19 294.58 15.67 290.1 21.19 290.1 C 26.71 290.1 31.18 294.58 31.18 300.1" />
    <path fill="#87d1c5" fill-rule="evenodd" d="M 21.19 320.94 C 9.69 320.94 0.34 311.59 0.34 300.1 C 0.34 288.6 9.69 279.25 21.19 279.25 C 32.68 279.25 42.03 288.6 42.03 300.1 C 42.03 311.59 32.68 320.94 21.19 320.94 L 21.19 320.94 Z M 21.19 282.46 C 11.46 282.46 3.55 290.37 3.55 300.1 C 3.55 309.82 11.46 317.74 21.19 317.74 C 30.91 317.74 38.83 309.82 38.83 300.1 C 38.83 290.37 30.91 282.46 21.19 282.46 L 21.19 282.46 Z M 21.19 282.46" />
</svg>