<?xml version="1.0" encoding="utf-8"?>
<!-- Generator: Avocode 2.4.2-d618096 - http://avocode.com -->
<svg height="198" width="156" xmlns:xlink="http://www.w3.org/1999/xlink" xmlns="http://www.w3.org/2000/svg" viewBox="0 0 156 198">
    <path fill="#87d1c5" fill-rule="evenodd" d="M 366.53 -35.41 L 321.63 -35.41 C 314.85 -35.41 309.33 -29.9 309.33 -23.12 L 309.33 45.3 C 309.33 52.08 314.85 57.59 321.63 57.59 L 406.08 57.59 C 411.09 57.59 415.16 61.67 415.16 66.68 L 415.16 91.27 C 415.16 96.28 411.09 100.35 406.08 100.35 L 360.11 100.35 C 353.33 100.35 347.82 105.87 347.82 112.65 L 347.82 148.99 C 347.82 154 343.74 158.08 338.73 158.08 L 312.01 158.08 C 307 158.08 302.92 154 302.92 148.99 L 302.92 122.27 C 302.92 115.49 297.4 109.97 290.63 109.97 L 254.28 109.97 C 247.5 109.97 241.99 115.49 241.99 122.27 L 241.99 168.23 C 241.99 173.24 237.91 177.32 232.9 177.32 L 129.21 177.32 C 124.2 177.32 120.12 173.24 120.12 168.23 L 120.12 112.65 C 120.12 105.87 114.61 100.35 107.83 100.35 L 71.48 100.35 C 64.7 100.35 59.19 105.87 59.19 112.65 L 59.19 139.37 C 59.19 144.38 55.11 148.46 50.1 148.46 L 13.76 148.46 C 6.98 148.46 1.46 153.97 1.46 160.75 L 1.46 217.41 L 4.67 217.41 L 4.67 160.75 C 4.67 155.74 8.75 151.66 13.76 151.66 L 50.1 151.66 C 56.88 151.66 62.39 146.15 62.39 139.37 L 62.39 112.65 C 62.39 107.64 66.47 103.56 71.48 103.56 L 107.83 103.56 C 112.84 103.56 116.91 107.64 116.91 112.65 L 116.91 168.23 C 116.91 175.01 122.43 180.53 129.21 180.53 L 232.9 180.53 C 239.68 180.53 245.19 175.01 245.19 168.23 L 245.19 122.27 C 245.19 117.26 249.27 113.18 254.28 113.18 L 290.63 113.18 C 295.64 113.18 299.71 117.26 299.71 122.27 L 299.71 148.99 C 299.71 155.77 305.23 161.29 312.01 161.29 L 338.73 161.29 C 345.51 161.29 351.02 155.77 351.02 148.99 L 351.02 112.65 C 351.02 107.64 355.1 103.56 360.11 103.56 L 406.08 103.56 C 412.86 103.56 418.37 98.04 418.37 91.27 L 418.37 66.68 C 418.37 59.9 412.86 54.39 406.08 54.39 L 321.63 54.39 C 316.62 54.39 312.54 50.31 312.54 45.3 L 312.54 -23.12 C 312.54 -28.13 316.62 -32.2 321.63 -32.2 L 366.53 -32.2 L 366.53 -35.41" />
</svg>