<?xml version="1.0" encoding="UTF-8" standalone="no"?>
<svg width="157px" height="323px" viewBox="0 0 157 323" version="1.1" xmlns="http://www.w3.org/2000/svg" xmlns:xlink="http://www.w3.org/1999/xlink" xmlns:sketch="http://www.bohemiancoding.com/sketch/ns">
    <!-- Generator: bin/sketchtool 1.4 (311) - http://www.bohemiancoding.com/sketch -->
    <title>Robot side</title>
    <desc>Created with bin/sketchtool.</desc>
    <defs></defs>
    <g id="Page-1" stroke="none" stroke-width="1" fill="none" fill-rule="evenodd" sketch:type="MSPage">
        <g id="Idle-screen" sketch:type="MSArtboardGroup" transform="translate(-257.000000, -199.000000)" fill="#FC6B0E">
            <g id="Robot-side" sketch:type="MSLayerGroup" transform="translate(397.500000, 338.500000) rotate(-45.000000) translate(-397.500000, -338.500000) translate(256.000000, 193.000000)">
                <path d="M262.600391,213.64868 L262.600391,150.311252 C262.600391,136.933014 251.725436,126.075935 238.34232,126.075935 L221.077591,126.075935 C217.743213,120.296043 211.533168,116.382882 204.392288,116.382882 L175.30299,116.382882 L175.30299,106.671053 L185.000316,106.671053 C195.719685,106.671053 204.392288,98.0025558 204.392288,87.2822636 L204.392288,77.5865278 L209.255705,77.5865278 C217.254994,77.5865278 223.800354,71.0422413 223.800354,63.0308546 L223.800354,43.642065 C223.800354,35.6440887 217.254994,29.0998022 209.255705,29.0998022 L204.392288,29.0998022 L204.392288,19.390656 C204.392288,8.68645629 195.719685,0.00186633537 185.000316,0.00186633537 L97.7029149,0.00186633537 C86.9835462,0.00186633537 78.3109438,8.68645629 78.3109438,19.390656 L78.3109438,29.0998022 L73.4636217,29.0998022 C65.4482378,29.0998022 58.9028775,35.6440887 58.9028775,43.642065 L58.9028775,63.0308546 C58.9028775,71.0422413 65.4482378,77.5865278 73.4636217,77.5865278 L78.3109438,77.5865278 L78.3109438,87.2822636 C78.3109438,98.0025558 86.9835462,106.671053 97.7029149,106.671053 L107.400242,106.671053 L107.400242,116.382882 L78.3109438,116.382882 C71.1834757,116.382882 64.9761135,120.296043 61.6256401,126.075935 L44.3582286,126.075935 C30.9777953,126.075935 20.1028402,136.933014 20.1028402,150.311252 L20.1028402,213.64868 C9.04547332,215.92577 0.710869048,225.728789 0.710869048,237.409267 L0.710869048,251.95153 C0.710869048,254.628251 2.89712668,256.81415 5.55819119,256.81415 L10.4081959,256.81415 L10.4081959,271.356412 C10.4081959,274.01704 12.5944535,276.202939 15.255518,276.202939 C17.9299951,276.202939 20.1028402,274.01704 20.1028402,271.356412 L20.1028402,256.81415 L29.800167,256.81415 L29.800167,271.356412 C29.800167,274.01704 31.9864246,276.202939 34.6635843,276.202939 C37.3246488,276.202939 39.5109064,274.01704 39.5109064,271.356412 L39.5109064,256.81415 L44.3582286,256.81415 C47.0192931,256.81415 49.2082332,254.628251 49.2082332,251.95153 L49.2082332,237.409267 C49.2082332,225.728789 40.8575338,215.92577 29.800167,213.64868 L29.800167,150.311252 C29.800167,142.315958 36.3616224,135.771671 44.3582286,135.771671 L58.9028775,135.771671 L58.9028775,184.258397 C58.9028775,194.978689 67.5888925,203.663279 78.3109438,203.663279 L97.7029149,203.663279 L97.7029149,233.235944 C81.3073239,235.606907 68.6002044,249.628845 68.6002044,266.692267 L68.6002044,286.083739 C68.6002044,288.757777 70.786462,290.930266 73.4636217,290.930266 L131.65563,290.930266 C134.316695,290.930266 136.502952,288.757777 136.502952,286.083739 L136.502952,266.692267 C136.502952,249.628845 123.79315,235.606907 107.400242,233.235944 L107.400242,203.663279 L175.30299,203.663279 L175.30299,233.235944 C158.907399,235.606907 146.200279,249.628845 146.200279,266.692267 L146.200279,286.083739 C146.200279,288.757777 148.386537,290.930266 151.047601,290.930266 L209.255705,290.930266 C211.916769,290.930266 214.103027,288.757777 214.103027,286.083739 L214.103027,266.692267 C214.103027,249.628845 201.393225,235.606907 185.000316,233.235944 L185.000316,203.663279 L204.392288,203.663279 C215.111656,203.663279 223.800354,194.978689 223.800354,184.258397 L223.800354,135.771671 L238.34232,135.771671 C246.341609,135.771671 252.903064,142.315958 252.903064,150.311252 L252.903064,213.64868 C241.845698,215.92577 233.494998,225.728789 233.494998,237.409267 L233.494998,251.95153 C233.494998,254.628251 235.683938,256.81415 238.34232,256.81415 L243.192325,256.81415 L243.192325,271.356412 C243.192325,274.01704 245.378583,276.202939 248.039647,276.202939 C250.716807,276.202939 252.903064,274.01704 252.903064,271.356412 L252.903064,256.81415 L262.600391,256.81415 L262.600391,271.356412 C262.600391,274.01704 264.770554,276.202939 267.447713,276.202939 C270.108778,276.202939 272.295036,274.01704 272.295036,271.356412 L272.295036,256.81415 L277.14504,256.81415 C279.806105,256.81415 281.992362,254.628251 281.992362,251.95153 L281.992362,237.409267 C281.992362,225.728789 273.657758,215.92577 262.600391,213.64868 L262.600391,213.64868 Z M204.392288,38.7955381 L209.255705,38.7955381 C211.916769,38.7955381 214.103027,40.9814371 214.103027,43.642065 L214.103027,63.0308546 C214.103027,65.7075751 211.916769,67.893474 209.255705,67.893474 L204.392288,67.893474 L204.392288,38.7955381 L204.392288,38.7955381 Z M78.3109438,67.893474 L73.4636217,67.893474 C70.786462,67.893474 68.6002044,65.7075751 68.6002044,63.0308546 L68.6002044,43.642065 C68.6002044,40.9814371 70.786462,38.7955381 73.4636217,38.7955381 L78.3109438,38.7955381 L78.3109438,67.893474 L78.3109438,67.893474 Z M186.529356,83.0928475 C186.529356,85.8446663 184.265305,88.1083457 181.52913,88.1083457 C178.774177,88.1083457 176.512808,85.8446663 176.512808,83.0928475 L176.512808,73.091354 C176.512808,70.3395352 178.774177,68.0919483 181.52913,68.0919483 C184.265305,68.0919483 186.529356,70.3395352 186.529356,73.091354 L186.529356,83.0928475 L186.529356,83.0928475 Z M106.496231,83.0928475 C106.496231,85.8446663 104.234863,88.1083457 101.496005,88.1083457 C98.7437345,88.1083457 96.4796836,85.8446663 96.4796836,83.0928475 L96.4796836,73.091354 C96.4796836,70.3395352 98.7437345,68.0919483 101.496005,68.0919483 C104.234863,68.0919483 106.496231,70.3395352 106.496231,73.091354 L106.496231,83.0928475 L106.496231,83.0928475 Z M126.808308,266.692267 L126.808308,281.23453 L117.110981,281.23453 L117.110981,271.541476 C117.110981,268.880848 114.924724,266.692267 112.247564,266.692267 C109.586499,266.692267 107.400242,268.880848 107.400242,271.541476 L107.400242,281.23453 L97.7029149,281.23453 L97.7029149,271.541476 C97.7029149,268.880848 95.5166573,266.692267 92.8555928,266.692267 C90.1945283,266.692267 88.0082706,268.880848 88.0082706,271.541476 L88.0082706,281.23453 L78.3109438,281.23453 L78.3109438,266.692267 C78.3109438,253.314029 89.1698038,242.440858 102.550237,242.440858 C115.933353,242.440858 126.808308,253.314029 126.808308,266.692267 L126.808308,266.692267 Z M126.71442,170.223048 C126.71442,172.974867 124.466464,175.235864 121.714194,175.235864 L91.6457741,175.235864 C88.8935038,175.235864 86.6294529,172.974867 86.6294529,170.223048 L86.6294529,150.190558 C86.6294529,147.422647 88.8935038,145.17506 91.6457741,145.17506 L121.714194,145.17506 C124.466464,145.17506 126.71442,147.422647 126.71442,150.190558 L126.71442,170.223048 L126.71442,170.223048 Z M156.798934,165.22096 C156.798934,167.972779 154.534883,170.223048 151.782613,170.223048 C149.02766,170.223048 146.766292,167.972779 146.766292,165.22096 L146.766292,155.189964 C146.766292,152.438145 149.02766,150.190558 151.782613,150.190558 C154.534883,150.190558 156.798934,152.438145 156.798934,155.189964 L156.798934,165.22096 L156.798934,165.22096 Z M117.110981,106.671053 L165.608345,106.671053 L165.608345,116.3802 L117.110981,116.3802 L117.110981,106.671053 Z M116.499366,83.0928475 L116.499366,73.091354 C116.499366,70.3395352 118.747321,68.0919483 121.499592,68.0919483 C124.254544,68.0919483 126.5025,70.3395352 126.5025,73.091354 L126.5025,83.0928475 C126.5025,85.8446663 124.254544,88.1083457 121.499592,88.1083457 C118.747321,88.1083457 116.499366,85.8446663 116.499366,83.0928475 L116.499366,83.0928475 Z M136.502952,83.0928475 L136.502952,73.091354 C136.502952,70.3395352 138.750908,68.0919483 141.503178,68.0919483 C144.258131,68.0919483 146.506087,70.3395352 146.506087,73.091354 L146.506087,83.0928475 C146.506087,85.8446663 144.258131,88.1083457 141.503178,88.1083457 C138.750908,88.1083457 136.502952,85.8446663 136.502952,83.0928475 L136.502952,83.0928475 Z M166.509674,83.0928475 C166.509674,85.8446663 164.261718,88.1083457 161.509448,88.1083457 C158.754495,88.1083457 156.506539,85.8446663 156.506539,83.0928475 L156.506539,73.091354 C156.506539,70.3395352 158.754495,68.0919483 161.509448,68.0919483 C164.261718,68.0919483 166.509674,70.3395352 166.509674,73.091354 L166.509674,83.0928475 L166.509674,83.0928475 Z M147.286702,43.6259725 L135.722338,43.6259725 C133.308065,51.9913944 125.582394,58.0904548 116.499366,58.0904548 C105.441999,58.0904548 96.4796836,49.1457026 96.4796836,38.0901498 C96.4796836,27.0345971 105.441999,18.0898449 116.499366,18.0898449 C126.089391,18.0898449 134.163791,24.8942936 136.073748,33.9624216 L146.932608,33.9624216 C148.829153,24.8942936 156.874045,18.0898449 166.509674,18.0898449 C177.567041,18.0898449 186.529356,27.0345971 186.529356,38.0901498 C186.529356,49.1457026 177.567041,58.0904548 166.509674,58.0904548 C157.394455,58.0904548 149.687561,51.9913944 147.286702,43.6259725 L147.286702,43.6259725 Z M171.831803,170.223048 C169.063437,170.223048 166.815481,167.972779 166.815481,165.22096 L166.815481,155.189964 C166.815481,152.438145 169.063437,150.190558 171.831803,150.190558 C174.584073,150.190558 176.832029,152.438145 176.832029,155.189964 L176.832029,165.22096 C176.832029,167.972779 174.584073,170.223048 171.831803,170.223048 L171.831803,170.223048 Z M204.392288,266.692267 L204.392288,281.23453 L194.694961,281.23453 L194.694961,271.541476 C194.694961,268.880848 192.524798,266.692267 189.847639,266.692267 C187.186574,266.692267 185.000316,268.880848 185.000316,271.541476 L185.000316,281.23453 L175.30299,281.23453 L175.30299,271.541476 C175.30299,268.880848 173.116732,266.692267 170.455668,266.692267 C167.778508,266.692267 165.608345,268.880848 165.608345,271.541476 L165.608345,281.23453 L155.894923,281.23453 L155.894923,266.692267 C155.894923,253.314029 166.769879,242.440858 180.150312,242.440858 C193.533428,242.440858 204.392288,253.314029 204.392288,266.692267 L204.392288,266.692267 Z M196.883901,165.22096 C196.883901,167.972779 194.61985,170.223048 191.86758,170.223048 C189.112627,170.223048 186.864671,167.972779 186.864671,165.22096 L186.864671,155.189964 C186.864671,152.438145 189.112627,150.190558 191.86758,150.190558 C194.61985,150.190558 196.883901,152.438145 196.883901,155.189964 L196.883901,165.22096 L196.883901,165.22096 Z" id="Fill-1" sketch:type="MSShapeGroup"></path>
                <path d="M125.161238,45.1413503 L108.194269,45.1413503 C105.981186,45.1413503 104.170482,43.3309432 104.170482,41.1182234 C104.170482,38.9055036 105.981186,37.0950965 108.194269,37.0950965 L125.161238,37.0950965 C127.374321,37.0950965 129.185025,38.9055036 129.185025,41.1182234 C129.185025,43.3309432 127.374321,45.1413503 125.161238,45.1413503" id="Fill-2" sketch:type="MSShapeGroup"></path>
                <path d="M174.991817,44.7953614 L158.027531,44.7953614 C155.814448,44.7953614 154.003743,42.9849543 154.003743,40.7722345 C154.003743,38.5595147 155.814448,36.7491075 158.027531,36.7491075 L174.991817,36.7491075 C177.2049,36.7491075 179.015604,38.5595147 179.015604,40.7722345 C179.015604,42.9849543 177.2049,44.7953614 174.991817,44.7953614" id="Fill-3" sketch:type="MSShapeGroup"></path>
            </g>
        </g>
    </g>
</svg>