<?xml version="1.0" encoding="utf-8"?>
<!-- Generator: Avocode 2.4.2-d618096 - http://avocode.com -->
<svg height="169" width="192" xmlns:xlink="http://www.w3.org/1999/xlink" xmlns="http://www.w3.org/2000/svg" viewBox="0 0 192 169">
    <path fill="#e2e2e2" fill-rule="evenodd" d="M 48.92 0 C 21.93 0 0.06 21.92 0.06 48.96 C 0.06 76 21.93 97.92 48.92 97.92 C 75.9 97.92 97.77 76 97.77 48.96 C 97.77 21.92 75.9 0 48.92 0 L 48.92 0 Z M 38.93 61.09 L 21.41 61.09 L 21.41 57.78 L 32.1 41.44 L 22.41 41.44 L 22.41 36.83 L 38.82 36.83 L 38.82 40.14 L 28.13 56.48 L 38.93 56.48 L 38.93 61.09 L 38.93 61.09 Z M 56.34 61.09 L 41.57 61.09 L 41.57 58.15 L 49.29 46.92 L 42.42 46.92 L 42.42 42.63 L 56.08 42.63 L 56.08 45.54 L 48.36 56.81 L 56.34 56.81 L 56.34 61.09 L 56.34 61.09 Z M 73.42 61.09 L 58.65 61.09 L 58.65 58.15 L 66.37 46.92 L 59.5 46.92 L 59.5 42.63 L 73.16 42.63 L 73.16 45.54 L 65.44 56.81 L 73.42 56.81 L 73.42 61.09 L 73.42 61.09 Z M 73.42 61.09" />
    <path fill="#e2e2e2" fill-rule="evenodd" d="M 136.08 83.4 C 136.08 91.04 129.91 97.23 122.28 97.23 C 114.66 97.23 108.49 91.04 108.49 83.4 C 108.49 75.77 114.66 69.58 122.28 69.58 C 129.91 69.58 136.08 75.77 136.08 83.4" />
    <path fill="#e2e2e2" fill-rule="evenodd" d="M 163.77 99.69 C 163.77 104.11 160.2 107.69 155.79 107.69 C 151.37 107.69 147.8 104.11 147.8 99.69 C 147.8 95.27 151.37 91.68 155.79 91.68 C 160.2 91.68 163.77 95.27 163.77 99.69" />
    <path fill="#e2e2e2" fill-rule="evenodd" d="M 172.46 32.79 C 167.45 32.79 162.44 32.79 157.43 32.79 C 156.38 32.79 155.86 32.25 155.86 31.18 C 155.86 25.68 155.86 20.17 155.86 14.66 C 155.86 13.58 156.4 13.04 157.46 13.04 C 167.46 13.04 177.45 13.04 187.44 13.04 C 188.53 13.04 189.06 13.58 189.06 14.68 C 189.06 15.89 189.07 17.1 189.05 18.3 C 189.05 18.63 189.15 18.73 189.46 18.71 C 189.83 18.68 190.2 18.7 190.58 18.71 C 191.33 18.72 191.8 19.17 191.81 19.94 C 191.83 20.89 191.82 21.84 191.83 22.79 C 191.83 23.77 191.82 24.75 191.82 25.72 C 191.82 26.67 191.36 27.15 190.43 27.15 C 190.1 27.15 189.77 27.17 189.44 27.15 C 189.14 27.12 189.05 27.23 189.05 27.53 C 189.07 28.74 189.06 29.95 189.06 31.15 C 189.06 32.27 188.55 32.79 187.44 32.79 C 182.45 32.79 177.45 32.79 172.46 32.79 L 172.46 32.79 Z M 172.45 15.84 L 172.45 15.84 C 167.98 15.84 163.5 15.85 159.02 15.83 C 158.69 15.83 158.59 15.92 158.6 16.26 C 158.62 17.27 158.61 18.27 158.61 19.27 C 158.61 22.71 158.61 26.14 158.6 29.57 C 158.6 29.94 158.7 30.03 159.05 30.02 C 159.66 29.99 160.27 30.01 160.88 30.01 C 169.2 30.01 177.52 30.01 185.83 30.02 C 186.22 30.02 186.32 29.91 186.32 29.52 C 186.31 25.11 186.31 20.7 186.32 16.29 C 186.32 15.95 186.26 15.83 185.89 15.83 C 181.41 15.85 176.93 15.84 172.45 15.84 L 172.45 15.84 Z M 172.45 15.84" />
    <path fill="#e2e2e2" fill-rule="evenodd" d="M 160.38 22.99 C 160.38 21.62 160.39 20.25 160.38 18.88 C 160.37 18.58 160.45 18.48 160.75 18.49 C 162.09 18.5 163.44 18.5 164.78 18.49 C 165.03 18.49 165.13 18.56 165.13 18.83 C 165.12 21.63 165.12 24.42 165.13 27.21 C 165.13 27.44 165.05 27.53 164.83 27.52 C 163.45 27.52 162.06 27.51 160.68 27.52 C 160.38 27.52 160.38 27.36 160.38 27.14 C 160.39 25.75 160.38 24.37 160.38 22.99" />
    <path fill="#e2e2e2" fill-rule="evenodd" d="M 70.35 158.61 C 70.26 158.36 70.02 158.2 69.77 158.2 L 65.63 158.2 L 69.12 146.28 C 69.18 146.09 69.14 145.88 69.02 145.72 C 68.91 145.56 68.72 145.46 68.53 145.46 L 60.65 145.46 L 63.53 134.81 C 63.59 134.62 63.55 134.41 63.43 134.25 C 63.31 134.09 63.13 134 62.94 134 L 57.97 134 C 57.69 134 57.45 134.18 57.37 134.46 L 53.03 149.74 C 52.97 149.93 53.01 150.14 53.12 150.3 C 53.24 150.46 53.42 150.56 53.62 150.56 L 61.49 150.56 L 59.36 158.2 L 54.86 158.2 C 54.64 158.2 54.44 158.32 54.32 158.51 C 54.21 158.71 54.21 158.95 54.32 159.14 L 59.29 168.06 C 59.39 168.23 59.55 168.35 59.73 168.38 C 59.76 168.38 59.8 168.38 59.83 168.38 C 59.98 168.38 60.12 168.33 60.24 168.22 L 70.18 159.31 C 70.37 159.14 70.44 158.86 70.35 158.61" />
</svg>