<?xml version="1.0" encoding="utf-8"?>
<!-- Generator: Avocode 2.4.2-d618096 - http://avocode.com -->
<svg height="24" width="18" xmlns:xlink="http://www.w3.org/1999/xlink" xmlns="http://www.w3.org/2000/svg" viewBox="0 0 18 24">
    <path fill="#ffffff" fill-rule="evenodd" d="M 9 0 C 5.69 0 3 2.69 3 6 L 3 9 C 1.35 9 0 10.35 0 12 L 0 21 C 0 22.65 1.35 24 3 24 L 15 24 C 16.65 24 18 22.65 18 21 L 18 12 C 18 10.35 16.65 9 15 9 L 15 6 C 15 2.69 12.31 0 9 0 L 9 0 Z M 5 6 C 5 3.79 6.79 2 9 2 C 11.21 2 13 3.79 13 6 L 13 9 L 5 9 L 5 6 L 5 6 Z M 16 12 L 16 21 C 16 21.55 15.55 22 15 22 L 3 22 C 2.45 22 2 21.55 2 21 L 2 12 C 2 11.45 2.45 11 3 11 L 15 11 C 15.55 11 16 11.45 16 12 L 16 12 Z M 16 12" />
    <path fill="#ffffff" fill-rule="evenodd" d="M 9 12 C 7.35 12 6 13.35 6 15 C 6 16.32 6.86 17.42 8.04 17.83 C 8.02 17.88 8 17.94 8 18 L 8 19 C 8 19.55 8.45 20 9 20 C 9.55 20 10 19.55 10 19 L 10 18 C 10 17.94 9.98 17.88 9.96 17.83 C 11.14 17.42 12 16.32 12 15 C 12 13.35 10.65 12 9 12 L 9 12 Z M 9 16 C 8.45 16 8 15.55 8 15 C 8 14.45 8.45 14 9 14 C 9.55 14 10 14.45 10 15 C 10 15.55 9.55 16 9 16 L 9 16 Z M 9 16" />
</svg>