<?xml version="1.0" encoding="utf-8"?>
<!-- Generator: Avocode 2.4.2-d618096 - http://avocode.com -->
<svg height="263" width="170" xmlns:xlink="http://www.w3.org/1999/xlink" xmlns="http://www.w3.org/2000/svg" viewBox="0 0 170 263">
    <path fill="#fc6b0e" fill-rule="evenodd" d="M 7.55 0.69 L 61.9 0.69 L 61.9 55.59 L 7.55 55.59 L 7.55 0.69 Z M 7.55 0.69" />
    <path fill="#fffffe" fill-rule="evenodd" d="M 41.48 25.57 L 35.67 25.57 C 35.46 25.57 35.3 25.74 35.3 25.94 L 35.3 26.75 C 35.3 26.95 35.46 27.11 35.67 27.11 L 40.33 27.11 L 40.33 29.5 L 35.67 29.5 C 35.46 29.5 35.3 29.67 35.3 29.87 L 35.3 33 L 32.17 33 L 32.17 23.46 C 32.17 23.26 32.34 23.09 32.53 23.09 L 41.48 23.09 L 41.48 25.57" />
    <path fill="#fffffe" fill-rule="evenodd" d="M 28.16 33 L 28.16 25.94 C 28.16 25.74 28 25.57 27.8 25.57 L 24.56 25.57 C 24.36 25.57 24.19 25.74 24.19 25.94 L 24.19 33 L 21.06 33 L 21.06 23.46 C 21.06 23.26 21.23 23.09 21.43 23.09 L 30.93 23.09 C 31.13 23.09 31.29 23.26 31.29 23.46 L 31.29 33 L 28.16 33" />
    <path fill="#fffffe" fill-rule="evenodd" d="M 44.95 26.77 L 47.6 28.46 L 47.6 28.47 L 47.6 27.55 C 47.6 26.81 47.46 26.29 47.2 26 C 46.94 25.72 46.46 25.57 45.77 25.57 L 42.24 25.57 L 42.24 23.09 L 46.48 23.09 C 48.03 23.09 49.1 23.36 49.71 23.91 C 50.32 24.46 50.63 25.35 50.63 26.58 L 50.63 30.37 L 50.63 30.36 L 51.77 31.07 L 50.52 33.02 L 49.43 32.36 L 49.44 32.36 C 48.81 32.79 47.84 33 46.55 33 L 40.49 33 L 40.49 30.51 L 46.4 30.51 L 46.47 30.49 L 43.71 28.76 L 44.95 26.77" />
    <path fill="#fffffe" fill-rule="evenodd" d="M 17.75 30.52 L 20.22 30.52 L 20.22 33.01 L 17.75 33.01 L 17.75 30.52 Z M 17.75 30.52" />
    <path fill="#bcbcbc" fill-rule="evenodd" d="M 95.21 178.16 L 103.9 182.2 L 103.9 181.78 L 95.21 178.16" />
    <path fill="#bcbcbc" fill-rule="evenodd" d="M 93.92 159.31 L 93.92 160.44 L 103.93 164.49 L 103.94 163.35 L 93.92 159.31" />
    <path fill="#bcbcbc" fill-rule="evenodd" d="M 93.92 157.28 L 93.92 158.4 L 103.94 162.44 L 103.94 161.31 L 93.92 157.28" />
    <path fill="#bcbcbc" fill-rule="evenodd" d="M 93.89 175.58 L 93.89 176.68 L 103.9 180.84 L 103.9 179.73 L 93.89 175.58" />
    <path fill="#bcbcbc" fill-rule="evenodd" d="M 93.9 169.48 L 93.9 170.6 L 103.91 174.72 L 103.92 173.59 L 93.9 169.48" />
    <path fill="#bcbcbc" fill-rule="evenodd" d="M 93.9 167.44 L 93.9 168.57 L 103.92 172.68 L 103.92 171.54 L 93.9 167.44" />
    <path fill="#bcbcbc" fill-rule="evenodd" d="M 93.93 151.18 L 93.93 152.3 L 103.95 156.3 L 103.95 155.17 L 93.93 151.18" />
    <path fill="#bcbcbc" fill-rule="evenodd" d="M 93.92 161.34 L 93.91 162.47 L 103.93 166.54 L 103.93 165.4 L 93.92 161.34" />
    <path fill="#bcbcbc" fill-rule="evenodd" d="M 93.93 153.21 L 93.93 154.34 L 103.95 158.35 L 103.95 157.21 L 93.93 153.21" />
    <path fill="#bcbcbc" fill-rule="evenodd" d="M 93.91 165.41 L 93.9 166.54 L 103.92 170.63 L 103.93 169.49 L 93.91 165.41" />
    <path fill="#bcbcbc" fill-rule="evenodd" d="M 93.94 149.14 L 93.94 150.27 L 103.95 154.25 L 103.96 153.12 L 93.94 149.14" />
    <path fill="#bcbcbc" fill-rule="evenodd" d="M 93.89 171.51 L 93.89 172.64 L 103.91 176.77 L 103.91 175.63 L 93.89 171.51" />
    <path fill="#bcbcbc" fill-rule="evenodd" d="M 93.93 155.24 L 93.92 156.37 L 103.94 160.39 L 103.94 159.26 L 93.93 155.24" />
    <path fill="#bcbcbc" fill-rule="evenodd" d="M 93.89 173.54 L 93.89 174.67 L 103.91 178.82 L 103.91 177.68 L 93.89 173.54" />
    <path fill="#bcbcbc" fill-rule="evenodd" d="M 93.91 163.38 L 93.91 164.5 L 103.93 168.58 L 103.93 167.45 L 93.91 163.38" />
    <path fill="#bcbcbc" fill-rule="evenodd" d="M 97.81 144.56 L 95.93 144.95 L 106.79 149.22 L 108.7 148.84 L 97.81 144.56" />
    <path fill="#bcbcbc" fill-rule="evenodd" d="M 94.41 145.26 L 93.95 145.35 L 93.94 146.2 L 103.96 150.16 L 103.96 149.79 L 105.25 149.53 L 94.41 145.26" />
    <path fill="#bcbcbc" fill-rule="evenodd" d="M 104.66 143.15 L 102.76 143.54 L 113.72 147.83 L 115.11 147.55 L 108.4 144.61 L 104.66 143.15" />
    <path fill="#bcbcbc" fill-rule="evenodd" d="M 101.23 143.86 L 99.34 144.25 L 110.25 148.52 L 112.17 148.14 L 101.23 143.86" />
    <path fill="#bcbcbc" fill-rule="evenodd" d="M 93.94 147.11 L 93.94 148.24 L 103.96 152.21 L 103.96 151.07 L 93.94 147.11" />
    <path fill="#bcbcbc" fill-rule="evenodd" d="M 70.96 168.46 L 71.87 169.52 L 80.96 173.31 L 80.67 172.98 L 70.96 168.46" />
    <path fill="#bcbcbc" fill-rule="evenodd" d="M 81.05 180.32 L 82.51 182.04 L 89.67 185.06 L 89.66 185.07 L 91.76 185.96 L 90.26 184.2 L 81.05 180.32" />
    <path fill="#bcbcbc" fill-rule="evenodd" d="M 83.73 183.47 L 85.2 185.19 L 89.67 187.09 L 89.66 187.1 L 94.48 189.14 L 92.97 187.37 L 83.73 183.47" />
    <path fill="#bcbcbc" fill-rule="evenodd" d="M 86.42 186.63 L 87.9 188.36 L 89.67 189.12 L 89.66 189.13 L 97.21 192.33 L 95.69 190.56 L 86.42 186.63" />
    <path fill="#bcbcbc" fill-rule="evenodd" d="M 78.36 177.15 L 79.84 178.89 L 89.03 182.76 L 87.55 181.03 L 79.01 177.44 L 79.02 177.43 L 78.36 177.15" />
    <path fill="#bcbcbc" fill-rule="evenodd" d="M 91.83 192.99 L 93.34 194.76 L 102.69 198.76 L 101.17 196.97 L 91.83 192.99" />
    <path fill="#bcbcbc" fill-rule="evenodd" d="M 73.05 170.91 L 74.52 172.64 L 83.64 176.45 L 82.18 174.74 L 79.01 173.42 L 79.02 173.4 L 73.05 170.91" />
    <path fill="#bcbcbc" fill-rule="evenodd" d="M 89.12 189.8 L 90.62 191.57 L 99.95 195.54 L 98.43 193.76 L 89.12 189.8" />
    <path fill="#bcbcbc" fill-rule="evenodd" d="M 75.7 174.03 L 77.17 175.76 L 86.33 179.6 L 84.86 177.88 L 79.01 175.43 L 79.02 175.42 L 75.7 174.03" />
    <path fill="#bcbcbc" fill-rule="evenodd" d="M 60.4 199.45 L 60.4 200.56 L 69.97 204.78 L 69.97 203.67 L 60.4 199.45" />
    <path fill="#bcbcbc" fill-rule="evenodd" d="M 60.44 179.58 L 60.43 180.68 L 70.01 184.77 L 70.01 183.66 L 60.44 179.58" />
    <path fill="#bcbcbc" fill-rule="evenodd" d="M 60.48 157.73 L 60.48 158.83 L 70.05 162.78 L 70.05 161.68 L 60.48 157.73" />
    <path fill="#bcbcbc" fill-rule="evenodd" d="M 60.4 197.47 L 60.4 198.57 L 69.97 202.78 L 69.98 201.67 L 60.4 197.47" />
    <path fill="#bcbcbc" fill-rule="evenodd" d="M 60.47 159.72 L 60.47 160.82 L 70.05 164.79 L 70.05 163.68 L 60.47 159.72" />
    <path fill="#bcbcbc" fill-rule="evenodd" d="M 60.47 161.71 L 60.47 162.79 L 70.04 166.76 L 70.05 165.68 L 60.47 161.71" />
    <path fill="#bcbcbc" fill-rule="evenodd" d="M 66.95 204.34 L 69.97 205.82 L 69.97 205.67 L 66.95 204.34" />
    <path fill="#bcbcbc" fill-rule="evenodd" d="M 60.43 183.55 L 60.43 184.65 L 70 188.77 L 70 187.66 L 60.43 183.55" />
    <path fill="#bcbcbc" fill-rule="evenodd" d="M 64.5 151.41 L 62.69 151.78 L 73.08 156 L 74.91 155.64 L 64.5 151.41" />
    <path fill="#bcbcbc" fill-rule="evenodd" d="M 60.43 181.56 L 60.43 182.67 L 70 186.77 L 70.01 185.66 L 60.43 181.56" />
    <path fill="#bcbcbc" fill-rule="evenodd" d="M 67.76 150.74 L 65.95 151.11 L 76.38 155.34 L 78.22 154.97 L 67.76 150.74" />
    <path fill="#bcbcbc" fill-rule="evenodd" d="M 60.42 185.54 L 60.42 186.64 L 70 190.77 L 70 189.66 L 60.42 185.54" />
    <path fill="#bcbcbc" fill-rule="evenodd" d="M 60.45 173.61 L 60.44 174.71 L 70.02 178.77 L 70.02 177.66 L 60.45 173.61" />
    <path fill="#bcbcbc" fill-rule="evenodd" d="M 61.24 152.08 L 60.49 152.23 L 60.49 152.87 L 70.06 156.78 L 70.06 156.61 L 71.61 156.3 L 61.24 152.08" />
    <path fill="#bcbcbc" fill-rule="evenodd" d="M 60.46 165.66 L 60.46 166.76 L 70.03 170.76 L 70.04 169.65 L 60.46 165.66" />
    <path fill="#bcbcbc" fill-rule="evenodd" d="M 60.46 169.64 L 60.45 170.74 L 70.03 174.77 L 70.03 173.66 L 60.46 169.64" />
    <path fill="#bcbcbc" fill-rule="evenodd" d="M 70.32 150.21 L 69.23 150.43 L 79.7 154.67 L 80.02 154.61 L 70.32 150.21" />
    <path fill="#bcbcbc" fill-rule="evenodd" d="M 60.45 171.62 L 60.45 172.73 L 70.02 176.77 L 70.03 175.66 L 60.45 171.62" />
    <path fill="#bcbcbc" fill-rule="evenodd" d="M 60.46 167.65 L 60.46 168.75 L 70.03 172.76 L 70.03 171.65 L 60.46 167.65" />
    <path fill="#bcbcbc" fill-rule="evenodd" d="M 60.42 189.52 L 60.42 190.62 L 69.99 194.77 L 69.99 193.66 L 60.42 189.52" />
    <path fill="#bcbcbc" fill-rule="evenodd" d="M 60.47 163.7 L 60.46 164.77 L 70.04 168.76 L 70.04 167.68 L 60.47 163.7" />
    <path fill="#bcbcbc" fill-rule="evenodd" d="M 60.42 187.53 L 60.42 188.63 L 69.99 192.77 L 69.99 191.67 L 60.42 187.53" />
    <path fill="#bcbcbc" fill-rule="evenodd" d="M 60.4 195.48 L 60.4 196.58 L 69.98 200.78 L 69.98 199.67 L 60.4 195.48" />
    <path fill="#bcbcbc" fill-rule="evenodd" d="M 60.41 191.5 L 60.41 192.61 L 69.98 196.78 L 69.99 195.67 L 60.41 191.5" />
    <path fill="#bcbcbc" fill-rule="evenodd" d="M 60.41 193.49 L 60.41 194.59 L 69.98 198.78 L 69.98 197.67 L 60.41 193.49" />
    <path fill="#bcbcbc" fill-rule="evenodd" d="M 60.48 155.74 L 60.48 156.85 L 70.05 160.78 L 70.06 159.68 L 60.48 155.74" />
    <path fill="#bcbcbc" fill-rule="evenodd" d="M 60.48 153.76 L 60.48 154.86 L 70.06 158.78 L 70.06 157.67 L 60.48 153.76" />
    <path fill="#bcbcbc" fill-rule="evenodd" d="M 60.44 175.6 L 60.44 176.7 L 70.02 180.77 L 70.02 179.66 L 60.44 175.6" />
    <path fill="#bcbcbc" fill-rule="evenodd" d="M 60.44 177.59 L 60.44 178.69 L 70.01 182.77 L 70.01 181.66 L 60.44 177.59" />
    <path fill="#bcbcbc" fill-rule="evenodd" d="M 139.99 177.23 L 138.03 177.58 L 143.92 179.96 L 143.91 179.98 L 149.48 182.22 L 151.5 181.87 L 139.99 177.23" />
    <path fill="#bcbcbc" fill-rule="evenodd" d="M 156.71 174.24 L 156.18 174.34 L 163.3 177.16 L 156.71 174.24" />
    <path fill="#bcbcbc" fill-rule="evenodd" d="M 138.06 182.73 L 140.42 183.81 L 140.61 183.77 L 138.06 182.73" />
    <path fill="#bcbcbc" fill-rule="evenodd" d="M 150.88 175.28 L 148.86 175.65 L 160.5 180.3 L 162.56 179.94 L 150.88 175.28" />
    <path fill="#bcbcbc" fill-rule="evenodd" d="M 154.54 174.63 L 152.51 174.99 L 164.21 179.65 L 166.27 179.29 L 154.54 174.63" />
    <path fill="#bcbcbc" fill-rule="evenodd" d="M 136.4 177.87 L 134.44 178.22 L 143.92 182.07 L 143.91 182.08 L 145.84 182.86 L 147.85 182.51 L 136.4 177.87" />
    <path fill="#bcbcbc" fill-rule="evenodd" d="M 132.82 178.51 L 130.87 178.86 L 142.25 183.49 L 144.22 183.14 L 132.82 178.51" />
    <path fill="#bcbcbc" fill-rule="evenodd" d="M 147.24 175.94 L 145.22 176.3 L 156.81 180.95 L 158.85 180.59 L 147.24 175.94" />
    <path fill="#bcbcbc" fill-rule="evenodd" d="M 143.6 176.59 L 141.63 176.94 L 143.92 177.86 L 143.91 177.87 L 153.14 181.59 L 155.17 181.23 L 143.6 176.59" />
    <path fill="#bcbcbc" fill-rule="evenodd" d="M 137.18 157.28 L 135.22 157.66 L 143.92 161.06 L 143.91 161.08 L 146.63 162.14 L 148.65 161.76 L 137.18 157.28" />
    <path fill="#bcbcbc" fill-rule="evenodd" d="M 140.78 156.59 L 138.81 156.97 L 143.92 158.96 L 143.91 158.97 L 150.28 161.46 L 152.3 161.08 L 140.78 156.59" />
    <path fill="#bcbcbc" fill-rule="evenodd" d="M 130.06 158.65 L 129.95 158.67 L 140.46 163.3 L 141.39 163.13 L 132.48 159.62 L 132.49 159.6 L 130.06 158.65" />
    <path fill="#bcbcbc" fill-rule="evenodd" d="M 133.6 157.97 L 131.65 158.34 L 143.04 162.82 L 145.01 162.45 L 133.6 157.97" />
    <path fill="#bcbcbc" fill-rule="evenodd" d="M 148.03 155.2 L 146.01 155.58 L 157.61 160.08 L 159.66 159.7 L 148.03 155.2" />
    <path fill="#bcbcbc" fill-rule="evenodd" d="M 151.68 154.5 L 149.65 154.88 L 161.31 159.39 L 163.36 159 L 151.68 154.5" />
    <path fill="#bcbcbc" fill-rule="evenodd" d="M 144.4 155.89 L 142.42 156.27 L 143.92 156.86 L 143.91 156.87 L 153.94 160.77 L 155.97 160.39 L 144.4 155.89" />
    <path fill="#bcbcbc" fill-rule="evenodd" d="M 118.61 145.87 L 118.61 147.01 L 128.96 151.04 L 128.97 149.89 L 118.61 145.87" />
    <path fill="#bcbcbc" fill-rule="evenodd" d="M 118.61 147.93 L 118.61 149.08 L 128.96 153.12 L 128.96 151.97 L 118.61 147.93" />
    <path fill="#bcbcbc" fill-rule="evenodd" d="M 133.8 137.15 L 131.85 137.55 L 143.24 141.88 L 145.21 141.48 L 133.8 137.15" />
    <path fill="#bcbcbc" fill-rule="evenodd" d="M 118.6 154.13 L 118.6 155.25 L 128.95 159.34 L 128.95 158.21 L 118.6 154.13" />
    <path fill="#bcbcbc" fill-rule="evenodd" d="M 118.62 141.73 L 118.62 142.88 L 128.97 146.88 L 128.97 145.72 L 118.62 141.73" />
    <path fill="#bcbcbc" fill-rule="evenodd" d="M 118.54 185.11 L 118.53 186.26 L 128.88 190.55 L 128.89 189.39 L 118.54 185.11" />
    <path fill="#bcbcbc" fill-rule="evenodd" d="M 118.61 150 L 118.6 151.14 L 128.96 155.2 L 128.96 154.05 L 118.61 150" />
    <path fill="#bcbcbc" fill-rule="evenodd" d="M 118.57 170.64 L 118.56 171.79 L 128.91 175.98 L 128.92 174.83 L 118.57 170.64" />
    <path fill="#bcbcbc" fill-rule="evenodd" d="M 118.57 168.58 L 118.57 169.72 L 128.92 173.9 L 128.92 172.75 L 118.57 168.58" />
    <path fill="#bcbcbc" fill-rule="evenodd" d="M 118.53 187.18 L 118.53 188.32 L 128.88 192.63 L 128.88 191.48 L 118.53 187.18" />
    <path fill="#bcbcbc" fill-rule="evenodd" d="M 118.54 183.04 L 118.54 184.19 L 128.89 188.47 L 128.89 187.31 L 118.54 183.04" />
    <path fill="#bcbcbc" fill-rule="evenodd" d="M 118.53 189.24 L 118.53 190.39 L 128.88 194.71 L 128.88 193.56 L 118.53 189.24" />
    <path fill="#bcbcbc" fill-rule="evenodd" d="M 122.93 193.15 L 128.87 195.92 L 128.87 195.64 L 122.93 193.15" />
    <path fill="#bcbcbc" fill-rule="evenodd" d="M 148.23 134.19 L 146.22 134.6 L 157.82 138.94 L 159.86 138.53 L 148.23 134.19" />
    <path fill="#bcbcbc" fill-rule="evenodd" d="M 140.98 135.68 L 139.01 136.08 L 143.92 137.93 L 143.91 137.95 L 150.48 140.42 L 152.5 140.01 L 140.98 135.68" />
    <path fill="#bcbcbc" fill-rule="evenodd" d="M 118.59 158.24 L 118.59 159.39 L 128.94 163.5 L 128.94 162.34 L 118.59 158.24" />
    <path fill="#bcbcbc" fill-rule="evenodd" d="M 137.38 136.42 L 135.42 136.82 L 143.92 140.03 L 143.91 140.05 L 146.83 141.15 L 148.85 140.75 L 137.38 136.42" />
    <path fill="#bcbcbc" fill-rule="evenodd" d="M 118.56 172.71 L 118.56 173.85 L 128.91 178.06 L 128.91 176.91 L 118.56 172.71" />
    <path fill="#bcbcbc" fill-rule="evenodd" d="M 118.6 152.07 L 118.6 153.21 L 128.95 157.28 L 128.95 156.13 L 118.6 152.07" />
    <path fill="#bcbcbc" fill-rule="evenodd" d="M 118.59 156.2 L 118.59 157.32 L 128.94 161.42 L 128.95 160.29 L 118.59 156.2" />
    <path fill="#bcbcbc" fill-rule="evenodd" d="M 123.17 139.34 L 121.22 139.74 L 132.45 144.05 L 134.4 143.65 L 132.48 142.92 L 132.49 142.9 L 123.17 139.34" />
    <path fill="#bcbcbc" fill-rule="evenodd" d="M 119.66 140.06 L 118.63 140.27 L 118.63 140.81 L 128.98 144.79 L 128.98 144.75 L 130.86 144.37 L 119.66 140.06" />
    <path fill="#bcbcbc" fill-rule="evenodd" d="M 144.6 134.93 L 142.62 135.34 L 143.92 135.83 L 143.91 135.84 L 154.14 139.68 L 156.18 139.27 L 144.6 134.93" />
    <path fill="#bcbcbc" fill-rule="evenodd" d="M 118.56 174.78 L 118.56 175.92 L 128.91 180.15 L 128.91 178.99 L 118.56 174.78" />
    <path fill="#bcbcbc" fill-rule="evenodd" d="M 126.71 138.61 L 124.75 139.01 L 136.03 143.33 L 137.99 142.93 L 132.48 140.83 L 132.49 140.82 L 126.71 138.61" />
    <path fill="#bcbcbc" fill-rule="evenodd" d="M 118.62 143.8 L 118.62 144.94 L 128.97 148.96 L 128.97 147.8 L 118.62 143.8" />
    <path fill="#bcbcbc" fill-rule="evenodd" d="M 130.26 137.88 L 128.29 138.29 L 139.62 142.6 L 141.59 142.21 L 132.48 138.74 L 132.49 138.73 L 130.26 137.88" />
    <path fill="#bcbcbc" fill-rule="evenodd" d="M 118.54 180.98 L 118.54 182.12 L 128.89 186.39 L 128.89 185.23 L 118.54 180.98" />
    <path fill="#bcbcbc" fill-rule="evenodd" d="M 118.58 164.44 L 118.58 165.59 L 128.93 169.74 L 128.93 168.59 L 118.58 164.44" />
    <path fill="#bcbcbc" fill-rule="evenodd" d="M 155.55 132.68 L 153.51 133.1 L 165.23 137.45 L 166.82 137.13 L 161.05 134.72 L 155.55 132.68" />
    <path fill="#bcbcbc" fill-rule="evenodd" d="M 118.55 178.91 L 118.55 180.05 L 128.9 184.3 L 128.9 183.15 L 118.55 178.91" />
    <path fill="#bcbcbc" fill-rule="evenodd" d="M 118.59 160.31 L 118.58 161.45 L 128.93 165.58 L 128.94 164.42 L 118.59 160.31" />
    <path fill="#bcbcbc" fill-rule="evenodd" d="M 118.57 166.51 L 118.57 167.65 L 128.92 171.82 L 128.92 170.67 L 118.57 166.51" />
    <path fill="#bcbcbc" fill-rule="evenodd" d="M 118.55 176.84 L 118.55 177.99 L 128.9 182.22 L 128.9 181.07 L 118.55 176.84" />
    <path fill="#bcbcbc" fill-rule="evenodd" d="M 118.58 162.37 L 118.58 163.52 L 128.93 167.66 L 128.93 166.51 L 118.58 162.37" />
    <path fill="#bcbcbc" fill-rule="evenodd" d="M 151.88 133.44 L 149.86 133.85 L 161.51 138.2 L 163.57 137.78 L 151.88 133.44" />
    <path fill="#bcbcbc" fill-rule="evenodd" d="M 37.48 173.57 L 37.48 174.65 L 46.75 178.64 L 46.76 177.57 L 40.49 174.87 L 40.49 174.86 L 37.48 173.57" />
    <path fill="#bcbcbc" fill-rule="evenodd" d="M 37.48 175.52 L 37.47 176.61 L 46.75 180.61 L 46.75 179.54 L 40.49 176.84 L 40.49 176.82 L 37.48 175.52" />
    <path fill="#bcbcbc" fill-rule="evenodd" d="M 37.42 204.85 L 37.42 205.06 L 46.69 209.71 L 46.69 209.05 L 40.49 206.25 L 40.49 206.24 L 37.42 204.85" />
    <path fill="#bcbcbc" fill-rule="evenodd" d="M 37.42 202.89 L 37.42 203.98 L 46.7 208.16 L 46.7 207.08 L 40.49 204.29 L 40.49 204.27 L 37.42 202.89" />
    <path fill="#bcbcbc" fill-rule="evenodd" d="M 37.48 171.61 L 37.48 172.7 L 46.76 176.67 L 46.76 175.6 L 40.49 172.91 L 40.49 172.9 L 37.48 171.61" />
    <path fill="#bcbcbc" fill-rule="evenodd" d="M 37.47 177.48 L 37.47 178.57 L 46.75 182.58 L 46.75 181.5 L 40.49 178.8 L 40.49 178.79 L 37.47 177.48" />
    <path fill="#bcbcbc" fill-rule="evenodd" d="M 37.5 165.74 L 37.49 166.82 L 46.77 170.76 L 46.77 169.69 L 40.49 167.02 L 40.49 167.01 L 37.5 165.74" />
    <path fill="#bcbcbc" fill-rule="evenodd" d="M 37.5 163.78 L 37.5 164.87 L 46.77 168.79 L 46.77 167.72 L 40.49 165.06 L 40.49 165.05 L 37.5 163.78" />
    <path fill="#bcbcbc" fill-rule="evenodd" d="M 37.49 169.65 L 37.48 170.74 L 46.76 174.7 L 46.76 173.63 L 40.49 170.95 L 40.49 170.93 L 37.49 169.65" />
    <path fill="#bcbcbc" fill-rule="evenodd" d="M 37.49 167.7 L 37.49 168.78 L 46.76 172.73 L 46.77 171.66 L 40.49 168.99 L 40.49 168.97 L 37.49 167.7" />
    <path fill="#bcbcbc" fill-rule="evenodd" d="M 37.46 183.33 L 37.46 184.41 L 46.74 188.46 L 46.74 187.39 L 40.49 184.66 L 40.49 184.65 L 37.46 183.33" />
    <path fill="#bcbcbc" fill-rule="evenodd" d="M 37.45 191.15 L 37.44 192.24 L 46.72 196.34 L 46.72 195.27 L 40.49 192.51 L 40.49 192.5 L 37.45 191.15" />
    <path fill="#bcbcbc" fill-rule="evenodd" d="M 37.5 161.83 L 37.5 162.91 L 46.78 166.82 L 46.78 165.75 L 40.49 163.1 L 40.49 163.09 L 37.5 161.83" />
    <path fill="#bcbcbc" fill-rule="evenodd" d="M 37.44 193.11 L 37.44 194.19 L 46.72 198.31 L 46.72 197.24 L 40.49 194.47 L 40.49 194.46 L 37.44 193.11" />
    <path fill="#bcbcbc" fill-rule="evenodd" d="M 37.46 185.28 L 37.46 186.37 L 46.73 190.43 L 46.73 189.36 L 40.49 186.63 L 40.49 186.61 L 37.46 185.28" />
    <path fill="#bcbcbc" fill-rule="evenodd" d="M 37.45 189.2 L 37.45 190.28 L 46.72 194.37 L 46.72 193.3 L 40.49 190.55 L 40.49 190.54 L 37.45 189.2" />
    <path fill="#bcbcbc" fill-rule="evenodd" d="M 37.43 200.94 L 37.43 201.32 L 37.98 201.6 L 37.66 201.65 L 37.43 201.55 L 37.43 202.02 L 46.7 206.19 L 46.7 205.11 L 40.49 202.32 L 40.49 202.31 L 37.43 200.94" />
    <path fill="#bcbcbc" fill-rule="evenodd" d="M 37.47 179.44 L 37.47 180.5 L 46.74 184.52 L 46.74 183.47 L 40.49 180.76 L 40.49 180.75 L 37.47 179.44" />
    <path fill="#bcbcbc" fill-rule="evenodd" d="M 37.43 198.98 L 37.43 200.07 L 46.71 204.22 L 46.71 203.14 L 40.49 200.36 L 40.49 200.35 L 37.43 198.98" />
    <path fill="#bcbcbc" fill-rule="evenodd" d="M 37.44 195.07 L 37.44 196.15 L 46.71 200.28 L 46.71 199.2 L 40.49 196.44 L 40.49 196.42 L 37.44 195.07" />
    <path fill="#bcbcbc" fill-rule="evenodd" d="M 37.44 197.02 L 37.43 198.11 L 46.71 202.25 L 46.71 201.17 L 40.49 198.4 L 40.49 198.39 L 37.44 197.02" />
    <path fill="#bcbcbc" fill-rule="evenodd" d="M 37.47 181.39 L 37.46 182.45 L 46.74 186.49 L 46.74 185.44 L 40.49 182.72 L 40.49 182.71 L 37.47 181.39" />
    <path fill="#bcbcbc" fill-rule="evenodd" d="M 39.08 156.61 L 37.51 156.93 L 37.51 157.04 L 47.37 161.16 L 49.11 160.81 L 40.49 157.21 L 40.49 157.2 L 39.08 156.61" />
    <path fill="#bcbcbc" fill-rule="evenodd" d="M 37.45 187.24 L 37.45 188.32 L 46.73 192.4 L 46.73 191.33 L 40.49 188.59 L 40.49 188.57 L 37.45 187.24" />
    <path fill="#bcbcbc" fill-rule="evenodd" d="M 45.38 155.32 L 43.65 155.67 L 50.6 158.55 L 50.59 158.57 L 53.74 159.88 L 55.52 159.52 L 45.38 155.32" />
    <path fill="#bcbcbc" fill-rule="evenodd" d="M 47.7 154.84 L 46.83 155.02 L 50.6 156.58 L 50.59 156.59 L 56.96 159.23 L 57.1 159.2 L 47.7 154.84" />
    <path fill="#bcbcbc" fill-rule="evenodd" d="M 42.21 155.97 L 40.49 156.32 L 50.56 160.52 L 52.31 160.16 L 42.21 155.97" />
    <path fill="#bcbcbc" fill-rule="evenodd" d="M 37.51 157.91 L 37.51 159 L 46.78 162.88 L 46.79 161.81 L 40.49 159.17 L 40.49 159.16 L 37.51 157.91" />
    <path fill="#bcbcbc" fill-rule="evenodd" d="M 37.51 159.87 L 37.5 160.95 L 46.78 164.85 L 46.78 163.78 L 40.49 161.14 L 40.49 161.12 L 37.51 159.87" />
    <path fill="#bcbcbc" fill-rule="evenodd" d="M 14.14 199.65 L 12.46 199.95 L 22.14 204.36 L 23.82 204.07 L 17.09 201.01 L 17.1 201 L 14.14 199.65" />
    <path fill="#bcbcbc" fill-rule="evenodd" d="M 17.16 199.11 L 15.5 199.41 L 25.22 203.82 L 26.91 203.53 L 17.16 199.11" />
    <path fill="#bcbcbc" fill-rule="evenodd" d="M 11.11 200.19 L 9.99 200.39 L 16.97 203.94 L 19.07 204.9 L 20.74 204.61 L 17.09 202.94 L 17.1 202.93 L 11.11 200.19" />
    <path fill="#bcbcbc" fill-rule="evenodd" d="M 26.38 197.46 L 24.7 197.76 L 26.88 198.74 L 26.87 198.76 L 34.52 202.2 L 36.26 201.9 L 26.38 197.46" />
    <path fill="#bcbcbc" fill-rule="evenodd" d="M 23.3 198.01 L 21.62 198.31 L 26.88 200.69 L 26.87 200.7 L 31.4 202.75 L 33.13 202.44 L 23.3 198.01" />
    <path fill="#bcbcbc" fill-rule="evenodd" d="M 20.22 198.56 L 18.55 198.86 L 26.88 202.63 L 26.87 202.64 L 28.29 203.29 L 30.01 202.99 L 20.22 198.56" />
    <path fill="#bcbcbc" fill-rule="evenodd" d="M 28.82 197.02 L 27.77 197.21 L 37.66 201.65 L 37.98 201.6 L 28.82 197.02" />
    <path fill="#bcbcbc" fill-rule="evenodd" d="M 0.35 189.56 L 0.35 190.62 L 9.15 194.61 L 9.16 193.54 L 0.35 189.56" />
    <path fill="#bcbcbc" fill-rule="evenodd" d="M 0.38 176.24 L 0.37 177.28 L 9.18 181.18 L 9.18 180.14 L 0.38 176.24" />
    <path fill="#bcbcbc" fill-rule="evenodd" d="M 0.36 185.75 L 0.36 186.81 L 9.16 190.77 L 9.16 189.71 L 0.36 185.75" />
    <path fill="#bcbcbc" fill-rule="evenodd" d="M 0.39 168.62 L 0.39 169.67 L 9.19 173.53 L 9.19 172.46 L 0.39 168.62" />
    <path fill="#bcbcbc" fill-rule="evenodd" d="M 0.39 166.71 L 0.39 167.77 L 9.2 171.61 L 9.2 170.55 L 0.39 166.71" />
    <path fill="#bcbcbc" fill-rule="evenodd" d="M 0.39 170.52 L 0.38 171.58 L 9.19 175.45 L 9.19 174.38 L 0.39 170.52" />
    <path fill="#bcbcbc" fill-rule="evenodd" d="M 0.38 174.34 L 0.38 175.37 L 9.18 179.26 L 9.18 178.22 L 0.38 174.34" />
    <path fill="#bcbcbc" fill-rule="evenodd" d="M 0.35 191.47 L 0.35 192.53 L 9.15 196.53 L 9.15 195.46 L 0.35 191.47" />
    <path fill="#bcbcbc" fill-rule="evenodd" d="M 0.38 172.43 L 0.38 173.49 L 9.18 177.37 L 9.19 176.3 L 0.38 172.43" />
    <path fill="#bcbcbc" fill-rule="evenodd" d="M 0.34 195.28 L 0.34 196.34 L 9.14 200.36 L 9.14 199.3 L 0.34 195.28" />
    <path fill="#bcbcbc" fill-rule="evenodd" d="M 0.35 193.38 L 0.34 194.43 L 9.15 198.44 L 9.15 197.38 L 0.35 193.38" />
    <path fill="#bcbcbc" fill-rule="evenodd" d="M 0.36 187.66 L 0.35 188.71 L 9.16 192.69 L 9.16 191.62 L 0.36 187.66" />
    <path fill="#bcbcbc" fill-rule="evenodd" d="M 0.33 201 L 0.33 202.06 L 9.13 206.12 L 9.13 205.05 L 0.33 201" />
    <path fill="#bcbcbc" fill-rule="evenodd" d="M 0.32 208.63 L 0.31 209.68 L 9.12 213.79 L 9.12 212.73 L 0.32 208.63" />
    <path fill="#bcbcbc" fill-rule="evenodd" d="M 0.34 197.19 L 0.34 198.25 L 9.14 202.28 L 9.14 201.22 L 0.34 197.19" />
    <path fill="#bcbcbc" fill-rule="evenodd" d="M 0.34 199.1 L 0.33 200.15 L 9.14 204.2 L 9.14 203.14 L 0.34 199.1" />
    <path fill="#bcbcbc" fill-rule="evenodd" d="M 0.32 204.82 L 0.32 205.87 L 9.13 209.95 L 9.13 208.89 L 0.32 204.82" />
    <path fill="#bcbcbc" fill-rule="evenodd" d="M 0.33 202.91 L 0.33 203.97 L 9.13 208.04 L 9.13 206.97 L 0.33 202.91" />
    <path fill="#bcbcbc" fill-rule="evenodd" d="M 0.31 210.53 L 0.31 211.44 L 3.18 212.93 L 9.12 215.71 L 9.12 214.65 L 0.31 210.53" />
    <path fill="#bcbcbc" fill-rule="evenodd" d="M 0.4 164.8 L 0.4 165.86 L 9.2 169.69 L 9.2 168.84 L 9.53 168.77 L 0.4 164.8" />
    <path fill="#bcbcbc" fill-rule="evenodd" d="M 0.37 180.03 L 0.37 181.09 L 9.17 185.01 L 9.17 183.95 L 0.37 180.03" />
    <path fill="#bcbcbc" fill-rule="evenodd" d="M 0.37 181.94 L 0.36 183 L 9.17 186.93 L 9.17 185.87 L 0.37 181.94" />
    <path fill="#bcbcbc" fill-rule="evenodd" d="M 0.37 178.13 L 0.37 179.18 L 9.17 183.1 L 9.18 182.03 L 0.37 178.13" />
    <path fill="#bcbcbc" fill-rule="evenodd" d="M 0.36 183.85 L 0.36 184.9 L 9.16 188.85 L 9.17 187.79 L 0.36 183.85" />
    <path fill="#bcbcbc" fill-rule="evenodd" d="M 0.32 206.72 L 0.32 207.78 L 9.12 211.87 L 9.12 210.81 L 0.32 206.72" />
    <path fill="#bcbcbc" fill-rule="evenodd" d="M 3 164.02 L 1.35 164.36 L 10.88 168.5 L 12.56 168.16 L 3 164.02" />
    <path fill="#bcbcbc" fill-rule="evenodd" d="M 6 163.41 L 4.34 163.75 L 13.91 167.89 L 15.6 167.55 L 6 163.41" />
    <path fill="#bcbcbc" fill-rule="evenodd" d="M 9.02 162.79 L 7.34 163.13 L 16.96 167.27 L 18.63 166.94 L 17.09 166.28 L 17.1 166.27 L 9.02 162.79" />
    <path fill="#bcbcbc" fill-rule="evenodd" d="M 115.45 77.24 L 115.45 78.39 L 125.75 81.94 L 125.76 80.79 L 115.45 77.24" />
    <path fill="#bcbcbc" fill-rule="evenodd" d="M 115.36 122.59 L 115.36 123.74 L 125.66 127.6 L 125.67 126.45 L 115.36 122.59" />
    <path fill="#bcbcbc" fill-rule="evenodd" d="M 115.44 79.3 L 115.44 80.45 L 125.75 84.02 L 125.75 82.86 L 115.44 79.3" />
    <path fill="#bcbcbc" fill-rule="evenodd" d="M 115.44 83.43 L 115.43 84.55 L 125.74 88.14 L 125.74 87.02 L 115.44 83.43" />
    <path fill="#bcbcbc" fill-rule="evenodd" d="M 115.45 75.18 L 115.45 76.32 L 125.76 79.86 L 125.76 78.71 L 115.45 75.18" />
    <path fill="#bcbcbc" fill-rule="evenodd" d="M 115.44 81.37 L 115.44 82.49 L 125.75 86.07 L 125.75 84.94 L 115.44 81.37" />
    <path fill="#bcbcbc" fill-rule="evenodd" d="M 115.36 120.53 L 115.36 121.68 L 125.67 125.52 L 125.67 124.37 L 115.36 120.53" />
    <path fill="#bcbcbc" fill-rule="evenodd" d="M 115.47 66.93 L 115.47 68.07 L 125.78 71.56 L 125.78 70.4 L 115.47 66.93" />
    <path fill="#bcbcbc" fill-rule="evenodd" d="M 115.46 73.12 L 115.46 74.26 L 125.76 77.79 L 125.76 76.63 L 115.46 73.12" />
    <path fill="#bcbcbc" fill-rule="evenodd" d="M 115.47 68.99 L 115.46 70.13 L 125.77 73.63 L 125.77 72.48 L 115.47 68.99" />
    <path fill="#bcbcbc" fill-rule="evenodd" d="M 117.45 65.53 L 115.51 66.02 L 126.66 69.77 L 128.62 69.28 L 117.45 65.53" />
    <path fill="#bcbcbc" fill-rule="evenodd" d="M 115.35 124.66 L 115.35 124.97 L 125.66 129.33 L 125.66 128.53 L 115.35 124.66" />
    <path fill="#bcbcbc" fill-rule="evenodd" d="M 120.96 64.63 L 119.01 65.13 L 130.21 68.88 L 132.15 68.4 L 129.42 67.49 L 129.43 67.47 L 120.96 64.63" />
    <path fill="#bcbcbc" fill-rule="evenodd" d="M 115.37 118.47 L 115.36 119.61 L 125.67 123.45 L 125.67 122.29 L 115.37 118.47" />
    <path fill="#bcbcbc" fill-rule="evenodd" d="M 115.46 71.05 L 115.46 72.2 L 125.77 75.71 L 125.77 74.56 L 115.46 71.05" />
    <path fill="#bcbcbc" fill-rule="evenodd" d="M 115.43 85.47 L 115.43 86.61 L 125.74 90.22 L 125.74 89.07 L 115.43 85.47" />
    <path fill="#bcbcbc" fill-rule="evenodd" d="M 115.41 95.78 L 115.41 96.92 L 125.72 100.6 L 125.72 99.45 L 115.41 95.78" />
    <path fill="#bcbcbc" fill-rule="evenodd" d="M 115.39 108.16 L 115.39 109.3 L 125.69 113.06 L 125.7 111.91 L 115.39 108.16" />
    <path fill="#bcbcbc" fill-rule="evenodd" d="M 115.4 99.91 L 115.4 101.05 L 125.71 104.76 L 125.71 103.6 L 115.4 99.91" />
    <path fill="#bcbcbc" fill-rule="evenodd" d="M 115.4 101.97 L 115.4 103.11 L 125.71 106.83 L 125.71 105.68 L 115.4 101.97" />
    <path fill="#bcbcbc" fill-rule="evenodd" d="M 115.38 110.22 L 115.38 111.36 L 125.69 115.14 L 125.69 113.99 L 115.38 110.22" />
    <path fill="#bcbcbc" fill-rule="evenodd" d="M 115.41 97.84 L 115.4 98.99 L 125.71 102.68 L 125.72 101.53 L 115.41 97.84" />
    <path fill="#bcbcbc" fill-rule="evenodd" d="M 115.39 106.09 L 115.39 107.24 L 125.7 110.99 L 125.7 109.83 L 115.39 106.09" />
    <path fill="#bcbcbc" fill-rule="evenodd" d="M 115.42 89.59 L 115.42 90.74 L 125.73 94.37 L 125.73 93.22 L 115.42 89.59" />
    <path fill="#bcbcbc" fill-rule="evenodd" d="M 115.42 93.72 L 115.41 94.86 L 125.72 98.53 L 125.72 97.37 L 115.42 93.72" />
    <path fill="#bcbcbc" fill-rule="evenodd" d="M 115.37 116.41 L 115.37 117.55 L 125.68 121.37 L 125.68 120.22 L 115.37 116.41" />
    <path fill="#bcbcbc" fill-rule="evenodd" d="M 115.43 87.53 L 115.43 88.67 L 125.73 92.3 L 125.74 91.14 L 115.43 87.53" />
    <path fill="#bcbcbc" fill-rule="evenodd" d="M 115.38 112.28 L 115.38 113.42 L 125.68 117.22 L 125.69 116.06 L 115.38 112.28" />
    <path fill="#bcbcbc" fill-rule="evenodd" d="M 115.37 114.35 L 115.37 115.49 L 125.68 119.29 L 125.68 118.14 L 115.37 114.35" />
    <path fill="#bcbcbc" fill-rule="evenodd" d="M 115.42 91.66 L 115.42 92.8 L 125.72 96.45 L 125.73 95.3 L 115.42 91.66" />
    <path fill="#bcbcbc" fill-rule="evenodd" d="M 115.4 104.03 L 115.39 105.18 L 125.7 108.91 L 125.7 107.76 L 115.4 104.03" />
    <path fill="#bcbcbc" fill-rule="evenodd" d="M 145.94 58.27 L 143.93 58.78 L 155.5 62.55 L 157.54 62.04 L 145.94 58.27" />
    <path fill="#bcbcbc" fill-rule="evenodd" d="M 156.72 55.52 L 154.87 55.99 L 166.61 59.77 L 167.59 59.52 L 156.72 55.52" />
    <path fill="#bcbcbc" fill-rule="evenodd" d="M 135.12 61.03 L 133.17 61.52 L 140.82 64.05 L 140.81 64.06 L 144.54 65.29 L 146.56 64.79 L 135.12 61.03" />
    <path fill="#bcbcbc" fill-rule="evenodd" d="M 128.02 62.83 L 126.06 63.33 L 137.36 67.09 L 139.32 66.6 L 129.42 63.32 L 129.43 63.3 L 128.02 62.83" />
    <path fill="#bcbcbc" fill-rule="evenodd" d="M 142.32 59.19 L 140.34 59.69 L 140.82 59.85 L 140.81 59.86 L 151.83 63.47 L 153.86 62.96 L 142.32 59.19" />
    <path fill="#bcbcbc" fill-rule="evenodd" d="M 138.71 60.11 L 136.75 60.61 L 140.82 61.95 L 140.81 61.96 L 148.18 64.38 L 150.2 63.88 L 138.71 60.11" />
    <path fill="#bcbcbc" fill-rule="evenodd" d="M 131.55 61.94 L 129.6 62.43 L 140.82 66.15 L 140.81 66.16 L 140.93 66.2 L 142.93 65.7 L 131.55 61.94" />
    <path fill="#bcbcbc" fill-rule="evenodd" d="M 149.58 57.34 L 147.56 57.86 L 159.18 61.63 L 161.23 61.11 L 149.58 57.34" />
    <path fill="#bcbcbc" fill-rule="evenodd" d="M 124.48 63.74 L 122.52 64.23 L 133.77 67.99 L 135.73 67.5 L 129.42 65.4 L 129.43 65.39 L 124.48 63.74" />
    <path fill="#bcbcbc" fill-rule="evenodd" d="M 153.24 56.41 L 151.21 56.93 L 162.88 60.7 L 164.94 60.18 L 153.24 56.41" />
    <path fill="#bcbcbc" fill-rule="evenodd" d="M 148.12 82.5 L 146.11 82.98 L 157.71 86.93 L 159.75 86.45 L 148.12 82.5" />
    <path fill="#bcbcbc" fill-rule="evenodd" d="M 144.49 83.36 L 142.48 83.84 L 154.03 87.79 L 156.06 87.32 L 144.49 83.36" />
    <path fill="#bcbcbc" fill-rule="evenodd" d="M 155.2 80.8 L 153.4 81.23 L 165.12 85.19 L 166.06 84.97 L 155.2 80.8" />
    <path fill="#bcbcbc" fill-rule="evenodd" d="M 137.27 85.09 L 135.31 85.55 L 141.4 87.65 L 141.39 87.67 L 146.72 89.51 L 148.74 89.03 L 137.27 85.09" />
    <path fill="#bcbcbc" fill-rule="evenodd" d="M 140.87 84.23 L 138.9 84.7 L 141.4 85.55 L 141.39 85.57 L 150.37 88.65 L 152.39 88.18 L 140.87 84.23" />
    <path fill="#bcbcbc" fill-rule="evenodd" d="M 130.12 86.79 L 128.54 87.17 L 132.99 88.93 L 139.52 91.2 L 141.48 90.74 L 130.12 86.79" />
    <path fill="#bcbcbc" fill-rule="evenodd" d="M 151.77 81.62 L 149.75 82.11 L 161.4 86.07 L 163.46 85.58 L 151.77 81.62" />
    <path fill="#bcbcbc" fill-rule="evenodd" d="M 133.69 85.94 L 131.74 86.41 L 141.4 89.75 L 141.39 89.77 L 143.1 90.36 L 145.1 89.89 L 133.69 85.94" />
    <path fill="#bcbcbc" fill-rule="evenodd" d="M 96.34 94.82 L 94.46 95.26 L 105.3 99.18 L 107.21 98.73 L 96.34 94.82" />
    <path fill="#bcbcbc" fill-rule="evenodd" d="M 92.95 95.63 L 91.07 96.07 L 101.86 99.98 L 103.77 99.54 L 92.95 95.63" />
    <path fill="#bcbcbc" fill-rule="evenodd" d="M 102.96 93.23 L 101.28 93.64 L 112.22 97.55 L 113.1 97.35 L 102.96 93.23" />
    <path fill="#bcbcbc" fill-rule="evenodd" d="M 86.2 97.24 L 84.37 97.67 L 90.06 99.75 L 90.05 99.76 L 95.04 101.58 L 96.92 101.14 L 86.2 97.24" />
    <path fill="#bcbcbc" fill-rule="evenodd" d="M 89.57 96.43 L 87.73 96.87 L 90.06 97.72 L 90.05 97.73 L 98.44 100.78 L 100.34 100.34 L 89.57 96.43" />
    <path fill="#bcbcbc" fill-rule="evenodd" d="M 79.52 98.83 L 78.04 99.19 L 82.2 100.92 L 88.3 103.16 L 90.14 102.73 L 79.52 98.83" />
    <path fill="#bcbcbc" fill-rule="evenodd" d="M 99.76 94 L 97.86 94.45 L 108.75 98.37 L 110.67 97.92 L 99.76 94" />
    <path fill="#bcbcbc" fill-rule="evenodd" d="M 82.85 98.04 L 81.03 98.47 L 90.06 101.78 L 90.05 101.79 L 91.65 102.38 L 93.52 101.94 L 82.85 98.04" />
    <path fill="#bcbcbc" fill-rule="evenodd" d="M 6.68 102.87 L 6.65 102.93 C 6.47 103.19 6.31 103.46 6.15 103.73 L 15.25 107.28 L 15.53 106.84 L 15.67 106.6 L 15.8 106.42 L 6.68 102.87" />
    <path fill="#bcbcbc" fill-rule="evenodd" d="M 19.46 90.45 L 19.16 90.62 L 18.37 91.1 L 27.87 94.68 C 28.09 94.55 28.31 94.43 28.52 94.3 L 28.93 94.08 L 29 94.04 L 19.46 90.45" />
    <path fill="#bcbcbc" fill-rule="evenodd" d="M 2.51 131.81 C 2.67 132.24 2.83 132.66 3.01 133.07 L 11.61 136.61 C 11.45 136.2 11.29 135.78 11.15 135.35 L 2.51 131.81" />
    <path fill="#bcbcbc" fill-rule="evenodd" d="M 3.51 134.13 C 3.75 134.6 4 135.06 4.27 135.5 L 12.76 139 C 12.51 138.57 12.29 138.11 12.07 137.65 L 3.51 134.13" />
    <path fill="#bcbcbc" fill-rule="evenodd" d="M 17.53 91.64 L 17.53 91.64 L 17.16 91.89 C 16.95 92.03 16.74 92.19 16.53 92.33 L 25.96 95.9 L 26.17 95.76 L 26.55 95.51 L 26.98 95.23 L 18.5 92.02 L 18.51 92.01 L 17.53 91.64" />
    <path fill="#bcbcbc" fill-rule="evenodd" d="M 5.73 104.42 L 5.54 104.76 C 5.44 104.94 5.35 105.12 5.25 105.3 L 14.32 108.84 L 14.41 108.68 C 14.5 108.52 14.59 108.36 14.69 108.2 L 14.83 107.97 L 5.73 104.42" />
    <path fill="#bcbcbc" fill-rule="evenodd" d="M 21.62 89.33 C 21.43 89.42 21.24 89.5 21.06 89.59 L 20.7 89.78 L 20.41 89.93 L 28.31 92.9 L 28.3 92.91 L 29.96 93.54 L 30.13 93.46 C 30.49 93.27 30.86 93.1 31.23 92.94 L 21.62 89.33" />
    <path fill="#bcbcbc" fill-rule="evenodd" d="M 1.39 127.53 C 1.46 127.92 1.53 128.3 1.62 128.68 L 10.33 132.24 C 10.26 131.86 10.19 131.48 10.13 131.09 L 1.39 127.53" />
    <path fill="#bcbcbc" fill-rule="evenodd" d="M 1.84 129.62 C 1.94 130.03 2.06 130.43 2.18 130.82 L 10.84 134.37 C 10.73 133.98 10.62 133.58 10.53 133.18 L 1.84 129.62" />
    <path fill="#bcbcbc" fill-rule="evenodd" d="M 10.01 98.41 C 9.8 98.65 9.59 98.9 9.38 99.15 L 9.33 99.21 L 18.54 102.76 C 18.76 102.49 18.99 102.22 19.22 101.96 L 18.5 101.69 L 18.51 101.68 L 10.01 98.41" />
    <path fill="#bcbcbc" fill-rule="evenodd" d="M 7.7 101.36 L 7.68 101.39 L 7.38 101.82 L 7.13 102.2 L 16.26 105.74 L 16.27 105.73 L 16.57 105.29 L 16.86 104.9 L 7.7 101.36" />
    <path fill="#bcbcbc" fill-rule="evenodd" d="M 11.29 96.98 C 11.05 97.22 10.82 97.46 10.59 97.72 L 10.55 97.76 L 19.8 101.31 C 20.04 101.05 20.29 100.79 20.53 100.53 L 18.5 99.76 L 18.51 99.74 L 11.29 96.98" />
    <path fill="#bcbcbc" fill-rule="evenodd" d="M 1.13 125.51 C 1.17 125.89 1.21 126.26 1.26 126.62 L 10.01 130.19 C 9.96 129.82 9.92 129.45 9.89 129.07 L 1.13 125.51" />
    <path fill="#bcbcbc" fill-rule="evenodd" d="M 12.66 95.58 L 12.21 96.02 L 11.98 96.23 L 11.88 96.34 L 21.16 99.9 C 21.42 99.64 21.69 99.39 21.95 99.14 L 18.5 97.82 L 18.51 97.81 L 12.66 95.58" />
    <path fill="#bcbcbc" fill-rule="evenodd" d="M 14.15 94.22 C 13.97 94.38 13.79 94.52 13.61 94.68 L 13.31 94.96 L 22.63 98.52 C 22.91 98.27 23.2 98.03 23.49 97.79 L 18.5 95.89 L 18.51 95.88 L 14.15 94.22" />
    <path fill="#bcbcbc" fill-rule="evenodd" d="M 5.04 136.67 C 5.42 137.22 5.84 137.74 6.28 138.25 L 14.57 141.68 C 14.18 141.19 13.8 140.68 13.46 140.15 L 5.04 136.67" />
    <path fill="#bcbcbc" fill-rule="evenodd" d="M 15.76 92.9 C 15.53 93.08 15.29 93.26 15.06 93.45 L 15 93.5 L 14.85 93.63 L 24.22 97.19 C 24.5 96.97 24.78 96.75 25.06 96.55 L 25.09 96.52 L 25.15 96.48 L 18.5 93.96 L 18.51 93.94 L 15.76 92.9" />
    <path fill="#bcbcbc" fill-rule="evenodd" d="M 8.81 99.87 L 8.62 100.1 C 8.47 100.3 8.34 100.49 8.19 100.69 L 17.36 104.23 L 17.53 104 C 17.68 103.8 17.84 103.61 18 103.41 L 8.81 99.87" />
    <path fill="#bcbcbc" fill-rule="evenodd" d="M 7.63 139.66 C 7.92 139.94 8.23 140.21 8.55 140.48 C 9.17 141 9.81 141.47 10.46 141.9 L 17.92 145 L 17.45 144.63 C 16.84 144.12 16.27 143.58 15.74 143.02 L 7.63 139.66" />
    <path fill="#bcbcbc" fill-rule="evenodd" d="M 4.09 107.61 L 4.06 107.67 L 3.87 108.08 L 3.69 108.51 L 12.7 112.06 L 12.72 112.01 L 12.91 111.6 L 13.12 111.15 L 4.09 107.61" />
    <path fill="#bcbcbc" fill-rule="evenodd" d="M 3.39 109.25 L 3.36 109.32 C 3.25 109.59 3.15 109.87 3.05 110.15 L 12.03 113.69 L 12.2 113.26 L 12.33 112.93 L 12.39 112.79 L 3.39 109.25" />
    <path fill="#bcbcbc" fill-rule="evenodd" d="M 1.82 114.33 L 1.72 114.76 C 1.68 114.94 1.65 115.13 1.62 115.31 L 10.52 118.86 L 10.54 118.73 C 10.59 118.5 10.65 118.29 10.7 118.07 L 10.74 117.89 L 1.82 114.33" />
    <path fill="#bcbcbc" fill-rule="evenodd" d="M 29.98 86.62 C 29.77 86.66 29.57 86.7 29.36 86.74 L 28.99 86.81 C 28.72 86.87 28.44 86.94 28.16 87.01 L 28.31 87.06 L 28.3 87.07 L 38.06 90.7 L 38.16 90.68 L 38.53 90.61 C 38.82 90.55 39.11 90.49 39.4 90.44 L 39.79 90.38 L 40.02 90.35 L 29.98 86.62" />
    <path fill="#bcbcbc" fill-rule="evenodd" d="M 36.51 86.21 L 47.64 90.32 L 48.04 90.39 L 48.43 90.46 C 48.64 90.51 48.85 90.55 49.05 90.6 L 49.41 90.69 C 49.64 90.75 49.87 90.81 50.1 90.88 L 50.37 90.96 C 50.69 91.06 51 91.16 51.31 91.28 C 51.59 91.38 51.86 91.48 52.13 91.6 L 42.79 87.69 C 42.53 87.58 42.27 87.47 42 87.37 L 41.98 87.37 C 41.67 87.26 41.36 87.15 41.05 87.06 L 40.78 86.98 C 40.56 86.91 40.33 86.85 40.1 86.79 L 39.75 86.71 C 39.54 86.66 39.34 86.61 39.13 86.57 L 38.75 86.5 C 38.54 86.46 38.34 86.42 38.13 86.39 L 37.89 86.35 L 37.76 86.34 C 37.45 86.3 37.13 86.26 36.81 86.24 L 36.69 86.22 L 36.51 86.21" />
    <path fill="#bcbcbc" fill-rule="evenodd" d="M 2.26 112.6 L 2.24 112.69 C 2.18 112.91 2.11 113.12 2.06 113.34 L 2.01 113.56 L 10.93 117.11 L 11.06 116.64 C 11.11 116.48 11.16 116.31 11.2 116.15 L 2.26 112.6" />
    <path fill="#bcbcbc" fill-rule="evenodd" d="M 0.99 123.55 C 1 123.91 1.03 124.27 1.05 124.63 L 9.83 128.19 C 9.82 127.84 9.8 127.48 9.79 127.11 L 0.99 123.55" />
    <path fill="#bcbcbc" fill-rule="evenodd" d="M 2.78 110.92 L 2.66 111.29 C 2.6 111.47 2.54 111.65 2.48 111.83 L 11.44 115.38 L 11.49 115.23 C 11.57 114.99 11.65 114.74 11.73 114.5 L 11.75 114.46 L 2.78 110.92" />
    <path fill="#bcbcbc" fill-rule="evenodd" d="M 1.47 116.1 L 1.45 116.19 C 1.41 116.47 1.37 116.75 1.33 117.03 L 1.32 117.1 L 10.2 120.65 C 10.22 120.49 10.24 120.33 10.27 120.17 C 10.3 120 10.33 119.83 10.36 119.66 L 1.47 116.1" />
    <path fill="#bcbcbc" fill-rule="evenodd" d="M 34.03 86.17 C 33.76 86.18 33.5 86.19 33.23 86.21 L 32.95 86.22 C 32.57 86.25 32.18 86.29 31.79 86.34 L 31.62 86.36 L 41.81 90.13 L 42.16 90.1 L 42.45 90.08 C 42.75 90.06 43.04 90.05 43.33 90.04 L 43.7 90.03 C 43.8 90.03 43.89 90.03 43.99 90.03 C 44.16 90.03 44.33 90.03 44.5 90.04 L 34.03 86.17" />
    <path fill="#bcbcbc" fill-rule="evenodd" d="M 24.03 88.29 L 23.87 88.35 L 23.47 88.51 C 23.2 88.62 22.94 88.73 22.68 88.84 L 28.31 90.95 L 28.3 90.97 L 32.32 92.47 L 32.57 92.37 L 32.96 92.22 C 33.23 92.12 33.49 92.02 33.76 91.93 L 24.03 88.29" />
    <path fill="#bcbcbc" fill-rule="evenodd" d="M 1.05 119.75 L 0.99 120.59 L 0.99 120.79 L 9.82 124.35 L 9.84 124.06 C 9.85 123.81 9.87 123.56 9.89 123.31 L 1.05 119.75" />
    <path fill="#bcbcbc" fill-rule="evenodd" d="M 0.97 121.63 L 0.96 122.09 C 0.96 122.29 0.97 122.49 0.97 122.69 L 9.77 126.25 L 9.77 126.1 C 9.77 125.8 9.78 125.49 9.79 125.19 L 0.97 121.63" />
    <path fill="#bcbcbc" fill-rule="evenodd" d="M 26.78 87.38 L 26.47 87.46 L 26.06 87.59 C 25.78 87.68 25.51 87.76 25.23 87.86 L 28.31 89.01 L 28.3 89.02 L 34.99 91.52 L 35.19 91.45 L 35.6 91.33 C 35.94 91.23 36.29 91.14 36.63 91.05 L 26.78 87.38" />
    <path fill="#bcbcbc" fill-rule="evenodd" d="M 4.87 106 L 4.72 106.28 L 4.64 106.44 L 4.46 106.81 L 4.43 106.89 L 13.47 110.43 L 13.5 110.36 L 13.73 109.92 L 13.93 109.55 L 4.87 106" />
    <path fill="#bcbcbc" fill-rule="evenodd" d="M 1.21 117.91 C 1.19 118.12 1.17 118.32 1.15 118.53 L 1.11 118.93 L 9.96 122.48 C 9.99 122.2 10.02 121.91 10.05 121.63 L 10.08 121.46 L 1.21 117.91" />
    <path fill="#bcbcbc" fill-rule="evenodd" d="M 42.98 116.24 L 42.93 116.49 C 42.9 116.67 42.86 116.84 42.83 117.02 L 42.78 117.25 L 52.21 120.92 L 52.28 120.59 L 52.35 120.18 L 52.39 119.9 L 42.98 116.24" />
    <path fill="#bcbcbc" fill-rule="evenodd" d="M 42.58 118.05 L 42.5 118.35 C 42.46 118.53 42.41 118.7 42.35 118.87 L 42.3 119.03 L 51.77 122.72 L 51.84 122.46 L 51.95 122.06 L 52.03 121.73 L 42.58 118.05" />
    <path fill="#bcbcbc" fill-rule="evenodd" d="M 42.05 119.81 L 41.93 120.13 C 41.86 120.34 41.77 120.55 41.68 120.75 L 51.18 124.47 L 51.27 124.25 L 51.3 124.16 L 51.52 123.51 L 42.05 119.81" />
    <path fill="#bcbcbc" fill-rule="evenodd" d="M 41.38 121.51 L 41.33 121.62 C 41.21 121.89 41.07 122.16 40.94 122.43 L 50.45 126.16 L 50.65 125.74 L 50.76 125.5 L 50.87 125.23 L 41.38 121.51" />
    <path fill="#bcbcbc" fill-rule="evenodd" d="M 43 108.41 C 43.06 108.79 43.13 109.17 43.17 109.57 L 52.45 113.12 C 52.39 112.72 52.33 112.33 52.24 111.95 L 43 108.41" />
    <path fill="#bcbcbc" fill-rule="evenodd" d="M 40.57 123.16 C 40.43 123.42 40.28 123.68 40.13 123.94 L 40.07 124.04 L 49.59 127.8 C 49.72 127.58 49.86 127.35 49.98 127.12 L 50.03 127.02 L 50.04 127 L 50.09 126.9 L 40.57 123.16" />
    <path fill="#bcbcbc" fill-rule="evenodd" d="M 42.44 106.23 C 42.58 106.63 42.69 107.04 42.79 107.45 L 52 110.97 C 51.88 110.54 51.74 110.13 51.59 109.72 L 42.44 106.23" />
    <path fill="#bcbcbc" fill-rule="evenodd" d="M 43.26 110.48 C 43.29 110.84 43.31 111.21 43.31 111.58 L 52.65 115.18 C 52.63 114.79 52.6 114.42 52.57 114.05 L 43.26 110.48" />
    <path fill="#bcbcbc" fill-rule="evenodd" d="M 43.22 114.39 L 43.21 114.56 C 43.19 114.75 43.17 114.94 43.14 115.14 L 43.1 115.41 L 52.51 119.06 L 52.55 118.64 L 52.59 118.26 L 52.61 118.02 L 43.22 114.39" />
    <path fill="#bcbcbc" fill-rule="evenodd" d="M 39.63 124.75 C 39.52 124.92 39.42 125.09 39.31 125.26 L 39.06 125.61 L 48.61 129.39 C 48.81 129.1 48.99 128.81 49.17 128.51 L 39.63 124.75" />
    <path fill="#bcbcbc" fill-rule="evenodd" d="M 30.52 132.85 C 30.36 132.91 30.2 132.99 30.03 133.05 L 29.9 133.1 C 29.65 133.19 29.4 133.27 29.14 133.35 L 34.23 135.41 L 34.22 135.42 L 38.92 137.32 L 39.07 137.27 L 39.21 137.22 C 39.54 137.09 39.87 136.96 40.19 136.81 L 40.27 136.77 L 30.52 132.85" />
    <path fill="#bcbcbc" fill-rule="evenodd" d="M 27.85 133.71 L 27.71 133.75 C 27.29 133.84 26.88 133.91 26.47 133.97 L 26.1 134.01 L 25.99 134.02 L 34.23 137.36 L 34.22 137.37 L 35.96 138.08 C 36.25 138.03 36.55 137.98 36.86 137.91 C 37.14 137.85 37.42 137.77 37.7 137.69 L 27.85 133.71" />
    <path fill="#bcbcbc" fill-rule="evenodd" d="M 32.67 131.76 L 32.22 132.03 L 32.03 132.13 C 31.88 132.22 31.71 132.3 31.55 132.37 L 34.23 133.45 L 34.22 133.46 L 41.25 136.29 L 41.38 136.23 L 41.43 136.2 C 41.74 136.03 42.05 135.84 42.36 135.65 L 32.67 131.76" />
    <path fill="#bcbcbc" fill-rule="evenodd" d="M 34.49 130.53 L 34.41 130.6 L 34.41 130.6 C 34.12 130.82 33.83 131.02 33.53 131.22 L 34.23 131.5 L 34.22 131.51 L 43.17 135.1 C 43.32 134.99 43.49 134.88 43.64 134.76 L 43.65 134.76 L 44.11 134.39 L 34.49 130.53" />
    <path fill="#bcbcbc" fill-rule="evenodd" d="M 41.42 103.88 C 41.66 104.31 41.87 104.75 42.06 105.21 L 51.14 108.67 C 50.92 108.19 50.67 107.73 50.39 107.29 L 41.42 103.88" />
    <path fill="#bcbcbc" fill-rule="evenodd" d="M 37.38 127.78 C 37.24 127.93 37.1 128.1 36.96 128.25 L 36.84 128.38 L 36.65 128.57 L 46.24 132.39 C 46.48 132.13 46.71 131.87 46.95 131.6 L 46.96 131.58 L 37.38 127.78" />
    <path fill="#bcbcbc" fill-rule="evenodd" d="M 38.57 126.29 C 38.36 126.57 38.15 126.85 37.93 127.12 L 47.49 130.92 C 47.68 130.68 47.87 130.44 48.05 130.19 L 48.13 130.08 L 38.57 126.29" />
    <path fill="#bcbcbc" fill-rule="evenodd" d="M 36.03 129.2 L 35.99 129.23 C 35.81 129.41 35.62 129.58 35.43 129.74 L 35.2 129.95 L 44.81 133.79 L 45.25 133.39 L 45.39 133.26 L 45.49 133.16 L 45.62 133.02 L 36.03 129.2" />
    <path fill="#bcbcbc" fill-rule="evenodd" d="M 43.32 112.46 C 43.32 112.71 43.31 112.96 43.3 113.21 L 43.29 113.52 L 52.66 117.14 C 52.67 116.86 52.68 116.58 52.68 116.31 L 52.67 116.07 L 43.32 112.46" />
    <path fill="#bcbcbc" fill-rule="evenodd" d="M 39.45 101.17 C 39.91 101.66 40.34 102.18 40.72 102.74 L 49.55 106.09 C 49.12 105.53 48.63 105 48.1 104.51 L 47.95 104.39 L 39.45 101.17" />
    <path fill="#bcbcbc" fill-rule="evenodd" d="M 65.79 89.48 L 65.79 90.59 L 75.43 94.1 L 75.43 92.99 L 65.79 89.48" />
    <path fill="#bcbcbc" fill-rule="evenodd" d="M 65.71 133.35 L 65.7 134.46 L 75.35 138.26 L 75.35 137.15 L 65.71 133.35" />
    <path fill="#bcbcbc" fill-rule="evenodd" d="M 65.79 91.48 L 65.78 92.58 L 75.43 96.11 L 75.43 95 L 65.79 91.48" />
    <path fill="#bcbcbc" fill-rule="evenodd" d="M 65.78 95.47 L 65.78 96.55 L 75.42 100.11 L 75.42 99.02 L 65.78 95.47" />
    <path fill="#bcbcbc" fill-rule="evenodd" d="M 65.79 87.49 L 65.79 88.59 L 75.44 92.1 L 75.44 90.98 L 65.79 87.49" />
    <path fill="#bcbcbc" fill-rule="evenodd" d="M 65.78 93.47 L 65.78 94.55 L 75.43 98.1 L 75.43 97.01 L 65.78 93.47" />
    <path fill="#bcbcbc" fill-rule="evenodd" d="M 65.71 131.36 L 65.71 132.46 L 75.35 136.26 L 75.35 135.14 L 65.71 131.36" />
    <path fill="#bcbcbc" fill-rule="evenodd" d="M 65.81 79.51 L 65.81 80.61 L 75.45 84.06 L 75.45 82.95 L 65.81 79.51" />
    <path fill="#bcbcbc" fill-rule="evenodd" d="M 65.8 85.49 L 65.79 86.6 L 75.44 90.09 L 75.44 88.97 L 65.8 85.49" />
    <path fill="#bcbcbc" fill-rule="evenodd" d="M 65.81 81.5 L 65.8 82.61 L 75.45 86.07 L 75.45 84.96 L 65.81 81.5" />
    <path fill="#bcbcbc" fill-rule="evenodd" d="M 67.66 78.17 L 65.85 78.63 L 76.28 82.35 L 78.12 81.89 L 67.66 78.17" />
    <path fill="#bcbcbc" fill-rule="evenodd" d="M 65.7 135.35 L 65.7 135.65 L 75.34 139.94 L 75.34 139.16 L 65.7 135.35" />
    <path fill="#bcbcbc" fill-rule="evenodd" d="M 70.94 77.33 L 69.12 77.79 L 79.6 81.51 L 81.42 81.06 L 78.87 80.15 L 78.87 80.14 L 70.94 77.33" />
    <path fill="#bcbcbc" fill-rule="evenodd" d="M 65.71 129.36 L 65.71 130.47 L 75.36 134.25 L 75.36 133.13 L 65.71 129.36" />
    <path fill="#bcbcbc" fill-rule="evenodd" d="M 65.8 83.5 L 65.8 84.6 L 75.44 88.08 L 75.45 86.97 L 65.8 83.5" />
    <path fill="#bcbcbc" fill-rule="evenodd" d="M 65.77 97.44 L 65.77 98.54 L 75.42 102.11 L 75.42 101 L 65.77 97.44" />
    <path fill="#bcbcbc" fill-rule="evenodd" d="M 65.75 107.42 L 65.75 108.52 L 75.4 112.16 L 75.4 111.04 L 65.75 107.42" />
    <path fill="#bcbcbc" fill-rule="evenodd" d="M 65.73 119.39 L 65.73 120.49 L 75.37 124.21 L 75.38 123.09 L 65.73 119.39" />
    <path fill="#bcbcbc" fill-rule="evenodd" d="M 65.75 111.41 L 65.75 112.51 L 75.39 116.17 L 75.39 115.06 L 65.75 111.41" />
    <path fill="#bcbcbc" fill-rule="evenodd" d="M 65.74 113.4 L 65.74 114.51 L 75.39 118.18 L 75.39 117.07 L 65.74 113.4" />
    <path fill="#bcbcbc" fill-rule="evenodd" d="M 65.73 121.38 L 65.73 122.49 L 75.37 126.21 L 75.37 125.1 L 65.73 121.38" />
    <path fill="#bcbcbc" fill-rule="evenodd" d="M 65.75 109.41 L 65.75 110.52 L 75.39 114.16 L 75.4 113.05 L 65.75 109.41" />
    <path fill="#bcbcbc" fill-rule="evenodd" d="M 65.74 117.39 L 65.73 118.5 L 75.38 122.2 L 75.38 121.08 L 65.74 117.39" />
    <path fill="#bcbcbc" fill-rule="evenodd" d="M 65.77 101.43 L 65.77 102.53 L 75.41 106.13 L 75.41 105.02 L 65.77 101.43" />
    <path fill="#bcbcbc" fill-rule="evenodd" d="M 65.76 105.42 L 65.76 106.53 L 75.4 110.15 L 75.4 109.03 L 65.76 105.42" />
    <path fill="#bcbcbc" fill-rule="evenodd" d="M 65.72 127.37 L 65.71 128.47 L 75.36 132.24 L 75.36 131.13 L 65.72 127.37" />
    <path fill="#bcbcbc" fill-rule="evenodd" d="M 65.77 99.43 L 65.77 100.54 L 75.41 104.12 L 75.41 103.01 L 65.77 99.43" />
    <path fill="#bcbcbc" fill-rule="evenodd" d="M 65.73 123.38 L 65.72 124.48 L 75.37 128.22 L 75.37 127.11 L 65.73 123.38" />
    <path fill="#bcbcbc" fill-rule="evenodd" d="M 65.72 125.37 L 65.72 126.48 L 75.36 130.23 L 75.36 129.12 L 65.72 125.37" />
    <path fill="#bcbcbc" fill-rule="evenodd" d="M 65.76 103.43 L 65.76 104.53 L 75.41 108.14 L 75.41 107.03 L 65.76 103.43" />
    <path fill="#bcbcbc" fill-rule="evenodd" d="M 65.74 115.4 L 65.74 116.5 L 75.38 120.19 L 75.38 119.08 L 65.74 115.4" />
    <path fill="#bcbcbc" fill-rule="evenodd" d="M 94.3 71.38 L 92.43 71.86 L 103.24 75.59 L 105.14 75.12 L 94.3 71.38" />
    <path fill="#bcbcbc" fill-rule="evenodd" d="M 104.37 68.81 L 102.65 69.25 L 113.61 73 L 114.53 72.76 L 104.37 68.81" />
    <path fill="#bcbcbc" fill-rule="evenodd" d="M 84.19 73.95 L 82.36 74.42 L 89.52 76.92 L 89.51 76.94 L 93 78.16 L 94.88 77.69 L 84.19 73.95" />
    <path fill="#bcbcbc" fill-rule="evenodd" d="M 77.55 75.65 L 75.71 76.11 L 86.28 79.84 L 88.12 79.38 L 78.87 76.13 L 78.87 76.11 L 77.55 75.65" />
    <path fill="#bcbcbc" fill-rule="evenodd" d="M 90.92 72.24 L 89.08 72.71 L 89.52 72.86 L 89.51 72.88 L 99.81 76.45 L 101.71 75.98 L 90.92 72.24" />
    <path fill="#bcbcbc" fill-rule="evenodd" d="M 87.55 73.1 L 85.71 73.57 L 89.52 74.89 L 89.51 74.91 L 96.4 77.31 L 98.29 76.83 L 87.55 73.1" />
    <path fill="#bcbcbc" fill-rule="evenodd" d="M 80.85 74.81 L 79.03 75.27 L 89.52 78.95 L 89.51 78.97 L 89.62 79 L 91.49 78.54 L 80.85 74.81" />
    <path fill="#bcbcbc" fill-rule="evenodd" d="M 97.71 70.51 L 95.82 70.99 L 106.68 74.73 L 108.59 74.25 L 97.71 70.51" />
    <path fill="#bcbcbc" fill-rule="evenodd" d="M 74.24 76.49 L 72.41 76.96 L 82.93 80.68 L 84.76 80.22 L 78.87 78.14 L 78.87 78.12 L 74.24 76.49" />
    <path fill="#bcbcbc" fill-rule="evenodd" d="M 101.12 69.64 L 99.23 70.12 L 110.14 73.86 L 112.06 73.38 L 101.12 69.64" />
    <path fill="#343534" fill-rule="evenodd" d="M 46.5 159.32 L 44.74 161.41 L 44.65 209.78 L 46.98 211.69 L 57.3 209.98 L 59.09 207.93 L 59.18 159.08 L 56.81 157.23 L 46.5 159.32" />
    <path fill="#343534" fill-rule="evenodd" d="M 20.88 202.61 L 20.94 166.77 L 18.7 164.96 L 8.91 166.94 L 7.25 168.97 L 7.16 216.08 L 9.37 217.96 L 38.23 213.15 L 39.98 211.13 L 40 201.54 L 37.69 199.66 L 20.88 202.61" />
    <path fill="#343534" fill-rule="evenodd" d="M 103.59 147.76 L 101.69 149.94 L 101.64 176.29 L 81.65 153.24 L 79.66 152.6 L 69.7 154.62 L 67.89 156.75 L 67.79 205.89 L 70.2 207.83 L 80.85 206.05 L 82.7 203.97 L 82.74 178.82 L 102.06 201.47 L 104.1 202.18 L 115.25 200.32 L 117.19 198.18 L 117.29 147.4 L 114.73 145.5 L 103.59 147.76" />
    <path fill="#343534" fill-rule="evenodd" d="M 167.26 176.93 L 142.75 181.24 L 142.76 174.85 L 164.41 170.95 L 166.47 168.7 L 166.49 158.72 L 163.76 156.74 L 142.79 160.71 L 142.8 154.39 L 167.14 149.68 L 169.21 147.4 L 169.23 136.96 L 166.5 135.01 L 128.66 142.68 L 126.7 144.91 L 126.6 196 L 129.2 198 L 167.91 191.56 L 169.98 189.33 L 170 178.96 L 167.26 176.93" />
    <path fill="#343534" fill-rule="evenodd" d="M 58.22 92.71 C 52.32 88.13 45.05 86.9 36.64 89.03 C 28.44 91.1 21.51 95.78 16.03 102.9 C 10.59 109.95 7.84 117.8 7.83 126.27 C 7.81 134.85 10.59 141.54 16.13 146.18 C 20.71 150.02 26.26 151.74 32.68 151.28 C 34.1 151.18 35.58 150.97 37.09 150.65 C 45.39 148.91 52.55 144.41 58.33 137.27 C 64.13 130.1 67.1 121.96 67.12 113.13 C 67.14 104.19 64.13 97.31 58.22 92.71 L 58.22 92.71 Z M 50.62 116.4 C 50.61 121.03 49.24 125.16 46.43 129.02 C 43.69 132.78 40.47 135.02 36.59 135.87 C 32.86 136.69 29.83 135.93 27.3 133.54 C 24.69 131.07 23.43 127.71 23.44 123.26 C 23.45 118.78 24.81 114.59 27.5 110.78 C 30.18 107 33.35 104.71 37.22 103.77 C 37.84 103.62 38.45 103.52 39.04 103.45 C 41.98 103.15 44.48 103.97 46.63 105.96 C 49.32 108.45 50.63 111.86 50.62 116.4 L 50.62 116.4 Z M 50.62 116.4" />
    <path fill="#343534" fill-rule="evenodd" d="M 88.13 139.35 L 90 137.17 L 90.04 116.24 L 113.44 110.97 L 115.37 108.71 L 115.4 97.16 L 112.84 95.35 L 90.07 100.72 L 90.09 92.37 L 114.83 86.39 L 116.76 84.1 L 116.79 72.54 L 114.23 70.76 L 75.17 80.6 L 73.34 82.83 L 73.23 140.14 L 75.65 141.98 L 88.13 139.35" />
    <path fill="#343534" fill-rule="evenodd" d="M 141.19 126.34 L 141.23 104.7 L 166.28 99.05 L 168.35 96.7 L 168.38 84.75 L 165.64 82.89 L 141.26 88.64 L 141.28 80 L 167.76 73.61 L 169.83 71.22 L 169.86 59.26 L 167.12 57.44 L 125.33 67.97 L 123.38 70.29 L 123.26 129.53 L 125.85 131.42 L 139.19 128.61 L 141.19 126.34" />
    <path fill="#fc6b0e" fill-rule="evenodd" d="M 24.53 245.5 C 24.53 248.01 24.46 249.66 24.34 250.44 C 24.07 252.17 23.38 253.59 22.27 254.71 C 20.85 256.15 18.89 256.86 16.38 256.86 L 8.33 256.86 L 8.33 234.32 L 16.38 234.32 C 18.89 234.32 20.85 235.04 22.27 236.48 C 23.38 237.6 24.07 238.99 24.34 240.66 C 24.46 241.42 24.53 243.03 24.53 245.5 L 24.53 245.5 Z M 20.17 245.5 C 20.17 243.68 20.12 242.41 20.01 241.67 C 19.89 240.8 19.63 240.13 19.23 239.64 C 18.48 238.71 17.39 238.25 15.97 238.25 L 12.68 238.25 L 12.68 252.94 L 15.97 252.94 C 17.39 252.94 18.48 252.47 19.23 251.55 C 19.63 251.06 19.89 250.35 20.01 249.42 C 20.12 248.64 20.17 247.34 20.17 245.5 L 20.17 245.5 Z M 20.17 245.5" />
    <path fill="#fc6b0e" fill-rule="evenodd" d="M 41.04 256.86 L 37.06 256.86 L 37.06 255.44 C 36.02 256.5 34.68 257.02 33.05 257.02 C 31.21 257.02 29.83 256.55 28.91 255.6 C 28 254.65 27.54 253.4 27.54 251.86 C 27.54 250.47 28.01 249.33 28.96 248.43 C 29.9 247.53 31.28 247.08 33.09 247.08 L 36.94 247.08 L 36.94 246.26 C 36.94 244.53 35.93 243.66 33.91 243.66 C 32.6 243.66 31.56 244.12 30.79 245.02 L 28.19 242.46 C 28.97 241.6 29.81 240.99 30.73 240.66 C 31.57 240.34 32.69 240.18 34.09 240.18 C 38.72 240.18 41.04 242.12 41.04 246.01 L 41.04 256.86 L 41.04 256.86 Z M 36.94 250.79 L 36.94 249.9 L 33.73 249.9 C 32.21 249.9 31.45 250.52 31.45 251.77 C 31.45 253.03 32.23 253.67 33.79 253.67 C 35.18 253.67 36.11 253.32 36.56 252.62 C 36.81 252.24 36.94 251.63 36.94 250.79 L 36.94 250.79 Z M 36.94 250.79" />
    <path fill="#fc6b0e" fill-rule="evenodd" d="M 58.47 240.37 L 51.48 259.52 C 51.14 260.45 50.74 261.16 50.26 261.64 C 49.42 262.49 48.25 262.91 46.75 262.91 L 45.15 262.91 L 45.15 259.21 L 46.09 259.21 C 46.69 259.21 47.14 259.1 47.42 258.89 C 47.7 258.68 47.94 258.29 48.13 257.72 L 48.82 255.69 L 43.24 240.37 L 47.53 240.37 L 50.91 250.56 L 54.17 240.37 L 58.47 240.37" />
    <path fill="#fc6b0e" fill-rule="evenodd" d="M 64.99 238.25 L 60.72 241.51 L 60.72 234.32 L 64.99 234.32 L 64.99 238.25" />
    <path fill="#fc6b0e" fill-rule="evenodd" d="M 79.03 256.86 L 74.92 256.86 L 74.92 238.76 L 70.41 242.74 L 70.41 238.31 L 74.92 234.32 L 79.03 234.32 L 79.03 256.86" />
    <path fill="#fc6b0e" fill-rule="evenodd" d="M 99.65 249.27 C 99.65 250.64 99.52 251.74 99.27 252.56 C 98.98 253.55 98.44 254.44 97.67 255.22 C 96.46 256.44 94.82 257.06 92.75 257.06 C 90.62 257.06 88.96 256.45 87.77 255.25 C 86.72 254.19 86.12 252.63 85.95 250.56 L 90.01 250.56 C 90.24 252.42 91.15 253.35 92.73 253.35 C 93.54 253.35 94.19 253.11 94.67 252.62 C 95.25 252.03 95.54 250.91 95.54 249.27 C 95.54 246.56 94.63 245.21 92.82 245.21 C 91.41 245.21 90.52 245.83 90.12 247.05 L 86.42 247.05 L 86.42 234.32 L 99.15 234.32 L 99.15 238.03 L 90.12 238.03 L 90.12 242.87 C 90.91 242.11 92.03 241.73 93.47 241.73 C 95.25 241.73 96.64 242.24 97.64 243.25 C 98.98 244.6 99.65 246.61 99.65 249.27" />
</svg>