<?xml version="1.0" encoding="UTF-8" standalone="no"?>
<svg width="385px" height="428px" viewBox="0 0 385 428" version="1.1" xmlns="http://www.w3.org/2000/svg" xmlns:xlink="http://www.w3.org/1999/xlink" xmlns:sketch="http://www.bohemiancoding.com/sketch/ns">
    <!-- Generator: Sketch 3.3.3 (12081) - http://www.bohemiancoding.com/sketch -->
    <title>pacman</title>
    <desc>Created with Sketch.</desc>
    <defs></defs>
    <g id="Page-1" stroke="none" stroke-width="1" fill="none" fill-rule="evenodd" sketch:type="MSPage">
        <g id="pacman" sketch:type="MSLayerGroup" fill="#FC6B0E">
            <g id="Page-1" sketch:type="MSShapeGroup">
                <g id="iPad-Portrait">
                    <path d="M0.042452,302.86268 C0.039452,271.03268 -0.064548,239.20168 0.064452,207.37168 C0.258452,159.29068 12.410452,114.85368 41.597452,76.00368 C72.426452,34.96768 113.396452,10.19568 164.111452,2.22168 C241.336452,-9.92032 318.573452,28.53168 356.780452,97.37668 C375.816452,131.67868 384.229452,168.55068 384.295452,207.49468 C384.416452,277.82168 384.354452,348.14868 384.368452,418.47568 C384.369452,418.80868 384.366452,419.14168 384.368452,419.47568 C384.390452,422.60668 383.937452,425.48868 380.648452,427.00168 C377.153452,428.60968 375.007452,426.44268 372.842452,424.27968 C360.345452,411.79468 347.848452,399.30968 335.349452,386.82568 C325.760452,377.24868 314.619452,377.15568 305.069452,386.65168 C293.960452,397.69768 282.924452,408.81568 271.823452,419.86868 C261.649452,429.99768 250.483452,429.91968 240.331452,419.74368 C229.268452,408.65368 218.212452,397.55668 207.097452,386.51968 C197.713452,377.20068 186.603452,377.24668 177.179452,386.62168 C165.955452,397.78868 154.810452,409.03368 143.583452,420.19668 C133.872452,429.85268 122.549452,429.83268 112.792452,420.14068 C101.915452,409.33468 91.127452,398.44068 80.250452,387.63468 C69.382452,376.83768 58.932452,376.84568 48.181452,387.58468 C36.154452,399.59868 24.147452,411.63168 12.110452,423.63368 C9.895452,425.84268 7.830452,428.56968 4.031452,427.13268 C0.096452,425.64568 0.027452,422.30868 0.029452,418.85068 C0.053452,380.18868 0.045452,341.52568 0.042452,302.86268 L0.042452,302.86268 L0.042452,302.86268 Z M268.995452,243.20968 C297.481452,243.15368 319.968452,220.54468 319.888452,192.04068 C319.809452,163.92068 297.235452,141.26168 269.116452,141.07668 C241.118452,140.89268 217.827452,164.05768 217.752452,192.16368 C217.677452,220.32568 240.704452,243.26468 268.995452,243.20968 L268.995452,243.20968 L268.995452,243.20968 Z M115.063452,243.20768 C143.433452,243.35468 166.608452,220.52368 166.574452,192.46168 C166.539452,164.29068 143.625452,141.25768 115.484452,141.10768 C87.367452,140.95768 64.608452,163.78368 64.442452,192.29968 C64.279452,220.35868 86.854452,243.06168 115.063452,243.20768 L115.063452,243.20768 L115.063452,243.20768 Z" id="pacman"></path>
                </g>
            </g>
        </g>
    </g>
</svg>