<?xml version="1.0" encoding="utf-8"?>
<!-- Generator: Avocode 2.4.2-d618096 - http://avocode.com -->
<svg height="24" width="29" xmlns:xlink="http://www.w3.org/1999/xlink" xmlns="http://www.w3.org/2000/svg" viewBox="0 0 29 24">
    <path fill="#fc6b0e" fill-rule="evenodd" d="M 26.17 7.01 L 26.17 2.4 C 26.17 1.64 25.82 0.93 25.23 0.48 C 24.63 0.02 23.88 -0.12 23.16 0.1 L 2.16 6.58 C 1.18 6.89 0.5 7.83 0.5 8.88 L 0.5 13.05 C 0.5 14.16 1.23 15.11 2.27 15.38 L 4 15.83 L 4 19.99 C 4 21.98 5.57 23.59 7.5 23.59 L 9.75 23.59 C 10.92 23.59 12.01 22.99 12.62 22.06 L 15.15 18.69 L 23.27 20.78 L 23.27 20.78 C 23.46 20.83 23.65 20.85 23.84 20.85 C 24.35 20.85 24.85 20.68 25.27 20.34 C 25.84 19.89 26.17 19.2 26.17 18.45 L 26.17 13.77 C 27.52 13.27 28.5 11.96 28.5 10.39 C 28.5 8.83 27.52 7.51 26.17 7.01 L 26.17 7.01 Z M 2.83 8.88 L 5.17 8.16 L 5.17 13.65 L 2.83 13.05 L 2.83 8.88 L 2.83 8.88 Z M 10.72 20.66 C 10.51 20.99 10.14 21.19 9.75 21.19 L 7.5 21.19 C 6.86 21.19 6.33 20.65 6.33 19.99 L 6.33 16.43 L 12.67 18.06 L 10.72 20.66 L 10.72 20.66 Z M 23.83 18.79 L 6.48 13.99 L 7.5 13.99 L 7.5 7.44 L 23.83 2.57 L 23.84 18.79 L 23.83 18.79 L 23.83 18.79 Z M 23.83 18.79" />
</svg>