<?xml version="1.0" encoding="utf-8"?>
<!-- Generator: Avocode 2.4.2-d618096 - http://avocode.com -->
<svg height="84" width="112" xmlns:xlink="http://www.w3.org/1999/xlink" xmlns="http://www.w3.org/2000/svg" viewBox="0 0 112 84">
    <path fill="#fc6b0e" fill-rule="evenodd" d="M 101.06 1.03 C 99.69 -0.34 97.46 -0.34 96.1 1.03 L 43.92 52.99 C 42.55 54.38 40.32 54.38 38.96 52.99 L 16.1 29.7 C 15.42 29.01 14.53 28.67 13.64 28.66 C 12.74 28.66 11.83 29 11.14 29.7 L 1.04 38.78 C 0.36 39.48 0 40.34 0 41.24 C 0 42.15 0.36 43.09 1.04 43.78 L 24.1 67.98 C 25.46 69.36 27.7 71.61 29.05 72.98 L 38.97 82.97 C 40.33 84.34 42.56 84.34 43.92 82.97 L 110.97 16.02 C 112.34 14.65 112.34 12.4 110.97 11.02 L 101.06 1.03 L 101.06 1.03 Z M 101.06 1.03" />
</svg>