<?xml version="1.0" encoding="utf-8"?>
<!-- Generator: Avocode 2.4.2-d618096 - http://avocode.com -->
<svg height="21" width="33" xmlns:xlink="http://www.w3.org/1999/xlink" xmlns="http://www.w3.org/2000/svg" viewBox="0 0 33 21">
    <path fill="#fc6b0e" fill-rule="evenodd" d="M 27.17 10.63 L 27.17 10.26 C 28.72 9.72 29.83 8.27 29.83 6.56 L 29.83 3.94 C 29.83 1.77 28.04 0 25.83 0 C 23.63 0 21.83 1.77 21.83 3.94 L 21.83 6.56 C 21.83 8.27 22.95 9.72 24.5 10.26 L 24.5 10.63 C 23.22 10.89 22.07 11.5 21.17 12.36 C 20.27 11.5 19.12 10.89 17.83 10.63 L 17.83 10.26 C 19.38 9.72 20.5 8.27 20.5 6.56 L 20.5 3.94 C 20.5 1.77 18.71 0 16.5 0 C 14.29 0 12.5 1.77 12.5 3.94 L 12.5 6.56 C 12.5 8.27 13.62 9.72 15.17 10.26 L 15.17 10.63 C 13.88 10.89 12.73 11.5 11.83 12.36 C 10.93 11.5 9.78 10.89 8.5 10.63 L 8.5 10.26 C 10.05 9.72 11.17 8.27 11.17 6.56 L 11.17 3.94 C 11.17 1.77 9.37 0 7.17 0 C 4.96 0 3.17 1.77 3.17 3.94 L 3.17 6.56 C 3.17 8.27 4.29 9.72 5.83 10.26 L 5.83 10.63 C 2.79 11.24 0.5 13.89 0.5 17.06 L 0.5 21 L 32.5 21 L 32.5 17.06 C 32.5 13.89 30.21 11.24 27.17 10.63 L 27.17 10.63 Z M 5.83 3.94 C 5.83 3.21 6.43 2.63 7.17 2.63 C 7.9 2.63 8.5 3.21 8.5 3.94 L 8.5 6.56 C 8.5 7.29 7.9 7.88 7.17 7.88 C 6.43 7.88 5.83 7.29 5.83 6.56 L 5.83 3.94 L 5.83 3.94 Z M 11.17 18.38 L 3.17 18.38 L 3.17 17.06 C 3.17 14.9 4.97 13.13 7.17 13.13 C 8.45 13.13 9.58 13.72 10.3 14.63 C 10.85 15.3 11.17 16.16 11.17 17.06 L 11.17 18.38 L 11.17 18.38 Z M 15.17 3.94 C 15.17 3.21 15.76 2.63 16.5 2.63 C 17.24 2.63 17.83 3.21 17.83 3.94 L 17.83 6.56 C 17.83 7.29 17.24 7.88 16.5 7.88 C 15.76 7.88 15.17 7.29 15.17 6.56 L 15.17 3.94 L 15.17 3.94 Z M 20.5 18.38 L 12.5 18.38 L 12.5 17.06 C 12.5 16.16 12.82 15.3 13.37 14.63 C 14.09 13.72 15.22 13.13 16.5 13.13 C 17.78 13.13 18.91 13.72 19.63 14.63 C 20.18 15.3 20.5 16.16 20.5 17.06 L 20.5 18.38 L 20.5 18.38 Z M 24.5 3.94 C 24.5 3.21 25.1 2.63 25.83 2.63 C 26.57 2.63 27.17 3.21 27.17 3.94 L 27.17 6.56 C 27.17 7.29 26.57 7.88 25.83 7.88 C 25.1 7.88 24.5 7.29 24.5 6.56 L 24.5 3.94 L 24.5 3.94 Z M 29.83 18.38 L 21.83 18.38 L 21.83 17.06 C 21.83 16.16 22.15 15.3 22.7 14.63 C 23.42 13.72 24.55 13.13 25.83 13.13 C 28.03 13.13 29.83 14.9 29.83 17.06 L 29.83 18.38 L 29.83 18.38 Z M 29.83 18.38" />
</svg>