<?xml version="1.0" encoding="utf-8"?>
<!-- Generator: Avocode 2.4.1-9839e14 - http://avocode.com -->
<svg height="14" width="24" xmlns:xlink="http://www.w3.org/1999/xlink" xmlns="http://www.w3.org/2000/svg" viewBox="0 0 24 14">
    <path fill="#ff6b00" fill-rule="evenodd" d="M 21 3 C 21 1.35 19.65 0 18 0 L 3 0 C 1.35 0 0 1.35 0 3 L 0 11 C 0 12.65 1.35 14 3 14 L 18 14 C 19.65 14 21 12.65 21 11 C 22.65 11 24 9.65 24 8 L 24 6 C 24 4.35 22.65 3 21 3 L 21 3 Z M 22 8 C 22 8.55 21.55 9 21 9 C 19.9 9 19 9.9 19 11 C 19 11.55 18.55 12 18 12 L 3 12 C 2.45 12 2 11.55 2 11 L 2 3 C 2 2.45 2.45 2 3 2 L 18 2 C 18.55 2 19 2.45 19 3 C 19 4.1 19.9 5 21 5 C 21.55 5 22 5.45 22 6 L 22 8 L 22 8 Z M 22 8" />
    <path fill="#ff6b00" fill-rule="evenodd" d="M 4 4 L 15 4 L 15 10 L 4 10 L 4 4 Z M 4 4" />
</svg>