<?xml version="1.0" encoding="utf-8"?>
<!-- Generator: Avocode 2.4.1-9839e14 - http://avocode.com -->
<svg height="14" width="15" xmlns:xlink="http://www.w3.org/1999/xlink" xmlns="http://www.w3.org/2000/svg" viewBox="0 0 15 14">
    <path fill="#ffffff" fill-rule="evenodd" d="M -0.5 8 L 6.5 8 L 6.5 15 C 6.5 15.55 6.95 16 7.5 16 C 8.05 16 8.5 15.55 8.5 15 L 8.5 8 L 15.5 8 C 16.05 8 16.5 7.55 16.5 7 C 16.5 6.45 16.05 6 15.5 6 L 8.5 6 L 8.5 -1 C 8.5 -1.55 8.05 -2 7.5 -2 C 6.95 -2 6.5 -1.55 6.5 -1 L 6.5 6 L -0.5 6 C -1.05 6 -1.5 6.45 -1.5 7 C -1.5 7.55 -1.05 8 -0.5 8" />
</svg>