<?xml version="1.0" encoding="utf-8"?>
<!-- Generator: Avocode 2.4.1-9839e14 - http://avocode.com -->
<svg height="17" width="22" xmlns:xlink="http://www.w3.org/1999/xlink" xmlns="http://www.w3.org/2000/svg" viewBox="0 0 22 17">
    <path fill="#ff6b00" fill-rule="evenodd" d="M 1.22 2.43 L 20.78 2.43 C 21.45 2.43 22 1.88 22 1.21 C 22 0.54 21.45 0 20.78 0 L 1.22 0 C 0.55 0 0 0.54 0 1.21 C 0 1.88 0.55 2.43 1.22 2.43" />
    <path fill="#ff6b00" fill-rule="evenodd" d="M 1.22 7.29 L 20.78 7.29 C 21.45 7.29 22 6.74 22 6.07 C 22 5.4 21.45 4.86 20.78 4.86 L 1.22 4.86 C 0.55 4.86 0 5.4 0 6.07 C 0 6.74 0.55 7.29 1.22 7.29" />
    <path fill="#ff6b00" fill-rule="evenodd" d="M 1.22 12.14 L 20.78 12.14 C 21.45 12.14 22 11.6 22 10.93 C 22 10.26 21.45 9.71 20.78 9.71 L 1.22 9.71 C 0.55 9.71 0 10.26 0 10.93 C 0 11.6 0.55 12.14 1.22 12.14" />
    <path fill="#ff6b00" fill-rule="evenodd" d="M 1.22 17 L 20.78 17 C 21.45 17 22 16.46 22 15.79 C 22 15.11 21.45 14.57 20.78 14.57 L 1.22 14.57 C 0.55 14.57 0 15.11 0 15.79 C 0 16.46 0.55 17 1.22 17" />
</svg>