<?xml version="1.0" encoding="utf-8"?>
<!-- Generator: Avocode 2.4.1-9839e14 - http://avocode.com -->
<svg height="371" width="214" xmlns:xlink="http://www.w3.org/1999/xlink" xmlns="http://www.w3.org/2000/svg" viewBox="0 0 214 371">
    <path fill="#8cd5c9" fill-rule="evenodd" d="M 158.5 -185.43 L 56.41 -185.43 C 49.64 -185.43 44.12 -179.92 44.12 -173.14 L 44.12 -172.04 C 44.12 -165.26 49.64 -159.75 56.41 -159.75 L 93.83 -159.75 C 98.84 -159.75 102.92 -155.67 102.92 -150.66 L 102.92 -140.92 C 102.92 -135.91 98.84 -131.83 93.83 -131.83 L -0.24 -131.83 C -7.02 -131.83 -12.54 -126.32 -12.54 -119.54 L -12.54 -95.97 C -12.54 -89.19 -7.02 -83.68 -0.24 -83.68 L 48.93 -83.68 C 53.94 -83.68 58.02 -79.6 58.02 -74.59 L 58.02 -50 C 58.02 -43.23 63.29 -37.71 69.78 -37.71 C 74.49 -37.71 78.33 -33.63 78.33 -28.62 L 78.33 22.42 C 78.33 29.2 83.84 34.71 90.62 34.71 L 141.93 34.71 C 146.94 34.71 151.02 38.79 151.02 43.8 L 151.02 88.39 C 151.02 93.4 146.94 97.48 141.93 97.48 L 134.45 97.48 C 127.67 97.48 122.16 102.99 122.16 109.77 L 122.16 140.28 C 122.16 147.06 127.67 152.57 134.45 152.57 L 200.76 152.57 C 205.77 152.57 209.84 156.65 209.84 161.66 L 209.84 216.18 C 209.84 221.19 205.77 225.26 200.76 225.26 L 31.88 225.26 C 25.1 225.26 19.58 230.78 19.58 237.56 L 19.58 331.63 L 22.79 331.63 L 22.79 237.56 C 22.79 232.55 26.87 228.47 31.88 228.47 L 200.76 228.47 C 207.53 228.47 213.05 222.96 213.05 216.18 L 213.05 161.66 C 213.05 154.88 207.53 149.36 200.76 149.36 L 134.45 149.36 C 129.44 149.36 125.37 145.29 125.37 140.28 L 125.37 109.77 C 125.37 104.76 129.44 100.69 134.45 100.69 L 141.93 100.69 C 148.71 100.69 154.23 95.17 154.23 88.39 L 154.23 43.8 C 154.23 37.02 148.71 31.51 141.93 31.51 L 90.62 31.51 C 85.61 31.51 81.54 27.43 81.54 22.42 L 81.54 -28.62 C 81.54 -35.4 76.26 -40.92 69.78 -40.92 C 65.06 -40.92 61.23 -44.99 61.23 -50 L 61.23 -74.59 C 61.23 -81.37 55.71 -86.88 48.93 -86.88 L -0.24 -86.88 C -5.25 -86.88 -9.33 -90.96 -9.33 -95.97 L -9.33 -119.54 C -9.33 -124.55 -5.25 -128.63 -0.24 -128.63 L 93.83 -128.63 C 100.61 -128.63 106.12 -134.14 106.12 -140.92 L 106.12 -150.66 C 106.12 -157.44 100.61 -162.95 93.83 -162.95 L 56.41 -162.95 C 51.4 -162.95 47.33 -167.03 47.33 -172.04 L 47.33 -173.14 C 47.33 -178.15 51.4 -182.23 56.41 -182.23 L 158.5 -182.23 C 163.51 -182.23 167.59 -178.15 167.59 -173.14 L 167.59 -79.16 C 167.59 -72.38 172.98 -66.86 179.62 -66.86 L 190.04 -66.86 L 190.04 -70.07 L 179.62 -70.07 C 174.75 -70.07 170.79 -74.15 170.79 -79.16 L 170.79 -173.14 C 170.79 -179.92 165.28 -185.43 158.5 -185.43" />
    <path fill="#8cd5c9" fill-rule="evenodd" d="M 31.18 350.1 C 31.18 355.62 26.71 360.09 21.19 360.09 C 15.67 360.09 11.19 355.62 11.19 350.1 C 11.19 344.58 15.67 340.1 21.19 340.1 C 26.71 340.1 31.18 344.58 31.18 350.1" />
    <path fill="#8cd5c9" fill-rule="evenodd" d="M 21.19 370.94 C 9.69 370.94 0.34 361.59 0.34 350.1 C 0.34 338.6 9.69 329.25 21.19 329.25 C 32.68 329.25 42.03 338.6 42.03 350.1 C 42.03 361.59 32.68 370.94 21.19 370.94 L 21.19 370.94 Z M 21.19 332.46 C 11.46 332.46 3.55 340.37 3.55 350.1 C 3.55 359.82 11.46 367.74 21.19 367.74 C 30.91 367.74 38.83 359.82 38.83 350.1 C 38.83 340.37 30.91 332.46 21.19 332.46 L 21.19 332.46 Z M 21.19 332.46" />
</svg>