<svg width="418px" height="273px" viewBox="0 0 418 273" version="1.1" xmlns="http://www.w3.org/2000/svg" xmlns:xlink="http://www.w3.org/1999/xlink" xmlns:sketch="http://www.bohemiancoding.com/sketch/ns">
    <g id="Page-1" stroke="none" stroke-width="1" fill="none" fill-rule="evenodd" sketch:type="MSPage">
        <g id="Desktop-HD" sketch:type="MSArtboardGroup" transform="translate(-257.000000, 0.000000)" fill="#8CD5C9">
            <g id="Line_top_left" sketch:type="MSLayerGroup" transform="translate(466.500000, 136.500000) rotate(-180.000000) translate(-466.500000, -136.500000) translate(257.500000, 0.000000)">
                <path d="M366.025,20.066 L321.127,20.066 C314.348,20.066 308.833,25.581 308.833,32.359 L308.833,100.775 C308.833,107.554 314.348,113.069 321.127,113.069 L405.578,113.069 C410.588,113.069 414.664,117.145 414.664,122.155 L414.664,146.743 C414.664,151.753 410.588,155.829 405.578,155.829 L359.611,155.829 C352.833,155.829 347.317,161.344 347.317,168.122 L347.317,204.469 C347.317,209.479 343.241,213.555 338.231,213.555 L311.506,213.555 C306.496,213.555 302.419,209.479 302.419,204.469 L302.419,177.743 C302.419,170.964 296.904,165.45 290.126,165.45 L253.78,165.45 C247.001,165.45 241.486,170.964 241.486,177.743 L241.486,223.71 C241.486,228.721 237.41,232.797 232.4,232.797 L128.707,232.797 C123.697,232.797 119.62,228.721 119.62,223.71 L119.62,168.122 C119.62,161.344 114.105,155.829 107.327,155.829 L70.981,155.829 C64.203,155.829 58.688,161.344 58.688,168.122 L58.688,194.848 C58.688,199.858 54.611,203.934 49.601,203.934 L13.255,203.934 C6.477,203.934 0.961,209.449 0.961,216.227 L0.961,272.884 L4.168,272.884 L4.168,216.227 C4.168,211.217 8.245,207.141 13.255,207.141 L49.601,207.141 C56.379,207.141 61.894,201.626 61.894,194.848 L61.894,168.122 C61.894,163.112 65.971,159.036 70.981,159.036 L107.327,159.036 C112.337,159.036 116.413,163.112 116.413,168.122 L116.413,223.71 C116.413,230.489 121.929,236.004 128.707,236.004 L232.4,236.004 C239.178,236.004 244.693,230.489 244.693,223.71 L244.693,177.743 C244.693,172.733 248.77,168.657 253.78,168.657 L290.126,168.657 C295.136,168.657 299.212,172.733 299.212,177.743 L299.212,204.469 C299.212,211.247 304.727,216.762 311.506,216.762 L338.231,216.762 C345.009,216.762 350.524,211.247 350.524,204.469 L350.524,168.122 C350.524,163.112 354.601,159.036 359.611,159.036 L405.578,159.036 C412.356,159.036 417.871,153.521 417.871,146.743 L417.871,122.155 C417.871,115.377 412.356,109.862 405.578,109.862 L321.127,109.862 C316.117,109.862 312.04,105.786 312.04,100.775 L312.04,32.359 C312.04,27.349 316.117,23.273 321.127,23.273 L366.025,23.273 L366.025,20.066" id="Fill-1" sketch:type="MSShapeGroup"></path>
                <path d="M394.71,21.67 C394.71,27.19 390.235,31.666 384.714,31.666 C379.193,31.666 374.718,27.19 374.718,21.67 C374.718,16.149 379.193,11.674 384.714,11.674 C390.235,11.674 394.71,16.149 394.71,21.67" id="Fill-2" sketch:type="MSShapeGroup"></path>
                <path d="M384.714,42.515 C373.221,42.515 363.869,33.164 363.869,21.669 C363.869,10.175 373.221,0.824 384.714,0.824 C396.208,0.824 405.56,10.175 405.56,21.669 C405.56,33.164 396.208,42.515 384.714,42.515 L384.714,42.515 Z M384.714,4.031 C374.989,4.031 367.076,11.944 367.076,21.669 C367.076,31.395 374.989,39.308 384.714,39.308 C394.44,39.308 402.353,31.395 402.353,21.669 C402.353,11.944 394.44,4.031 384.714,4.031 L384.714,4.031 Z" id="Fill-3" sketch:type="MSShapeGroup"></path>
            </g>
        </g>
    </g>
</svg>
