<?xml version="1.0" encoding="utf-8"?>
<!-- Generator: Avocode 2.4.1-9839e14 - http://avocode.com -->
<svg height="260" width="100" xmlns:xlink="http://www.w3.org/1999/xlink" xmlns="http://www.w3.org/2000/svg" viewBox="0 0 100 260">
    <path fill="#8cd5c9" fill-rule="evenodd" d="M 22.61 41.86 L 19.4 41.86 L 19.4 94.67 C 19.4 101.45 24.92 106.97 31.7 106.97 L 87.29 106.97 C 92.3 106.97 96.37 111.04 96.37 116.05 L 96.37 218.9 C 96.37 223.91 92.3 227.99 87.29 227.99 L 41.32 227.99 C 34.54 227.99 29.03 233.51 29.03 240.28 L 29.03 263.17 C 29.03 268.18 25.29 272.26 20.69 272.26 C 14.33 272.26 9.15 277.77 9.15 284.55 L 9.15 340.92 C 9.15 347.7 14.67 353.21 21.45 353.21 L 59.82 353.21 C 64.83 353.21 68.91 357.29 68.91 362.3 L 68.91 380.47 L 72.11 380.47 L 72.11 362.3 C 72.11 355.52 66.6 350 59.82 350 L 21.45 350 C 16.44 350 12.36 345.93 12.36 340.92 L 12.36 284.55 C 12.36 279.54 16.1 275.47 20.69 275.47 C 27.06 275.47 32.23 269.95 32.23 263.17 L 32.23 240.28 C 32.23 235.27 36.31 231.2 41.32 231.2 L 87.29 231.2 C 94.06 231.2 99.58 225.68 99.58 218.9 L 99.58 116.05 C 99.58 109.27 94.06 103.76 87.29 103.76 L 31.7 103.76 C 26.69 103.76 22.61 99.68 22.61 94.67 L 22.61 41.86" />
    <path fill="#8cd5c9" fill-rule="evenodd" d="M 31 20.91 C 31 26.43 26.53 30.91 21.01 30.91 C 15.49 30.91 11.01 26.43 11.01 20.91 C 11.01 15.39 15.49 10.92 21.01 10.92 C 26.53 10.92 31 15.39 31 20.91" />
    <path fill="#8cd5c9" fill-rule="evenodd" d="M 21.01 41.76 C 9.51 41.76 0.16 32.41 0.16 20.91 C 0.16 9.42 9.51 0.07 21.01 0.07 C 32.5 0.07 41.85 9.42 41.85 20.91 C 41.85 32.41 32.5 41.76 21.01 41.76 L 21.01 41.76 Z M 21.01 3.27 C 11.28 3.27 3.37 11.19 3.37 20.91 C 3.37 30.64 11.28 38.55 21.01 38.55 C 30.73 38.55 38.65 30.64 38.65 20.91 C 38.65 11.19 30.73 3.27 21.01 3.27 L 21.01 3.27 Z M 21.01 3.27" />
</svg>