<?xml version="1.0" encoding="utf-8"?>
<!-- Generator: Avocode 2.4.1-9839e14 - http://avocode.com -->
<svg height="251" width="315" xmlns:xlink="http://www.w3.org/1999/xlink" xmlns="http://www.w3.org/2000/svg" viewBox="0 0 315 251">
    <path fill="#8cd5c9" fill-rule="evenodd" d="M 125.2 0.84 L 68.71 0.84 C 61.93 0.84 56.41 6.35 56.41 13.13 L 56.41 39.32 C 56.41 44.33 52.34 48.41 47.33 48.41 L 0.29 48.41 L 0.29 51.61 L 47.33 51.61 C 54.1 51.61 59.62 46.1 59.62 39.32 L 59.62 13.13 C 59.62 8.12 63.7 4.04 68.71 4.04 L 125.2 4.04 C 130.21 4.04 134.29 8.12 134.29 13.13 L 134.29 72.26 C 134.29 77.27 130.21 81.34 125.2 81.34 L 97.57 81.34 C 90.79 81.34 85.28 86.86 85.28 93.64 L 85.28 121.1 C 85.28 127.88 90.79 133.39 97.57 133.39 L 124.3 133.39 C 129.31 133.39 133.38 137.47 133.38 142.48 L 133.38 209.83 C 133.38 214.84 129.31 218.91 124.3 218.91 L 63.36 218.91 C 56.58 218.91 51.07 224.43 51.07 231.21 L 51.07 238.69 C 51.07 245.47 56.58 250.98 63.36 250.98 L 213.02 250.98 C 219.8 250.98 225.32 245.47 225.32 238.69 L 225.32 210.9 C 225.32 205.89 229.39 201.81 234.4 201.81 L 273.56 201.81 L 273.56 198.6 L 234.4 198.6 C 227.62 198.6 222.11 204.12 222.11 210.9 L 222.11 238.69 C 222.11 243.7 218.03 247.77 213.02 247.77 L 63.36 247.77 C 58.35 247.77 54.28 243.7 54.28 238.69 L 54.28 231.21 C 54.28 226.2 58.35 222.12 63.36 222.12 L 124.3 222.12 C 131.07 222.12 136.59 216.6 136.59 209.83 L 136.59 142.48 C 136.59 135.7 131.07 130.18 124.3 130.18 L 97.57 130.18 C 92.56 130.18 88.48 126.11 88.48 121.1 L 88.48 93.64 C 88.48 88.63 92.56 84.55 97.57 84.55 L 125.2 84.55 C 131.98 84.55 137.5 79.04 137.5 72.26 L 137.5 13.13 C 137.5 6.35 131.98 0.84 125.2 0.84" />
    <path fill="#8cd5c9" fill-rule="evenodd" d="M 303.71 199.14 C 303.71 204.66 299.23 209.13 293.71 209.13 C 288.19 209.13 283.72 204.66 283.72 199.14 C 283.72 193.62 288.19 189.14 293.71 189.14 C 299.23 189.14 303.71 193.62 303.71 199.14" />
    <path fill="#8cd5c9" fill-rule="evenodd" d="M 293.71 219.98 C 282.22 219.98 272.87 210.63 272.87 199.14 C 272.87 187.64 282.22 178.29 293.71 178.29 C 305.21 178.29 314.56 187.64 314.56 199.14 C 314.56 210.63 305.21 219.98 293.71 219.98 L 293.71 219.98 Z M 293.71 181.5 C 283.99 181.5 276.08 189.41 276.08 199.14 C 276.08 208.86 283.99 216.77 293.71 216.77 C 303.44 216.77 311.35 208.86 311.35 199.14 C 311.35 189.41 303.44 181.5 293.71 181.5 L 293.71 181.5 Z M 293.71 181.5" />
</svg>