<?xml version="1.0" encoding="utf-8"?>
<!-- Generator: Avocode 2.4.1-9839e14 - http://avocode.com -->
<svg height="86" width="56" xmlns:xlink="http://www.w3.org/1999/xlink" xmlns="http://www.w3.org/2000/svg" viewBox="0 0 56 86">
    <path fill="#ff6b00" fill-rule="evenodd" d="M 2.61 0.53 L 20.43 0.53 L 20.43 18.41 L 2.61 18.41 L 2.61 0.53 Z M 2.61 0.53" />
    <path fill="#fffffe" fill-rule="evenodd" d="M 13.73 8.63 L 11.83 8.63 C 11.76 8.63 11.71 8.68 11.71 8.75 L 11.71 9.01 C 11.71 9.08 11.76 9.13 11.83 9.13 L 13.36 9.13 L 13.36 9.91 L 11.83 9.91 C 11.76 9.91 11.71 9.97 11.71 10.03 L 11.71 11.05 L 10.68 11.05 L 10.68 7.94 C 10.68 7.88 10.74 7.82 10.8 7.82 L 13.73 7.82 L 13.73 8.63" />
    <path fill="#fffffe" fill-rule="evenodd" d="M 9.37 11.05 L 9.37 8.75 C 9.37 8.68 9.31 8.63 9.25 8.63 L 8.19 8.63 C 8.12 8.63 8.07 8.68 8.07 8.75 L 8.07 11.05 L 7.04 11.05 L 7.04 7.94 C 7.04 7.88 7.09 7.82 7.16 7.82 L 10.27 7.82 C 10.34 7.82 10.39 7.88 10.39 7.94 L 10.39 11.05 L 9.37 11.05" />
    <path fill="#fffffe" fill-rule="evenodd" d="M 14.87 9.02 L 15.74 9.57 L 15.74 9.57 L 15.74 9.28 C 15.74 9.03 15.7 8.86 15.61 8.77 C 15.52 8.68 15.37 8.63 15.14 8.63 L 13.98 8.63 L 13.98 7.82 L 15.37 7.82 C 15.88 7.82 16.23 7.91 16.43 8.09 C 16.63 8.27 16.73 8.56 16.73 8.96 L 16.73 10.19 L 16.73 10.19 L 17.11 10.42 L 16.7 11.06 L 16.34 10.84 L 16.34 10.84 C 16.14 10.98 15.82 11.05 15.4 11.05 L 13.41 11.05 L 13.41 10.24 L 15.35 10.24 L 15.37 10.23 L 14.47 9.67 L 14.87 9.02" />
    <path fill="#fffffe" fill-rule="evenodd" d="M 5.95 10.24 L 6.76 10.24 L 6.76 11.05 L 5.95 11.05 L 5.95 10.24 Z M 5.95 10.24" />
    <path fill="#a5a6a4" fill-rule="evenodd" d="M 31.35 58.33 L 34.2 59.64 L 34.2 59.5 L 31.35 58.33" />
    <path fill="#a5a6a4" fill-rule="evenodd" d="M 30.93 52.19 L 30.93 52.55 L 34.21 53.87 L 34.21 53.5 L 30.93 52.19" />
    <path fill="#a5a6a4" fill-rule="evenodd" d="M 30.93 51.52 L 30.93 51.89 L 34.21 53.21 L 34.22 52.84 L 30.93 51.52" />
    <path fill="#a5a6a4" fill-rule="evenodd" d="M 30.92 57.48 L 30.92 57.84 L 34.2 59.2 L 34.2 58.84 L 30.92 57.48" />
    <path fill="#a5a6a4" fill-rule="evenodd" d="M 30.92 55.5 L 30.92 55.87 L 34.21 57.21 L 34.21 56.84 L 30.92 55.5" />
    <path fill="#a5a6a4" fill-rule="evenodd" d="M 30.92 54.84 L 30.92 55.2 L 34.21 56.54 L 34.21 56.17 L 30.92 54.84" />
    <path fill="#a5a6a4" fill-rule="evenodd" d="M 30.93 49.54 L 30.93 49.9 L 34.22 51.21 L 34.22 50.84 L 30.93 49.54" />
    <path fill="#a5a6a4" fill-rule="evenodd" d="M 30.93 52.85 L 30.93 53.22 L 34.21 54.54 L 34.21 54.17 L 30.93 52.85" />
    <path fill="#a5a6a4" fill-rule="evenodd" d="M 30.93 50.2 L 30.93 50.57 L 34.22 51.87 L 34.22 51.5 L 30.93 50.2" />
    <path fill="#a5a6a4" fill-rule="evenodd" d="M 30.93 54.17 L 30.92 54.54 L 34.21 55.87 L 34.21 55.5 L 30.93 54.17" />
    <path fill="#a5a6a4" fill-rule="evenodd" d="M 30.94 48.88 L 30.93 49.24 L 34.22 50.54 L 34.22 50.17 L 30.94 48.88" />
    <path fill="#a5a6a4" fill-rule="evenodd" d="M 30.92 56.16 L 30.92 56.53 L 34.21 57.87 L 34.21 57.5 L 30.92 56.16" />
    <path fill="#a5a6a4" fill-rule="evenodd" d="M 30.93 50.86 L 30.93 51.23 L 34.22 52.54 L 34.22 52.17 L 30.93 50.86" />
    <path fill="#a5a6a4" fill-rule="evenodd" d="M 30.92 56.82 L 30.92 57.19 L 34.2 58.54 L 34.2 58.17 L 30.92 56.82" />
    <path fill="#a5a6a4" fill-rule="evenodd" d="M 30.93 53.51 L 30.93 53.88 L 34.21 55.21 L 34.21 54.84 L 30.93 53.51" />
    <path fill="#a5a6a4" fill-rule="evenodd" d="M 32.21 47.38 L 31.59 47.51 L 35.15 48.9 L 35.78 48.78 L 32.21 47.38" />
    <path fill="#a5a6a4" fill-rule="evenodd" d="M 31.09 47.61 L 30.94 47.64 L 30.94 47.92 L 34.22 49.21 L 34.22 49.09 L 34.64 49 L 31.09 47.61" />
    <path fill="#a5a6a4" fill-rule="evenodd" d="M 34.45 46.92 L 33.83 47.05 L 37.42 48.45 L 37.88 48.36 L 35.68 47.4 L 34.45 46.92" />
    <path fill="#a5a6a4" fill-rule="evenodd" d="M 33.33 47.15 L 32.71 47.28 L 36.28 48.67 L 36.91 48.55 L 33.33 47.15" />
    <path fill="#a5a6a4" fill-rule="evenodd" d="M 30.94 48.21 L 30.94 48.58 L 34.22 49.87 L 34.22 49.5 L 30.94 48.21" />
    <path fill="#a5a6a4" fill-rule="evenodd" d="M 23.4 55.17 L 23.7 55.51 L 26.68 56.75 L 26.59 56.64 L 23.4 55.17" />
    <path fill="#a5a6a4" fill-rule="evenodd" d="M 26.71 59.03 L 27.19 59.59 L 29.54 60.57 L 29.53 60.58 L 30.22 60.87 L 29.73 60.29 L 26.71 59.03" />
    <path fill="#a5a6a4" fill-rule="evenodd" d="M 27.59 60.06 L 28.07 60.62 L 29.54 61.23 L 29.53 61.24 L 31.11 61.9 L 30.62 61.33 L 27.59 60.06" />
    <path fill="#a5a6a4" fill-rule="evenodd" d="M 28.47 61.09 L 28.95 61.65 L 29.54 61.89 L 29.53 61.9 L 32.01 62.94 L 31.51 62.36 L 28.47 61.09" />
    <path fill="#a5a6a4" fill-rule="evenodd" d="M 25.83 58 L 26.31 58.56 L 29.33 59.82 L 28.84 59.26 L 26.04 58.09 L 26.04 58.09 L 25.83 58" />
    <path fill="#a5a6a4" fill-rule="evenodd" d="M 30.25 63.16 L 30.74 63.73 L 33.81 65.03 L 33.31 64.45 L 30.25 63.16" />
    <path fill="#a5a6a4" fill-rule="evenodd" d="M 24.09 55.96 L 24.57 56.53 L 27.56 57.77 L 27.08 57.21 L 26.04 56.78 L 26.04 56.78 L 24.09 55.96" />
    <path fill="#a5a6a4" fill-rule="evenodd" d="M 29.36 62.12 L 29.85 62.69 L 32.91 63.99 L 32.41 63.41 L 29.36 62.12" />
    <path fill="#a5a6a4" fill-rule="evenodd" d="M 24.96 56.98 L 25.44 57.54 L 28.44 58.79 L 27.96 58.23 L 26.04 57.44 L 26.04 57.43 L 24.96 56.98" />
    <path fill="#a5a6a4" fill-rule="evenodd" d="M 19.94 65.26 L 19.94 65.62 L 23.08 67 L 23.08 66.63 L 19.94 65.26" />
    <path fill="#a5a6a4" fill-rule="evenodd" d="M 19.95 58.79 L 19.95 59.15 L 23.09 60.48 L 23.09 60.12 L 19.95 58.79" />
    <path fill="#a5a6a4" fill-rule="evenodd" d="M 19.96 51.67 L 19.96 52.03 L 23.1 53.32 L 23.1 52.96 L 19.96 51.67" />
    <path fill="#a5a6a4" fill-rule="evenodd" d="M 19.94 64.61 L 19.94 64.97 L 23.08 66.34 L 23.08 65.98 L 19.94 64.61" />
    <path fill="#a5a6a4" fill-rule="evenodd" d="M 19.96 52.32 L 19.96 52.68 L 23.1 53.97 L 23.1 53.61 L 19.96 52.32" />
    <path fill="#a5a6a4" fill-rule="evenodd" d="M 19.96 52.97 L 19.96 53.32 L 23.1 54.61 L 23.1 54.26 L 19.96 52.97" />
    <path fill="#a5a6a4" fill-rule="evenodd" d="M 22.08 66.85 L 23.08 67.33 L 23.08 67.29 L 22.08 66.85" />
    <path fill="#a5a6a4" fill-rule="evenodd" d="M 19.95 60.08 L 19.95 60.44 L 23.09 61.78 L 23.09 61.42 L 19.95 60.08" />
    <path fill="#a5a6a4" fill-rule="evenodd" d="M 21.28 49.61 L 20.69 49.73 L 24.09 51.11 L 24.69 50.99 L 21.28 49.61" />
    <path fill="#a5a6a4" fill-rule="evenodd" d="M 19.95 59.43 L 19.95 59.79 L 23.09 61.13 L 23.09 60.77 L 19.95 59.43" />
    <path fill="#a5a6a4" fill-rule="evenodd" d="M 22.35 49.39 L 21.76 49.52 L 25.18 50.89 L 25.78 50.77 L 22.35 49.39" />
    <path fill="#a5a6a4" fill-rule="evenodd" d="M 19.95 60.73 L 19.95 61.09 L 23.09 62.43 L 23.09 62.07 L 19.95 60.73" />
    <path fill="#a5a6a4" fill-rule="evenodd" d="M 19.95 56.84 L 19.95 57.2 L 23.09 58.52 L 23.09 58.16 L 19.95 56.84" />
    <path fill="#a5a6a4" fill-rule="evenodd" d="M 20.21 49.83 L 19.97 49.88 L 19.97 50.09 L 23.11 51.36 L 23.11 51.31 L 23.61 51.21 L 20.21 49.83" />
    <path fill="#a5a6a4" fill-rule="evenodd" d="M 19.96 54.26 L 19.96 54.61 L 23.1 55.92 L 23.1 55.56 L 19.96 54.26" />
    <path fill="#a5a6a4" fill-rule="evenodd" d="M 19.96 55.55 L 19.96 55.91 L 23.1 57.22 L 23.1 56.86 L 19.96 55.55" />
    <path fill="#a5a6a4" fill-rule="evenodd" d="M 23.19 49.22 L 22.83 49.3 L 26.27 50.68 L 26.37 50.66 L 23.19 49.22" />
    <path fill="#a5a6a4" fill-rule="evenodd" d="M 19.96 56.2 L 19.95 56.56 L 23.09 57.87 L 23.09 57.51 L 19.96 56.2" />
    <path fill="#a5a6a4" fill-rule="evenodd" d="M 19.96 54.9 L 19.96 55.26 L 23.1 56.57 L 23.1 56.21 L 19.96 54.9" />
    <path fill="#a5a6a4" fill-rule="evenodd" d="M 19.94 62.02 L 19.94 62.38 L 23.08 63.74 L 23.08 63.38 L 19.94 62.02" />
    <path fill="#a5a6a4" fill-rule="evenodd" d="M 19.96 53.62 L 19.96 53.97 L 23.1 55.27 L 23.1 54.91 L 19.96 53.62" />
    <path fill="#a5a6a4" fill-rule="evenodd" d="M 19.95 61.38 L 19.94 61.74 L 23.08 63.09 L 23.08 62.72 L 19.95 61.38" />
    <path fill="#a5a6a4" fill-rule="evenodd" d="M 19.94 63.97 L 19.94 64.33 L 23.08 65.69 L 23.08 65.33 L 19.94 63.97" />
    <path fill="#a5a6a4" fill-rule="evenodd" d="M 19.94 62.67 L 19.94 63.03 L 23.08 64.39 L 23.08 64.03 L 19.94 62.67" />
    <path fill="#a5a6a4" fill-rule="evenodd" d="M 19.94 63.32 L 19.94 63.68 L 23.08 65.04 L 23.08 64.68 L 19.94 63.32" />
    <path fill="#a5a6a4" fill-rule="evenodd" d="M 19.97 51.03 L 19.96 51.38 L 23.1 52.67 L 23.1 52.31 L 19.97 51.03" />
    <path fill="#a5a6a4" fill-rule="evenodd" d="M 19.97 50.38 L 19.97 50.74 L 23.11 52.02 L 23.11 51.65 L 19.97 50.38" />
    <path fill="#a5a6a4" fill-rule="evenodd" d="M 19.95 57.49 L 19.95 57.85 L 23.09 59.18 L 23.09 58.81 L 19.95 57.49" />
    <path fill="#a5a6a4" fill-rule="evenodd" d="M 19.95 58.14 L 19.95 58.5 L 23.09 59.83 L 23.09 59.47 L 19.95 58.14" />
    <path fill="#a5a6a4" fill-rule="evenodd" d="M 46.04 58.02 L 45.39 58.14 L 47.33 58.91 L 47.32 58.92 L 49.15 59.65 L 49.81 59.53 L 46.04 58.02" />
    <path fill="#a5a6a4" fill-rule="evenodd" d="M 51.52 57.05 L 51.35 57.08 L 53.68 58 L 51.52 57.05" />
    <path fill="#a5a6a4" fill-rule="evenodd" d="M 45.4 59.82 L 46.18 60.17 L 46.24 60.15 L 45.4 59.82" />
    <path fill="#a5a6a4" fill-rule="evenodd" d="M 49.61 57.39 L 48.94 57.51 L 52.76 59.02 L 53.43 58.91 L 49.61 57.39" />
    <path fill="#a5a6a4" fill-rule="evenodd" d="M 50.81 57.18 L 50.14 57.29 L 53.98 58.81 L 54.65 58.7 L 50.81 57.18" />
    <path fill="#a5a6a4" fill-rule="evenodd" d="M 44.86 58.23 L 44.22 58.35 L 47.33 59.6 L 47.32 59.6 L 47.95 59.86 L 48.61 59.74 L 44.86 58.23" />
    <path fill="#a5a6a4" fill-rule="evenodd" d="M 43.68 58.44 L 43.05 58.55 L 46.78 60.06 L 47.42 59.95 L 43.68 58.44" />
    <path fill="#a5a6a4" fill-rule="evenodd" d="M 48.41 57.6 L 47.75 57.72 L 51.55 59.23 L 52.22 59.12 L 48.41 57.6" />
    <path fill="#a5a6a4" fill-rule="evenodd" d="M 47.22 57.81 L 46.57 57.93 L 47.33 58.23 L 47.32 58.23 L 50.35 59.44 L 51.01 59.33 L 47.22 57.81" />
    <path fill="#a5a6a4" fill-rule="evenodd" d="M 45.11 51.53 L 44.47 51.65 L 47.33 52.76 L 47.32 52.76 L 48.21 53.11 L 48.87 52.99 L 45.11 51.53" />
    <path fill="#a5a6a4" fill-rule="evenodd" d="M 46.29 51.3 L 45.65 51.42 L 47.33 52.07 L 47.32 52.08 L 49.41 52.89 L 50.07 52.76 L 46.29 51.3" />
    <path fill="#a5a6a4" fill-rule="evenodd" d="M 42.78 51.97 L 42.74 51.98 L 46.19 53.49 L 46.5 53.43 L 43.57 52.29 L 43.58 52.28 L 42.78 51.97" />
    <path fill="#a5a6a4" fill-rule="evenodd" d="M 43.94 51.75 L 43.3 51.87 L 47.03 53.33 L 47.68 53.21 L 43.94 51.75" />
    <path fill="#a5a6a4" fill-rule="evenodd" d="M 48.67 50.85 L 48.01 50.97 L 51.81 52.44 L 52.49 52.31 L 48.67 50.85" />
    <path fill="#a5a6a4" fill-rule="evenodd" d="M 49.87 50.62 L 49.2 50.75 L 53.03 52.21 L 53.7 52.09 L 49.87 50.62" />
    <path fill="#a5a6a4" fill-rule="evenodd" d="M 47.48 51.07 L 46.83 51.2 L 47.33 51.39 L 47.32 51.39 L 50.61 52.66 L 51.28 52.54 L 47.48 51.07" />
    <path fill="#a5a6a4" fill-rule="evenodd" d="M 39.03 47.81 L 39.03 48.18 L 42.42 49.49 L 42.42 49.12 L 39.03 47.81" />
    <path fill="#a5a6a4" fill-rule="evenodd" d="M 39.03 48.48 L 39.02 48.85 L 42.42 50.17 L 42.42 49.8 L 39.03 48.48" />
    <path fill="#a5a6a4" fill-rule="evenodd" d="M 44 44.97 L 43.37 45.1 L 47.1 46.51 L 47.75 46.38 L 44 44.97" />
    <path fill="#a5a6a4" fill-rule="evenodd" d="M 39.02 50.5 L 39.02 50.87 L 42.41 52.2 L 42.42 51.83 L 39.02 50.5" />
    <path fill="#a5a6a4" fill-rule="evenodd" d="M 39.03 46.46 L 39.03 46.84 L 42.42 48.14 L 42.42 47.76 L 39.03 46.46" />
    <path fill="#a5a6a4" fill-rule="evenodd" d="M 39 60.59 L 39 60.96 L 42.39 62.36 L 42.39 61.98 L 39 60.59" />
    <path fill="#a5a6a4" fill-rule="evenodd" d="M 39.02 49.15 L 39.02 49.53 L 42.42 50.85 L 42.42 50.47 L 39.02 49.15" />
    <path fill="#a5a6a4" fill-rule="evenodd" d="M 39.01 55.88 L 39.01 56.25 L 42.4 57.62 L 42.4 57.24 L 39.01 55.88" />
    <path fill="#a5a6a4" fill-rule="evenodd" d="M 39.01 55.2 L 39.01 55.58 L 42.41 56.94 L 42.41 56.56 L 39.01 55.2" />
    <path fill="#a5a6a4" fill-rule="evenodd" d="M 39 61.26 L 39 61.64 L 42.39 63.04 L 42.39 62.66 L 39 61.26" />
    <path fill="#a5a6a4" fill-rule="evenodd" d="M 39 59.92 L 39 60.29 L 42.4 61.68 L 42.4 61.31 L 39 59.92" />
    <path fill="#a5a6a4" fill-rule="evenodd" d="M 39 61.94 L 39 62.31 L 42.39 63.72 L 42.39 63.34 L 39 61.94" />
    <path fill="#a5a6a4" fill-rule="evenodd" d="M 40.44 63.21 L 42.39 64.11 L 42.39 64.02 L 40.44 63.21" />
    <path fill="#a5a6a4" fill-rule="evenodd" d="M 48.74 44 L 48.08 44.14 L 51.88 45.55 L 52.55 45.42 L 48.74 44" />
    <path fill="#a5a6a4" fill-rule="evenodd" d="M 46.36 44.49 L 45.72 44.62 L 47.33 45.22 L 47.32 45.23 L 49.47 46.03 L 50.14 45.9 L 46.36 44.49" />
    <path fill="#a5a6a4" fill-rule="evenodd" d="M 39.02 51.84 L 39.02 52.21 L 42.41 53.55 L 42.41 53.17 L 39.02 51.84" />
    <path fill="#a5a6a4" fill-rule="evenodd" d="M 45.18 44.73 L 44.54 44.86 L 47.33 45.91 L 47.32 45.91 L 48.28 46.27 L 48.94 46.14 L 45.18 44.73" />
    <path fill="#a5a6a4" fill-rule="evenodd" d="M 39.01 56.55 L 39.01 56.92 L 42.4 58.29 L 42.4 57.92 L 39.01 56.55" />
    <path fill="#a5a6a4" fill-rule="evenodd" d="M 39.02 49.83 L 39.02 50.2 L 42.42 51.53 L 42.42 51.15 L 39.02 49.83" />
    <path fill="#a5a6a4" fill-rule="evenodd" d="M 39.02 51.17 L 39.02 51.54 L 42.41 52.87 L 42.41 52.51 L 39.02 51.17" />
    <path fill="#a5a6a4" fill-rule="evenodd" d="M 40.52 45.68 L 39.88 45.81 L 43.56 47.22 L 44.2 47.09 L 43.57 46.85 L 43.58 46.84 L 40.52 45.68" />
    <path fill="#a5a6a4" fill-rule="evenodd" d="M 39.37 45.92 L 39.03 45.99 L 39.03 46.16 L 42.42 47.46 L 42.42 47.44 L 43.04 47.32 L 39.37 45.92" />
    <path fill="#a5a6a4" fill-rule="evenodd" d="M 47.55 44.25 L 46.9 44.38 L 47.33 44.54 L 47.32 44.54 L 50.68 45.79 L 51.34 45.66 L 47.55 44.25" />
    <path fill="#a5a6a4" fill-rule="evenodd" d="M 39.01 57.22 L 39.01 57.6 L 42.4 58.97 L 42.4 58.6 L 39.01 57.22" />
    <path fill="#a5a6a4" fill-rule="evenodd" d="M 41.68 45.45 L 41.04 45.58 L 44.74 46.98 L 45.38 46.85 L 43.57 46.17 L 43.58 46.16 L 41.68 45.45" />
    <path fill="#a5a6a4" fill-rule="evenodd" d="M 39.03 47.13 L 39.03 47.51 L 42.42 48.82 L 42.42 48.44 L 39.03 47.13" />
    <path fill="#a5a6a4" fill-rule="evenodd" d="M 42.85 45.21 L 42.2 45.34 L 45.92 46.75 L 46.56 46.62 L 43.57 45.49 L 43.58 45.48 L 42.85 45.21" />
    <path fill="#a5a6a4" fill-rule="evenodd" d="M 39 59.24 L 39 59.62 L 42.4 61 L 42.4 60.63 L 39 59.24" />
    <path fill="#a5a6a4" fill-rule="evenodd" d="M 39.01 53.86 L 39.01 54.23 L 42.41 55.58 L 42.41 55.21 L 39.01 53.86" />
    <path fill="#a5a6a4" fill-rule="evenodd" d="M 51.14 43.51 L 50.47 43.65 L 54.31 45.07 L 54.83 44.96 L 52.94 44.18 L 51.14 43.51" />
    <path fill="#a5a6a4" fill-rule="evenodd" d="M 39.01 58.57 L 39 58.94 L 42.4 60.33 L 42.4 59.95 L 39.01 58.57" />
    <path fill="#a5a6a4" fill-rule="evenodd" d="M 39.02 52.51 L 39.02 52.88 L 42.41 54.23 L 42.41 53.85 L 39.02 52.51" />
    <path fill="#a5a6a4" fill-rule="evenodd" d="M 39.01 54.53 L 39.01 54.9 L 42.41 56.26 L 42.41 55.89 L 39.01 54.53" />
    <path fill="#a5a6a4" fill-rule="evenodd" d="M 39.01 57.9 L 39.01 58.27 L 42.4 59.65 L 42.4 59.27 L 39.01 57.9" />
    <path fill="#a5a6a4" fill-rule="evenodd" d="M 39.02 53.18 L 39.02 53.56 L 42.41 54.91 L 42.41 54.53 L 39.02 53.18" />
    <path fill="#a5a6a4" fill-rule="evenodd" d="M 49.93 43.76 L 49.27 43.9 L 53.09 45.31 L 53.77 45.18 L 49.93 43.76" />
    <path fill="#a5a6a4" fill-rule="evenodd" d="M 12.42 56.83 L 12.42 57.18 L 15.46 58.48 L 15.46 58.13 L 13.41 57.26 L 13.41 57.25 L 12.42 56.83" />
    <path fill="#a5a6a4" fill-rule="evenodd" d="M 12.42 57.47 L 12.42 57.82 L 15.46 59.12 L 15.46 58.77 L 13.41 57.9 L 13.41 57.89 L 12.42 57.47" />
    <path fill="#a5a6a4" fill-rule="evenodd" d="M 12.4 67.02 L 12.4 67.09 L 15.44 68.6 L 15.44 68.39 L 13.41 67.47 L 13.41 67.47 L 12.4 67.02" />
    <path fill="#a5a6a4" fill-rule="evenodd" d="M 12.4 66.38 L 12.4 66.73 L 15.45 68.1 L 15.45 67.75 L 13.41 66.84 L 13.41 66.83 L 12.4 66.38" />
    <path fill="#a5a6a4" fill-rule="evenodd" d="M 12.42 56.19 L 12.42 56.55 L 15.47 57.84 L 15.47 57.49 L 13.41 56.62 L 13.41 56.61 L 12.42 56.19" />
    <path fill="#a5a6a4" fill-rule="evenodd" d="M 12.42 58.11 L 12.42 58.46 L 15.46 59.77 L 15.46 59.42 L 13.41 58.53 L 13.41 58.53 L 12.42 58.11" />
    <path fill="#a5a6a4" fill-rule="evenodd" d="M 12.43 54.28 L 12.43 54.63 L 15.47 55.92 L 15.47 55.57 L 13.41 54.7 L 13.41 54.69 L 12.43 54.28" />
    <path fill="#a5a6a4" fill-rule="evenodd" d="M 12.43 53.64 L 12.43 54 L 15.47 55.28 L 15.47 54.93 L 13.41 54.06 L 13.41 54.06 L 12.43 53.64" />
    <path fill="#a5a6a4" fill-rule="evenodd" d="M 12.43 55.56 L 12.42 55.91 L 15.47 57.2 L 15.47 56.85 L 13.41 55.98 L 13.41 55.97 L 12.43 55.56" />
    <path fill="#a5a6a4" fill-rule="evenodd" d="M 12.43 54.92 L 12.43 55.27 L 15.47 56.56 L 15.47 56.21 L 13.41 55.34 L 13.41 55.33 L 12.43 54.92" />
    <path fill="#a5a6a4" fill-rule="evenodd" d="M 12.42 60.01 L 12.42 60.36 L 15.46 61.68 L 15.46 61.33 L 13.41 60.44 L 13.41 60.44 L 12.42 60.01" />
    <path fill="#a5a6a4" fill-rule="evenodd" d="M 12.41 62.56 L 12.41 62.91 L 15.45 64.25 L 15.45 63.9 L 13.41 63 L 13.41 63 L 12.41 62.56" />
    <path fill="#a5a6a4" fill-rule="evenodd" d="M 12.43 53.01 L 12.43 53.36 L 15.47 54.63 L 15.47 54.28 L 13.41 53.42 L 13.41 53.42 L 12.43 53.01" />
    <path fill="#a5a6a4" fill-rule="evenodd" d="M 12.41 63.2 L 12.41 63.55 L 15.45 64.89 L 15.45 64.54 L 13.41 63.64 L 13.41 63.63 L 12.41 63.2" />
    <path fill="#a5a6a4" fill-rule="evenodd" d="M 12.42 60.65 L 12.41 61 L 15.46 62.32 L 15.46 61.97 L 13.41 61.08 L 13.41 61.08 L 12.42 60.65" />
    <path fill="#a5a6a4" fill-rule="evenodd" d="M 12.41 61.92 L 12.41 62.27 L 15.45 63.61 L 15.45 63.26 L 13.41 62.36 L 13.41 62.36 L 12.41 61.92" />
    <path fill="#a5a6a4" fill-rule="evenodd" d="M 12.41 65.74 L 12.41 65.87 L 12.59 65.96 L 12.48 65.98 L 12.41 65.94 L 12.41 66.1 L 15.45 67.45 L 15.45 67.1 L 13.41 66.2 L 13.41 66.19 L 12.41 65.74" />
    <path fill="#a5a6a4" fill-rule="evenodd" d="M 12.42 58.74 L 12.42 59.09 L 15.46 60.4 L 15.46 60.06 L 13.41 59.17 L 13.41 59.17 L 12.42 58.74" />
    <path fill="#a5a6a4" fill-rule="evenodd" d="M 12.41 65.11 L 12.41 65.46 L 15.45 66.81 L 15.45 66.46 L 13.41 65.56 L 13.41 65.55 L 12.41 65.11" />
    <path fill="#a5a6a4" fill-rule="evenodd" d="M 12.41 63.83 L 12.41 64.19 L 15.45 65.53 L 15.45 65.18 L 13.41 64.28 L 13.41 64.27 L 12.41 63.83" />
    <path fill="#a5a6a4" fill-rule="evenodd" d="M 12.41 64.47 L 12.41 64.82 L 15.45 66.17 L 15.45 65.82 L 13.41 64.92 L 13.41 64.91 L 12.41 64.47" />
    <path fill="#a5a6a4" fill-rule="evenodd" d="M 12.42 59.38 L 12.42 59.72 L 15.46 61.04 L 15.46 60.7 L 13.41 59.81 L 13.41 59.81 L 12.42 59.38" />
    <path fill="#a5a6a4" fill-rule="evenodd" d="M 12.95 51.31 L 12.43 51.41 L 12.43 51.45 L 15.67 52.79 L 16.24 52.68 L 13.41 51.5 L 13.41 51.5 L 12.95 51.31" />
    <path fill="#a5a6a4" fill-rule="evenodd" d="M 12.41 61.28 L 12.41 61.64 L 15.45 62.96 L 15.46 62.61 L 13.41 61.72 L 13.41 61.72 L 12.41 61.28" />
    <path fill="#a5a6a4" fill-rule="evenodd" d="M 15.01 50.89 L 14.45 51 L 16.72 51.94 L 16.72 51.95 L 17.75 52.37 L 18.34 52.25 L 15.01 50.89" />
    <path fill="#a5a6a4" fill-rule="evenodd" d="M 15.77 50.73 L 15.49 50.79 L 16.72 51.3 L 16.72 51.3 L 18.81 52.16 L 18.86 52.15 L 15.77 50.73" />
    <path fill="#a5a6a4" fill-rule="evenodd" d="M 13.98 51.1 L 13.41 51.21 L 16.71 52.58 L 17.29 52.47 L 13.98 51.1" />
    <path fill="#a5a6a4" fill-rule="evenodd" d="M 12.43 51.73 L 12.43 52.09 L 15.47 53.35 L 15.47 53 L 13.41 52.14 L 13.41 52.14 L 12.43 51.73" />
    <path fill="#a5a6a4" fill-rule="evenodd" d="M 12.43 52.37 L 12.43 52.72 L 15.47 53.99 L 15.47 53.64 L 13.41 52.78 L 13.41 52.78 L 12.43 52.37" />
    <path fill="#a5a6a4" fill-rule="evenodd" d="M 4.77 65.33 L 4.22 65.42 L 7.39 66.86 L 7.94 66.76 L 5.74 65.77 L 5.74 65.76 L 4.77 65.33" />
    <path fill="#a5a6a4" fill-rule="evenodd" d="M 5.76 65.15 L 5.21 65.25 L 8.4 66.68 L 8.96 66.59 L 5.76 65.15" />
    <path fill="#a5a6a4" fill-rule="evenodd" d="M 3.77 65.5 L 3.41 65.57 L 5.7 66.72 L 6.39 67.03 L 6.94 66.94 L 5.74 66.4 L 5.74 66.39 L 3.77 65.5" />
    <path fill="#a5a6a4" fill-rule="evenodd" d="M 8.78 64.61 L 8.23 64.71 L 8.95 65.03 L 8.94 65.03 L 11.45 66.16 L 12.02 66.06 L 8.78 64.61" />
    <path fill="#a5a6a4" fill-rule="evenodd" d="M 7.77 64.79 L 7.22 64.89 L 8.95 65.66 L 8.94 65.67 L 10.43 66.33 L 11 66.23 L 7.77 64.79" />
    <path fill="#a5a6a4" fill-rule="evenodd" d="M 6.76 64.97 L 6.22 65.07 L 8.95 66.3 L 8.94 66.3 L 9.41 66.51 L 9.97 66.41 L 6.76 64.97" />
    <path fill="#a5a6a4" fill-rule="evenodd" d="M 9.58 64.47 L 9.24 64.53 L 12.48 65.98 L 12.59 65.96 L 9.58 64.47" />
    <path fill="#a5a6a4" fill-rule="evenodd" d="M 0.25 62.04 L 0.25 62.38 L 3.13 63.68 L 3.14 63.34 L 0.25 62.04" />
    <path fill="#a5a6a4" fill-rule="evenodd" d="M 0.26 57.7 L 0.26 58.04 L 3.14 59.31 L 3.14 58.97 L 0.26 57.7" />
    <path fill="#a5a6a4" fill-rule="evenodd" d="M 0.25 60.8 L 0.25 61.14 L 3.14 62.43 L 3.14 62.09 L 0.25 60.8" />
    <path fill="#a5a6a4" fill-rule="evenodd" d="M 0.26 55.22 L 0.26 55.56 L 3.15 56.82 L 3.15 56.47 L 0.26 55.22" />
    <path fill="#a5a6a4" fill-rule="evenodd" d="M 0.26 54.6 L 0.26 54.94 L 3.15 56.19 L 3.15 55.85 L 0.26 54.6" />
    <path fill="#a5a6a4" fill-rule="evenodd" d="M 0.26 55.84 L 0.26 56.18 L 3.15 57.44 L 3.15 57.1 L 0.26 55.84" />
    <path fill="#a5a6a4" fill-rule="evenodd" d="M 0.26 57.08 L 0.26 57.42 L 3.14 58.68 L 3.14 58.35 L 0.26 57.08" />
    <path fill="#a5a6a4" fill-rule="evenodd" d="M 0.25 62.66 L 0.25 63.01 L 3.13 64.31 L 3.13 63.96 L 0.25 62.66" />
    <path fill="#a5a6a4" fill-rule="evenodd" d="M 0.26 56.46 L 0.26 56.8 L 3.15 58.07 L 3.15 57.72 L 0.26 56.46" />
    <path fill="#a5a6a4" fill-rule="evenodd" d="M 0.25 63.9 L 0.24 64.25 L 3.13 65.56 L 3.13 65.21 L 0.25 63.9" />
    <path fill="#a5a6a4" fill-rule="evenodd" d="M 0.25 63.28 L 0.25 63.63 L 3.13 64.93 L 3.13 64.59 L 0.25 63.28" />
    <path fill="#a5a6a4" fill-rule="evenodd" d="M 0.25 61.42 L 0.25 61.76 L 3.14 63.06 L 3.14 62.71 L 0.25 61.42" />
    <path fill="#a5a6a4" fill-rule="evenodd" d="M 0.24 65.77 L 0.24 66.11 L 3.13 67.43 L 3.13 67.09 L 0.24 65.77" />
    <path fill="#a5a6a4" fill-rule="evenodd" d="M 0.24 68.25 L 0.24 68.59 L 3.12 69.93 L 3.12 69.58 L 0.24 68.25" />
    <path fill="#a5a6a4" fill-rule="evenodd" d="M 0.24 64.52 L 0.24 64.87 L 3.13 66.18 L 3.13 65.84 L 0.24 64.52" />
    <path fill="#a5a6a4" fill-rule="evenodd" d="M 0.24 65.15 L 0.24 65.49 L 3.13 66.81 L 3.13 66.46 L 0.24 65.15" />
    <path fill="#a5a6a4" fill-rule="evenodd" d="M 0.24 67.01 L 0.24 67.35 L 3.13 68.68 L 3.13 68.33 L 0.24 67.01" />
    <path fill="#a5a6a4" fill-rule="evenodd" d="M 0.24 66.39 L 0.24 66.73 L 3.13 68.06 L 3.13 67.71 L 0.24 66.39" />
    <path fill="#a5a6a4" fill-rule="evenodd" d="M 0.24 68.87 L 0.24 69.17 L 1.18 69.65 L 3.12 70.55 L 3.12 70.21 L 0.24 68.87" />
    <path fill="#a5a6a4" fill-rule="evenodd" d="M 0.26 53.98 L 0.26 54.32 L 3.15 55.57 L 3.15 55.29 L 3.26 55.27 L 0.26 53.98" />
    <path fill="#a5a6a4" fill-rule="evenodd" d="M 0.25 58.94 L 0.25 59.28 L 3.14 60.56 L 3.14 60.21 L 0.25 58.94" />
    <path fill="#a5a6a4" fill-rule="evenodd" d="M 0.25 59.56 L 0.25 59.9 L 3.14 61.18 L 3.14 60.84 L 0.25 59.56" />
    <path fill="#a5a6a4" fill-rule="evenodd" d="M 0.26 58.31 L 0.25 58.66 L 3.14 59.93 L 3.14 59.59 L 0.26 58.31" />
    <path fill="#a5a6a4" fill-rule="evenodd" d="M 0.25 60.18 L 0.25 60.52 L 3.14 61.81 L 3.14 61.46 L 0.25 60.18" />
    <path fill="#a5a6a4" fill-rule="evenodd" d="M 0.24 67.63 L 0.24 67.97 L 3.12 69.31 L 3.13 68.96 L 0.24 67.63" />
    <path fill="#a5a6a4" fill-rule="evenodd" d="M 1.12 53.72 L 0.57 53.83 L 3.7 55.18 L 4.25 55.07 L 1.12 53.72" />
    <path fill="#a5a6a4" fill-rule="evenodd" d="M 2.1 53.52 L 1.56 53.63 L 4.69 54.98 L 5.25 54.87 L 2.1 53.52" />
    <path fill="#a5a6a4" fill-rule="evenodd" d="M 3.09 53.32 L 2.54 53.43 L 5.69 54.78 L 6.24 54.67 L 5.74 54.46 L 5.74 54.45 L 3.09 53.32" />
    <path fill="#a5a6a4" fill-rule="evenodd" d="M 37.99 25.46 L 37.99 25.83 L 41.37 26.99 L 41.37 26.61 L 37.99 25.46" />
    <path fill="#a5a6a4" fill-rule="evenodd" d="M 37.96 40.23 L 37.96 40.6 L 41.34 41.86 L 41.34 41.48 L 37.96 40.23" />
    <path fill="#a5a6a4" fill-rule="evenodd" d="M 37.99 26.13 L 37.99 26.5 L 41.37 27.66 L 41.37 27.29 L 37.99 26.13" />
    <path fill="#a5a6a4" fill-rule="evenodd" d="M 37.98 27.47 L 37.98 27.84 L 41.36 29.01 L 41.36 28.64 L 37.98 27.47" />
    <path fill="#a5a6a4" fill-rule="evenodd" d="M 37.99 24.79 L 37.99 25.16 L 41.37 26.31 L 41.37 25.94 L 37.99 24.79" />
    <path fill="#a5a6a4" fill-rule="evenodd" d="M 37.99 26.8 L 37.99 27.17 L 41.37 28.33 L 41.37 27.97 L 37.99 26.8" />
    <path fill="#a5a6a4" fill-rule="evenodd" d="M 37.96 39.56 L 37.96 39.93 L 41.34 41.18 L 41.34 40.81 L 37.96 39.56" />
    <path fill="#a5a6a4" fill-rule="evenodd" d="M 38 22.1 L 37.99 22.47 L 41.37 23.61 L 41.38 23.23 L 38 22.1" />
    <path fill="#a5a6a4" fill-rule="evenodd" d="M 37.99 24.11 L 37.99 24.49 L 41.37 25.64 L 41.37 25.26 L 37.99 24.11" />
    <path fill="#a5a6a4" fill-rule="evenodd" d="M 37.99 22.77 L 37.99 23.14 L 41.37 24.28 L 41.37 23.91 L 37.99 22.77" />
    <path fill="#a5a6a4" fill-rule="evenodd" d="M 38.64 21.64 L 38.01 21.8 L 41.66 23.03 L 42.31 22.87 L 38.64 21.64" />
    <path fill="#a5a6a4" fill-rule="evenodd" d="M 37.96 40.9 L 37.96 41 L 41.34 42.42 L 41.34 42.16 L 37.96 40.9" />
    <path fill="#a5a6a4" fill-rule="evenodd" d="M 39.79 21.35 L 39.16 21.51 L 42.83 22.74 L 43.47 22.58 L 42.57 22.28 L 42.57 22.28 L 39.79 21.35" />
    <path fill="#a5a6a4" fill-rule="evenodd" d="M 37.96 38.89 L 37.96 39.26 L 41.34 40.51 L 41.34 40.13 L 37.96 38.89" />
    <path fill="#a5a6a4" fill-rule="evenodd" d="M 37.99 23.44 L 37.99 23.82 L 41.37 24.96 L 41.37 24.58 L 37.99 23.44" />
    <path fill="#a5a6a4" fill-rule="evenodd" d="M 37.98 28.14 L 37.98 28.51 L 41.36 29.68 L 41.36 29.31 L 37.98 28.14" />
    <path fill="#a5a6a4" fill-rule="evenodd" d="M 37.98 31.5 L 37.98 31.87 L 41.36 33.07 L 41.36 32.69 L 37.98 31.5" />
    <path fill="#a5a6a4" fill-rule="evenodd" d="M 37.97 35.53 L 37.97 35.9 L 41.35 37.13 L 41.35 36.75 L 37.97 35.53" />
    <path fill="#a5a6a4" fill-rule="evenodd" d="M 37.97 32.84 L 37.97 33.21 L 41.35 34.42 L 41.35 34.04 L 37.97 32.84" />
    <path fill="#a5a6a4" fill-rule="evenodd" d="M 37.97 33.51 L 37.97 33.88 L 41.35 35.1 L 41.35 34.72 L 37.97 33.51" />
    <path fill="#a5a6a4" fill-rule="evenodd" d="M 37.97 36.2 L 37.97 36.57 L 41.35 37.8 L 41.35 37.43 L 37.97 36.2" />
    <path fill="#a5a6a4" fill-rule="evenodd" d="M 37.98 32.17 L 37.97 32.54 L 41.35 33.74 L 41.36 33.37 L 37.98 32.17" />
    <path fill="#a5a6a4" fill-rule="evenodd" d="M 37.97 34.86 L 37.97 35.23 L 41.35 36.45 L 41.35 36.07 L 37.97 34.86" />
    <path fill="#a5a6a4" fill-rule="evenodd" d="M 37.98 29.48 L 37.98 29.85 L 41.36 31.04 L 41.36 30.66 L 37.98 29.48" />
    <path fill="#a5a6a4" fill-rule="evenodd" d="M 37.98 30.82 L 37.98 31.2 L 41.36 32.39 L 41.36 32.02 L 37.98 30.82" />
    <path fill="#a5a6a4" fill-rule="evenodd" d="M 37.96 38.21 L 37.96 38.59 L 41.34 39.83 L 41.34 39.46 L 37.96 38.21" />
    <path fill="#a5a6a4" fill-rule="evenodd" d="M 37.98 28.81 L 37.98 29.18 L 41.36 30.36 L 41.36 29.99 L 37.98 28.81" />
    <path fill="#a5a6a4" fill-rule="evenodd" d="M 37.97 36.87 L 37.97 37.24 L 41.35 38.48 L 41.35 38.1 L 37.97 36.87" />
    <path fill="#a5a6a4" fill-rule="evenodd" d="M 37.96 37.54 L 37.96 37.91 L 41.34 39.15 L 41.34 38.78 L 37.96 37.54" />
    <path fill="#a5a6a4" fill-rule="evenodd" d="M 37.98 30.15 L 37.98 30.52 L 41.36 31.71 L 41.36 31.34 L 37.98 30.15" />
    <path fill="#a5a6a4" fill-rule="evenodd" d="M 37.97 34.18 L 37.97 34.56 L 41.35 35.77 L 41.35 35.4 L 37.97 34.18" />
    <path fill="#a5a6a4" fill-rule="evenodd" d="M 47.99 19.28 L 47.33 19.45 L 51.12 20.67 L 51.79 20.51 L 47.99 19.28" />
    <path fill="#a5a6a4" fill-rule="evenodd" d="M 51.52 18.39 L 50.92 18.54 L 54.76 19.77 L 55.09 19.69 L 51.52 18.39" />
    <path fill="#a5a6a4" fill-rule="evenodd" d="M 44.44 20.18 L 43.8 20.34 L 46.31 21.16 L 46.31 21.17 L 47.53 21.57 L 48.19 21.4 L 44.44 20.18" />
    <path fill="#a5a6a4" fill-rule="evenodd" d="M 42.11 20.77 L 41.47 20.93 L 45.17 22.15 L 45.82 21.99 L 42.57 20.92 L 42.57 20.92 L 42.11 20.77" />
    <path fill="#a5a6a4" fill-rule="evenodd" d="M 46.8 19.58 L 46.15 19.74 L 46.31 19.79 L 46.31 19.8 L 49.92 20.97 L 50.58 20.81 L 46.8 19.58" />
    <path fill="#a5a6a4" fill-rule="evenodd" d="M 45.62 19.88 L 44.97 20.04 L 46.31 20.48 L 46.31 20.48 L 48.72 21.27 L 49.38 21.11 L 45.62 19.88" />
    <path fill="#a5a6a4" fill-rule="evenodd" d="M 43.27 20.47 L 42.63 20.63 L 46.31 21.85 L 46.31 21.85 L 46.34 21.86 L 47 21.7 L 43.27 20.47" />
    <path fill="#a5a6a4" fill-rule="evenodd" d="M 49.18 18.98 L 48.52 19.14 L 52.33 20.37 L 53 20.21 L 49.18 18.98" />
    <path fill="#a5a6a4" fill-rule="evenodd" d="M 40.95 21.06 L 40.31 21.22 L 44 22.45 L 44.64 22.29 L 42.57 21.6 L 42.57 21.6 L 40.95 21.06" />
    <path fill="#a5a6a4" fill-rule="evenodd" d="M 50.38 18.67 L 49.71 18.84 L 53.54 20.07 L 54.22 19.9 L 50.38 18.67" />
    <path fill="#a5a6a4" fill-rule="evenodd" d="M 48.7 27.17 L 48.04 27.33 L 51.85 28.61 L 52.52 28.46 L 48.7 27.17" />
    <path fill="#a5a6a4" fill-rule="evenodd" d="M 47.51 27.45 L 46.85 27.61 L 50.64 28.9 L 51.31 28.74 L 47.51 27.45" />
    <path fill="#a5a6a4" fill-rule="evenodd" d="M 51.02 26.62 L 50.43 26.76 L 54.27 28.05 L 54.58 27.98 L 51.02 26.62" />
    <path fill="#a5a6a4" fill-rule="evenodd" d="M 45.14 28.01 L 44.5 28.17 L 46.5 28.85 L 46.49 28.85 L 48.24 29.45 L 48.91 29.3 L 45.14 28.01" />
    <path fill="#a5a6a4" fill-rule="evenodd" d="M 46.32 27.73 L 45.68 27.89 L 46.5 28.17 L 46.49 28.17 L 49.44 29.18 L 50.1 29.02 L 46.32 27.73" />
    <path fill="#a5a6a4" fill-rule="evenodd" d="M 42.8 28.57 L 42.28 28.69 L 43.74 29.27 L 45.88 30 L 46.53 29.85 L 42.8 28.57" />
    <path fill="#a5a6a4" fill-rule="evenodd" d="M 49.9 26.89 L 49.23 27.04 L 53.06 28.33 L 53.73 28.18 L 49.9 26.89" />
    <path fill="#a5a6a4" fill-rule="evenodd" d="M 43.97 28.29 L 43.33 28.44 L 46.5 29.53 L 46.49 29.54 L 47.05 29.73 L 47.71 29.58 L 43.97 28.29" />
    <path fill="#a5a6a4" fill-rule="evenodd" d="M 31.72 31.18 L 31.11 31.33 L 34.66 32.6 L 35.29 32.46 L 31.72 31.18" />
    <path fill="#a5a6a4" fill-rule="evenodd" d="M 30.61 31.45 L 30 31.59 L 33.53 32.86 L 34.16 32.72 L 30.61 31.45" />
    <path fill="#a5a6a4" fill-rule="evenodd" d="M 33.89 30.67 L 33.34 30.8 L 36.93 32.07 L 37.22 32.01 L 33.89 30.67" />
    <path fill="#a5a6a4" fill-rule="evenodd" d="M 28.4 31.97 L 27.8 32.11 L 29.66 32.79 L 29.66 32.79 L 31.3 33.39 L 31.91 33.24 L 28.4 31.97" />
    <path fill="#a5a6a4" fill-rule="evenodd" d="M 29.5 31.71 L 28.9 31.85 L 29.66 32.13 L 29.66 32.13 L 32.41 33.13 L 33.03 32.98 L 29.5 31.71" />
    <path fill="#a5a6a4" fill-rule="evenodd" d="M 26.21 32.49 L 25.72 32.61 L 27.09 33.17 L 29.09 33.9 L 29.69 33.76 L 26.21 32.49" />
    <path fill="#a5a6a4" fill-rule="evenodd" d="M 32.84 30.92 L 32.22 31.06 L 35.79 32.34 L 36.42 32.19 L 32.84 30.92" />
    <path fill="#a5a6a4" fill-rule="evenodd" d="M 27.3 32.23 L 26.7 32.37 L 29.66 33.45 L 29.66 33.45 L 30.18 33.64 L 30.8 33.5 L 27.3 32.23" />
    <path fill="#a5a6a4" fill-rule="evenodd" d="M 2.32 33.81 L 2.31 33.82 C 2.26 33.91 2.2 34 2.15 34.09 L 5.14 35.24 L 5.22 35.1 L 5.27 35.02 L 5.31 34.96 L 2.32 33.81" />
    <path fill="#a5a6a4" fill-rule="evenodd" d="M 6.51 29.76 L 6.41 29.82 L 6.16 29.97 L 9.27 31.14 C 9.34 31.1 9.41 31.06 9.49 31.02 L 9.62 30.94 L 9.64 30.93 L 6.51 29.76" />
    <path fill="#a5a6a4" fill-rule="evenodd" d="M 0.96 43.23 C 1.01 43.37 1.06 43.51 1.12 43.64 L 3.94 44.79 C 3.89 44.66 3.84 44.52 3.79 44.38 L 0.96 43.23" />
    <path fill="#a5a6a4" fill-rule="evenodd" d="M 1.28 43.99 C 1.36 44.14 1.45 44.29 1.53 44.43 L 4.32 45.57 C 4.24 45.43 4.16 45.28 4.09 45.13 L 1.28 43.99" />
    <path fill="#a5a6a4" fill-rule="evenodd" d="M 5.88 30.15 L 5.88 30.15 L 5.76 30.23 C 5.69 30.28 5.62 30.33 5.55 30.37 L 8.65 31.54 L 8.72 31.49 L 8.84 31.41 L 8.98 31.32 L 6.2 30.27 L 6.2 30.27 L 5.88 30.15" />
    <path fill="#a5a6a4" fill-rule="evenodd" d="M 2.01 34.31 L 1.95 34.42 C 1.92 34.48 1.89 34.54 1.86 34.6 L 4.83 35.75 L 4.86 35.7 C 4.89 35.64 4.92 35.59 4.95 35.54 L 4.99 35.47 L 2.01 34.31" />
    <path fill="#a5a6a4" fill-rule="evenodd" d="M 7.22 29.39 C 7.16 29.42 7.1 29.45 7.04 29.48 L 6.92 29.54 L 6.83 29.59 L 9.42 30.56 L 9.41 30.56 L 9.96 30.77 L 10.01 30.74 C 10.13 30.68 10.25 30.62 10.37 30.57 L 7.22 29.39" />
    <path fill="#a5a6a4" fill-rule="evenodd" d="M 0.59 41.84 C 0.61 41.96 0.64 42.09 0.66 42.21 L 3.52 43.37 C 3.5 43.25 3.48 43.12 3.46 43 L 0.59 41.84" />
    <path fill="#a5a6a4" fill-rule="evenodd" d="M 0.74 42.52 C 0.77 42.65 0.81 42.78 0.85 42.91 L 3.69 44.06 C 3.65 43.94 3.62 43.81 3.59 43.68 L 0.74 42.52" />
    <path fill="#a5a6a4" fill-rule="evenodd" d="M 3.42 32.35 C 3.35 32.43 3.28 32.51 3.21 32.59 L 3.19 32.61 L 6.21 33.77 C 6.29 33.68 6.36 33.6 6.43 33.51 L 6.2 33.42 L 6.2 33.42 L 3.42 32.35" />
    <path fill="#a5a6a4" fill-rule="evenodd" d="M 2.66 33.31 L 2.65 33.32 L 2.55 33.46 L 2.47 33.59 L 5.47 34.74 L 5.47 34.74 L 5.57 34.59 L 5.66 34.47 L 2.66 33.31" />
    <path fill="#a5a6a4" fill-rule="evenodd" d="M 3.83 31.89 C 3.76 31.97 3.68 32.04 3.61 32.13 L 3.59 32.14 L 6.63 33.3 C 6.71 33.21 6.79 33.13 6.87 33.04 L 6.2 32.79 L 6.2 32.79 L 3.83 31.89" />
    <path fill="#a5a6a4" fill-rule="evenodd" d="M 0.5 41.18 C 0.52 41.3 0.53 41.42 0.55 41.54 L 3.41 42.7 C 3.4 42.58 3.39 42.46 3.38 42.34 L 0.5 41.18" />
    <path fill="#a5a6a4" fill-rule="evenodd" d="M 4.29 31.43 L 4.14 31.57 L 4.06 31.64 L 4.03 31.68 L 7.07 32.84 C 7.16 32.75 7.24 32.67 7.33 32.59 L 6.2 32.16 L 6.2 32.16 L 4.29 31.43" />
    <path fill="#a5a6a4" fill-rule="evenodd" d="M 4.77 30.99 C 4.71 31.04 4.65 31.09 4.6 31.14 L 4.5 31.23 L 7.55 32.39 C 7.65 32.31 7.74 32.23 7.84 32.15 L 6.2 31.53 L 6.2 31.53 L 4.77 30.99" />
    <path fill="#a5a6a4" fill-rule="evenodd" d="M 1.79 44.81 C 1.91 44.99 2.05 45.16 2.19 45.33 L 4.91 46.44 C 4.78 46.28 4.66 46.12 4.55 45.95 L 1.79 44.81" />
    <path fill="#a5a6a4" fill-rule="evenodd" d="M 5.3 30.56 C 5.22 30.62 5.15 30.68 5.07 30.74 L 5.05 30.75 L 5 30.79 L 8.08 31.95 C 8.17 31.88 8.26 31.81 8.35 31.75 L 8.36 31.74 L 8.38 31.72 L 6.2 30.9 L 6.2 30.9 L 5.3 30.56" />
    <path fill="#a5a6a4" fill-rule="evenodd" d="M 3.02 32.83 L 2.96 32.9 C 2.91 32.97 2.87 33.03 2.82 33.1 L 5.82 34.25 L 5.88 34.17 C 5.93 34.11 5.98 34.05 6.04 33.98 L 3.02 32.83" />
    <path fill="#a5a6a4" fill-rule="evenodd" d="M 2.63 45.79 C 2.73 45.88 2.83 45.97 2.94 46.05 C 3.14 46.22 3.35 46.38 3.56 46.52 L 6.01 47.52 L 5.86 47.41 C 5.66 47.24 5.47 47.06 5.29 46.88 L 2.63 45.79" />
    <path fill="#a5a6a4" fill-rule="evenodd" d="M 1.47 35.35 L 1.46 35.37 L 1.4 35.5 L 1.34 35.64 L 4.3 36.8 L 4.3 36.78 L 4.37 36.65 L 4.43 36.5 L 1.47 35.35" />
    <path fill="#a5a6a4" fill-rule="evenodd" d="M 1.24 35.88 L 1.23 35.91 C 1.2 36 1.17 36.09 1.13 36.18 L 4.08 37.33 L 4.13 37.19 L 4.18 37.08 L 4.2 37.04 L 1.24 35.88" />
    <path fill="#a5a6a4" fill-rule="evenodd" d="M 0.73 37.54 L 0.7 37.68 C 0.69 37.74 0.67 37.8 0.66 37.86 L 3.58 39.01 L 3.59 38.97 C 3.61 38.9 3.62 38.83 3.64 38.75 L 3.66 38.7 L 0.73 37.54" />
    <path fill="#a5a6a4" fill-rule="evenodd" d="M 9.96 28.51 C 9.9 28.53 9.83 28.54 9.76 28.55 L 9.64 28.58 C 9.55 28.6 9.46 28.62 9.37 28.64 L 9.42 28.66 L 9.41 28.66 L 12.61 29.84 L 12.64 29.84 L 12.77 29.81 C 12.86 29.79 12.96 29.77 13.05 29.76 L 13.18 29.74 L 13.26 29.73 L 9.96 28.51" />
    <path fill="#a5a6a4" fill-rule="evenodd" d="M 12.1 28.38 L 15.76 29.72 L 15.89 29.74 L 16.01 29.76 C 16.08 29.78 16.15 29.79 16.22 29.81 L 16.34 29.84 C 16.41 29.86 16.49 29.88 16.56 29.9 L 16.65 29.93 C 16.75 29.96 16.86 29.99 16.96 30.03 C 17.05 30.06 17.14 30.1 17.23 30.13 L 14.16 28.86 C 14.08 28.82 13.99 28.79 13.91 28.76 L 13.9 28.76 C 13.8 28.72 13.7 28.69 13.59 28.65 L 13.51 28.63 C 13.43 28.61 13.36 28.59 13.28 28.57 L 13.17 28.54 C 13.1 28.52 13.03 28.51 12.96 28.5 L 12.84 28.47 C 12.77 28.46 12.7 28.45 12.63 28.44 L 12.56 28.43 L 12.52 28.42 C 12.41 28.41 12.31 28.4 12.2 28.39 L 12.16 28.38 L 12.1 28.38" />
    <path fill="#a5a6a4" fill-rule="evenodd" d="M 0.87 36.97 L 0.87 37 C 0.85 37.07 0.83 37.14 0.81 37.21 L 0.79 37.29 L 3.72 38.44 L 3.76 38.29 C 3.78 38.24 3.79 38.18 3.81 38.13 L 0.87 36.97" />
    <path fill="#a5a6a4" fill-rule="evenodd" d="M 0.46 40.54 C 0.46 40.66 0.47 40.78 0.48 40.89 L 3.36 42.05 C 3.35 41.94 3.35 41.82 3.34 41.7 L 0.46 40.54" />
    <path fill="#a5a6a4" fill-rule="evenodd" d="M 1.05 36.43 L 1 36.55 C 0.99 36.61 0.97 36.67 0.95 36.72 L 3.89 37.88 L 3.9 37.83 C 3.93 37.75 3.95 37.67 3.98 37.59 L 3.99 37.58 L 1.05 36.43" />
    <path fill="#a5a6a4" fill-rule="evenodd" d="M 0.61 38.12 L 0.61 38.14 C 0.59 38.23 0.58 38.33 0.57 38.42 L 0.57 38.44 L 3.48 39.6 C 3.48 39.54 3.49 39.49 3.5 39.44 C 3.51 39.38 3.52 39.33 3.53 39.27 L 0.61 38.12" />
    <path fill="#a5a6a4" fill-rule="evenodd" d="M 11.29 28.37 C 11.2 28.37 11.12 28.37 11.03 28.38 L 10.94 28.38 C 10.81 28.39 10.69 28.41 10.56 28.42 L 10.5 28.43 L 13.84 29.66 L 13.96 29.65 L 14.05 29.64 C 14.15 29.63 14.25 29.63 14.34 29.63 L 14.46 29.62 C 14.49 29.62 14.53 29.62 14.56 29.62 C 14.61 29.62 14.67 29.62 14.72 29.63 L 11.29 28.37" />
    <path fill="#a5a6a4" fill-rule="evenodd" d="M 8.01 29.06 L 7.96 29.08 L 7.83 29.13 C 7.74 29.16 7.65 29.2 7.57 29.24 L 9.42 29.92 L 9.41 29.93 L 10.73 30.42 L 10.81 30.39 L 10.94 30.34 C 11.03 30.3 11.11 30.27 11.2 30.24 L 8.01 29.06" />
    <path fill="#a5a6a4" fill-rule="evenodd" d="M 0.48 39.3 L 0.46 39.58 L 0.46 39.64 L 3.35 40.8 L 3.36 40.71 C 3.36 40.62 3.37 40.54 3.37 40.46 L 0.48 39.3" />
    <path fill="#a5a6a4" fill-rule="evenodd" d="M 0.45 39.92 L 0.45 40.06 C 0.45 40.13 0.45 40.19 0.45 40.26 L 3.34 41.42 L 3.34 41.37 C 3.34 41.27 3.34 41.17 3.34 41.07 L 0.45 39.92" />
    <path fill="#a5a6a4" fill-rule="evenodd" d="M 8.91 28.76 L 8.81 28.79 L 8.68 28.83 C 8.59 28.86 8.5 28.89 8.41 28.92 L 9.42 29.29 L 9.41 29.3 L 11.61 30.11 L 11.67 30.09 L 11.81 30.05 C 11.92 30.01 12.03 29.98 12.15 29.95 L 8.91 28.76" />
    <path fill="#a5a6a4" fill-rule="evenodd" d="M 1.73 34.82 L 1.68 34.91 L 1.66 34.97 L 1.6 35.09 L 1.58 35.11 L 4.55 36.27 L 4.56 36.25 L 4.64 36.1 L 4.7 35.98 L 1.73 34.82" />
    <path fill="#a5a6a4" fill-rule="evenodd" d="M 0.53 38.7 C 0.52 38.77 0.52 38.84 0.51 38.91 L 0.5 39.03 L 3.4 40.19 C 3.41 40.1 3.42 40.01 3.43 39.91 L 3.44 39.86 L 0.53 38.7" />
    <path fill="#a5a6a4" fill-rule="evenodd" d="M 14.23 38.16 L 14.21 38.24 C 14.2 38.3 14.19 38.36 14.18 38.41 L 14.16 38.49 L 17.25 39.68 L 17.27 39.58 L 17.3 39.44 L 17.31 39.35 L 14.23 38.16" />
    <path fill="#a5a6a4" fill-rule="evenodd" d="M 14.1 38.75 L 14.07 38.85 C 14.05 38.9 14.04 38.96 14.02 39.02 L 14 39.07 L 17.11 40.27 L 17.13 40.19 L 17.17 40.05 L 17.19 39.95 L 14.1 38.75" />
    <path fill="#a5a6a4" fill-rule="evenodd" d="M 13.92 39.32 L 13.88 39.43 C 13.86 39.5 13.83 39.56 13.8 39.63 L 16.91 40.84 L 16.94 40.77 L 16.96 40.74 L 17.03 40.53 L 13.92 39.32" />
    <path fill="#a5a6a4" fill-rule="evenodd" d="M 13.7 39.88 L 13.69 39.91 C 13.65 40 13.6 40.09 13.56 40.17 L 16.68 41.39 L 16.74 41.25 L 16.78 41.18 L 16.81 41.09 L 13.7 39.88" />
    <path fill="#a5a6a4" fill-rule="evenodd" d="M 14.23 35.61 C 14.25 35.73 14.27 35.86 14.29 35.99 L 17.33 37.14 C 17.31 37.01 17.29 36.89 17.26 36.76 L 14.23 35.61" />
    <path fill="#a5a6a4" fill-rule="evenodd" d="M 13.44 40.41 C 13.39 40.5 13.34 40.58 13.29 40.67 L 13.27 40.7 L 16.39 41.92 C 16.44 41.85 16.48 41.78 16.52 41.7 L 16.54 41.67 L 16.54 41.66 L 16.56 41.63 L 13.44 40.41" />
    <path fill="#a5a6a4" fill-rule="evenodd" d="M 14.05 34.9 C 14.09 35.03 14.13 35.16 14.16 35.3 L 17.18 36.44 C 17.14 36.3 17.1 36.17 17.05 36.04 L 14.05 34.9" />
    <path fill="#a5a6a4" fill-rule="evenodd" d="M 14.32 36.28 C 14.33 36.4 14.33 36.52 14.34 36.64 L 17.4 37.81 C 17.39 37.69 17.38 37.57 17.37 37.45 L 14.32 36.28" />
    <path fill="#a5a6a4" fill-rule="evenodd" d="M 14.31 37.56 L 14.3 37.61 C 14.29 37.67 14.29 37.74 14.28 37.8 L 14.27 37.89 L 17.35 39.08 L 17.37 38.94 L 17.38 38.82 L 17.38 38.74 L 14.31 37.56" />
    <path fill="#a5a6a4" fill-rule="evenodd" d="M 13.13 40.93 C 13.09 40.99 13.06 41.04 13.02 41.1 L 12.94 41.21 L 16.07 42.44 C 16.14 42.35 16.2 42.25 16.26 42.16 L 13.13 40.93" />
    <path fill="#a5a6a4" fill-rule="evenodd" d="M 10.14 43.57 C 10.09 43.59 10.04 43.61 9.98 43.63 L 9.94 43.65 C 9.85 43.68 9.77 43.71 9.69 43.73 L 11.36 44.4 L 11.36 44.41 L 12.9 45.02 L 12.95 45.01 L 12.99 44.99 C 13.1 44.95 13.21 44.91 13.31 44.86 L 13.34 44.85 L 10.14 43.57" />
    <path fill="#a5a6a4" fill-rule="evenodd" d="M 9.26 43.85 L 9.22 43.86 C 9.08 43.89 8.95 43.91 8.81 43.93 L 8.69 43.95 L 8.66 43.95 L 11.36 45.04 L 11.36 45.04 L 11.92 45.27 C 12.02 45.26 12.12 45.24 12.22 45.22 C 12.31 45.2 12.4 45.17 12.49 45.15 L 9.26 43.85" />
    <path fill="#a5a6a4" fill-rule="evenodd" d="M 10.85 43.21 L 10.7 43.3 L 10.64 43.34 C 10.59 43.36 10.53 43.39 10.48 43.41 L 11.36 43.77 L 11.36 43.77 L 13.66 44.69 L 13.7 44.67 L 13.72 44.66 C 13.82 44.6 13.92 44.54 14.02 44.48 L 10.85 43.21" />
    <path fill="#a5a6a4" fill-rule="evenodd" d="M 11.44 42.81 L 11.42 42.84 L 11.42 42.84 C 11.32 42.91 11.23 42.97 11.13 43.04 L 11.36 43.13 L 11.36 43.13 L 14.29 44.3 C 14.34 44.26 14.39 44.23 14.44 44.19 L 14.45 44.19 L 14.6 44.07 L 11.44 42.81" />
    <path fill="#a5a6a4" fill-rule="evenodd" d="M 13.71 34.13 C 13.79 34.27 13.86 34.42 13.92 34.57 L 16.9 35.69 C 16.83 35.54 16.75 35.39 16.66 35.24 L 13.71 34.13" />
    <path fill="#a5a6a4" fill-rule="evenodd" d="M 12.39 41.92 C 12.34 41.97 12.3 42.02 12.25 42.07 L 12.21 42.11 L 12.15 42.18 L 15.3 43.42 C 15.37 43.34 15.45 43.25 15.53 43.16 L 15.53 43.16 L 12.39 41.92" />
    <path fill="#a5a6a4" fill-rule="evenodd" d="M 12.78 41.43 C 12.71 41.53 12.64 41.62 12.57 41.7 L 15.71 42.94 C 15.77 42.86 15.83 42.78 15.89 42.7 L 15.92 42.67 L 12.78 41.43" />
    <path fill="#a5a6a4" fill-rule="evenodd" d="M 11.95 42.38 L 11.94 42.39 C 11.88 42.45 11.81 42.5 11.75 42.56 L 11.68 42.62 L 14.83 43.87 L 14.97 43.74 L 15.02 43.7 L 15.05 43.67 L 15.09 43.63 L 11.95 42.38" />
    <path fill="#a5a6a4" fill-rule="evenodd" d="M 14.34 36.93 C 14.34 37.01 14.34 37.09 14.33 37.17 L 14.33 37.27 L 17.4 38.45 C 17.4 38.36 17.41 38.27 17.41 38.18 L 17.4 38.1 L 14.34 36.93" />
    <path fill="#a5a6a4" fill-rule="evenodd" d="M 13.07 33.25 C 13.22 33.41 13.36 33.58 13.49 33.76 L 16.38 34.85 C 16.24 34.67 16.08 34.5 15.91 34.34 L 15.86 34.3 L 13.07 33.25" />
    <path fill="#a5a6a4" fill-rule="evenodd" d="M 21.71 29.44 L 21.71 29.8 L 24.87 30.95 L 24.87 30.59 L 21.71 29.44" />
    <path fill="#a5a6a4" fill-rule="evenodd" d="M 21.68 43.73 L 21.68 44.09 L 24.84 45.33 L 24.84 44.97 L 21.68 43.73" />
    <path fill="#a5a6a4" fill-rule="evenodd" d="M 21.7 30.09 L 21.7 30.45 L 24.87 31.6 L 24.87 31.24 L 21.7 30.09" />
    <path fill="#a5a6a4" fill-rule="evenodd" d="M 21.7 31.39 L 21.7 31.75 L 24.86 32.9 L 24.86 32.55 L 21.7 31.39" />
    <path fill="#a5a6a4" fill-rule="evenodd" d="M 21.71 28.8 L 21.71 29.16 L 24.87 30.3 L 24.87 29.93 L 21.71 28.8" />
    <path fill="#a5a6a4" fill-rule="evenodd" d="M 21.7 30.74 L 21.7 31.1 L 24.87 32.25 L 24.87 31.9 L 21.7 30.74" />
    <path fill="#a5a6a4" fill-rule="evenodd" d="M 21.68 43.08 L 21.68 43.44 L 24.84 44.68 L 24.84 44.32 L 21.68 43.08" />
    <path fill="#a5a6a4" fill-rule="evenodd" d="M 21.71 26.2 L 21.71 26.56 L 24.87 27.68 L 24.87 27.32 L 21.71 26.2" />
    <path fill="#a5a6a4" fill-rule="evenodd" d="M 21.71 28.14 L 21.71 28.5 L 24.87 29.64 L 24.87 29.28 L 21.71 28.14" />
    <path fill="#a5a6a4" fill-rule="evenodd" d="M 21.71 26.85 L 21.71 27.21 L 24.87 28.33 L 24.87 27.97 L 21.71 26.85" />
    <path fill="#a5a6a4" fill-rule="evenodd" d="M 22.32 25.76 L 21.73 25.91 L 25.14 27.12 L 25.75 26.97 L 22.32 25.76" />
    <path fill="#a5a6a4" fill-rule="evenodd" d="M 21.68 44.38 L 21.68 44.48 L 24.84 45.88 L 24.84 45.62 L 21.68 44.38" />
    <path fill="#a5a6a4" fill-rule="evenodd" d="M 23.4 25.49 L 22.8 25.64 L 26.23 26.85 L 26.83 26.7 L 25.99 26.41 L 26 26.4 L 23.4 25.49" />
    <path fill="#a5a6a4" fill-rule="evenodd" d="M 21.68 42.43 L 21.68 42.79 L 24.84 44.02 L 24.84 43.66 L 21.68 42.43" />
    <path fill="#a5a6a4" fill-rule="evenodd" d="M 21.71 27.5 L 21.71 27.86 L 24.87 28.99 L 24.87 28.63 L 21.71 27.5" />
    <path fill="#a5a6a4" fill-rule="evenodd" d="M 21.7 32.04 L 21.7 32.4 L 24.86 33.56 L 24.86 33.2 L 21.7 32.04" />
    <path fill="#a5a6a4" fill-rule="evenodd" d="M 21.69 35.29 L 21.69 35.65 L 24.86 36.83 L 24.86 36.47 L 21.69 35.29" />
    <path fill="#a5a6a4" fill-rule="evenodd" d="M 21.69 39.18 L 21.69 39.54 L 24.85 40.75 L 24.85 40.39 L 21.69 39.18" />
    <path fill="#a5a6a4" fill-rule="evenodd" d="M 21.69 36.59 L 21.69 36.95 L 24.85 38.14 L 24.85 37.78 L 21.69 36.59" />
    <path fill="#a5a6a4" fill-rule="evenodd" d="M 21.69 37.24 L 21.69 37.6 L 24.85 38.79 L 24.85 38.43 L 21.69 37.24" />
    <path fill="#a5a6a4" fill-rule="evenodd" d="M 21.69 39.83 L 21.69 40.19 L 24.85 41.41 L 24.85 41.05 L 21.69 39.83" />
    <path fill="#a5a6a4" fill-rule="evenodd" d="M 21.69 35.94 L 21.69 36.3 L 24.85 37.48 L 24.86 37.12 L 21.69 35.94" />
    <path fill="#a5a6a4" fill-rule="evenodd" d="M 21.69 38.53 L 21.69 38.89 L 24.85 40.1 L 24.85 39.74 L 21.69 38.53" />
    <path fill="#a5a6a4" fill-rule="evenodd" d="M 21.7 33.34 L 21.7 33.7 L 24.86 34.87 L 24.86 34.5 L 21.7 33.34" />
    <path fill="#a5a6a4" fill-rule="evenodd" d="M 21.7 34.64 L 21.69 35 L 24.86 36.18 L 24.86 35.81 L 21.7 34.64" />
    <path fill="#a5a6a4" fill-rule="evenodd" d="M 21.68 41.78 L 21.68 42.14 L 24.84 43.37 L 24.84 43.01 L 21.68 41.78" />
    <path fill="#a5a6a4" fill-rule="evenodd" d="M 21.7 32.69 L 21.7 33.05 L 24.86 34.21 L 24.86 33.85 L 21.7 32.69" />
    <path fill="#a5a6a4" fill-rule="evenodd" d="M 21.68 40.48 L 21.68 40.84 L 24.85 42.06 L 24.85 41.7 L 21.68 40.48" />
    <path fill="#a5a6a4" fill-rule="evenodd" d="M 21.68 41.13 L 21.68 41.49 L 24.84 42.72 L 24.85 42.35 L 21.68 41.13" />
    <path fill="#a5a6a4" fill-rule="evenodd" d="M 21.7 33.99 L 21.7 34.35 L 24.86 35.52 L 24.86 35.16 L 21.7 33.99" />
    <path fill="#a5a6a4" fill-rule="evenodd" d="M 21.69 37.88 L 21.69 38.25 L 24.85 39.45 L 24.85 39.08 L 21.69 37.88" />
    <path fill="#a5a6a4" fill-rule="evenodd" d="M 31.06 23.55 L 30.44 23.7 L 33.98 24.92 L 34.61 24.77 L 31.06 23.55" />
    <path fill="#a5a6a4" fill-rule="evenodd" d="M 34.36 22.71 L 33.79 22.86 L 37.39 24.08 L 37.69 24 L 34.36 22.71" />
    <path fill="#a5a6a4" fill-rule="evenodd" d="M 27.74 24.39 L 27.14 24.54 L 29.49 25.35 L 29.48 25.36 L 30.63 25.76 L 31.24 25.6 L 27.74 24.39" />
    <path fill="#a5a6a4" fill-rule="evenodd" d="M 25.56 24.94 L 24.96 25.09 L 28.43 26.3 L 29.03 26.15 L 25.99 25.09 L 26 25.09 L 25.56 24.94" />
    <path fill="#a5a6a4" fill-rule="evenodd" d="M 29.95 23.83 L 29.34 23.98 L 29.49 24.03 L 29.48 24.04 L 32.86 25.2 L 33.48 25.05 L 29.95 23.83" />
    <path fill="#a5a6a4" fill-rule="evenodd" d="M 28.84 24.11 L 28.24 24.26 L 29.49 24.69 L 29.48 24.7 L 31.74 25.48 L 32.36 25.33 L 28.84 24.11" />
    <path fill="#a5a6a4" fill-rule="evenodd" d="M 26.64 24.67 L 26.05 24.82 L 29.49 26.02 L 29.48 26.02 L 29.52 26.03 L 30.13 25.88 L 26.64 24.67" />
    <path fill="#a5a6a4" fill-rule="evenodd" d="M 32.17 23.27 L 31.55 23.42 L 35.11 24.64 L 35.74 24.48 L 32.17 23.27" />
    <path fill="#a5a6a4" fill-rule="evenodd" d="M 24.48 25.21 L 23.88 25.37 L 27.33 26.58 L 27.93 26.43 L 25.99 25.75 L 26 25.75 L 24.48 25.21" />
    <path fill="#a5a6a4" fill-rule="evenodd" d="M 33.29 22.98 L 32.67 23.14 L 36.25 24.36 L 36.88 24.2 L 33.29 22.98" />
    <path fill="#343534" fill-rule="evenodd" d="M 15.38 52.19 L 14.8 52.87 L 14.77 68.62 L 15.54 69.25 L 18.92 68.69 L 19.51 68.02 L 19.54 52.11 L 18.76 51.51 L 15.38 52.19" />
    <path fill="#343534" fill-rule="evenodd" d="M 6.98 66.29 L 7 54.62 L 6.26 54.03 L 3.06 54.67 L 2.51 55.33 L 2.48 70.68 L 3.21 71.29 L 12.67 69.72 L 13.24 69.06 L 13.25 65.94 L 12.49 65.33 L 6.98 66.29" />
    <path fill="#343534" fill-rule="evenodd" d="M 34.1 48.42 L 33.48 49.14 L 33.46 57.72 L 26.91 50.21 L 26.25 50 L 22.99 50.66 L 22.39 51.35 L 22.36 67.36 L 23.15 67.99 L 26.64 67.41 L 27.25 66.73 L 27.27 58.54 L 33.6 65.92 L 34.27 66.15 L 37.92 65.54 L 38.56 64.85 L 38.59 48.31 L 37.75 47.69 L 34.1 48.42" />
    <path fill="#343534" fill-rule="evenodd" d="M 54.98 57.93 L 46.94 59.33 L 46.94 57.25 L 54.04 55.98 L 54.72 55.24 L 54.73 52 L 53.83 51.35 L 46.95 52.64 L 46.96 50.58 L 54.94 49.05 L 55.62 48.31 L 55.62 44.91 L 54.73 44.27 L 42.32 46.77 L 41.68 47.5 L 41.64 64.14 L 42.5 64.79 L 55.19 62.69 L 55.87 61.96 L 55.88 58.58 L 54.98 57.93" />
    <path fill="#343534" fill-rule="evenodd" d="M 19.22 30.5 C 17.29 29 14.91 28.6 12.15 29.3 C 9.46 29.97 7.19 31.49 5.39 33.81 C 3.61 36.11 2.71 38.67 2.7 41.43 C 2.7 44.22 3.61 46.4 5.42 47.91 C 6.93 49.16 8.74 49.72 10.85 49.57 C 11.32 49.54 11.8 49.47 12.3 49.37 C 15.02 48.8 17.36 47.34 19.26 45.01 C 21.16 42.67 22.14 40.02 22.14 37.15 C 22.15 34.23 21.16 31.99 19.22 30.5 L 19.22 30.5 Z M 16.73 38.21 C 16.73 39.72 16.28 41.07 15.36 42.32 C 14.46 43.55 13.4 44.28 12.13 44.55 C 10.91 44.82 9.91 44.57 9.09 43.8 C 8.23 42.99 7.82 41.89 7.82 40.45 C 7.82 38.99 8.27 37.62 9.15 36.38 C 10.03 35.15 11.07 34.4 12.34 34.1 C 12.54 34.05 12.74 34.02 12.93 34 C 13.9 33.89 14.72 34.16 15.42 34.81 C 16.31 35.62 16.74 36.73 16.73 38.21 L 16.73 38.21 Z M 16.73 38.21" />
    <path fill="#343534" fill-rule="evenodd" d="M 29.03 45.69 L 29.64 44.98 L 29.66 38.16 L 37.33 36.44 L 37.96 35.71 L 37.97 31.94 L 37.13 31.35 L 29.67 33.1 L 29.67 30.38 L 37.79 28.44 L 38.42 27.69 L 38.43 23.93 L 37.59 23.35 L 24.78 26.55 L 24.18 27.28 L 24.14 45.94 L 24.94 46.54 L 29.03 45.69" />
    <path fill="#343534" fill-rule="evenodd" d="M 46.43 41.45 L 46.44 34.4 L 54.66 32.56 L 55.34 31.8 L 55.34 27.9 L 54.45 27.3 L 46.45 29.17 L 46.46 26.36 L 55.14 24.27 L 55.82 23.5 L 55.83 19.6 L 54.93 19.01 L 41.23 22.44 L 40.59 23.19 L 40.55 42.49 L 41.4 43.1 L 45.77 42.19 L 46.43 41.45" />
    <path fill="#e2642a" fill-rule="evenodd" d="M 8.18 80.26 C 8.18 81.08 8.16 81.61 8.11 81.87 C 8.03 82.43 7.8 82.89 7.44 83.26 C 6.97 83.73 6.33 83.96 5.5 83.96 L 2.86 83.96 L 2.86 76.62 L 5.5 76.62 C 6.33 76.62 6.97 76.85 7.44 77.32 C 7.8 77.68 8.03 78.14 8.11 78.68 C 8.16 78.93 8.18 79.45 8.18 80.26 L 8.18 80.26 Z M 6.75 80.26 C 6.75 79.67 6.73 79.25 6.7 79.01 C 6.65 78.73 6.57 78.51 6.44 78.35 C 6.19 78.05 5.84 77.9 5.37 77.9 L 4.29 77.9 L 4.29 82.68 L 5.37 82.68 C 5.84 82.68 6.19 82.53 6.44 82.23 C 6.57 82.07 6.65 81.84 6.7 81.54 C 6.73 81.28 6.75 80.86 6.75 80.26 L 6.75 80.26 Z M 6.75 80.26" />
    <path fill="#e2642a" fill-rule="evenodd" d="M 13.59 83.96 L 12.29 83.96 L 12.29 83.5 C 11.94 83.84 11.51 84.01 10.97 84.01 C 10.37 84.01 9.92 83.86 9.61 83.55 C 9.31 83.24 9.16 82.83 9.16 82.33 C 9.16 81.88 9.32 81.5 9.63 81.21 C 9.94 80.92 10.39 80.77 10.99 80.77 L 12.25 80.77 L 12.25 80.5 C 12.25 79.94 11.91 79.66 11.25 79.66 C 10.82 79.66 10.48 79.81 10.23 80.1 L 9.38 79.27 C 9.63 78.99 9.91 78.79 10.21 78.68 C 10.48 78.58 10.85 78.52 11.31 78.52 C 12.83 78.52 13.59 79.16 13.59 80.42 L 13.59 83.96 L 13.59 83.96 Z M 12.25 81.98 L 12.25 81.69 L 11.19 81.69 C 10.7 81.69 10.45 81.89 10.45 82.3 C 10.45 82.71 10.7 82.92 11.21 82.92 C 11.67 82.92 11.97 82.8 12.12 82.58 C 12.2 82.45 12.25 82.25 12.25 81.98 L 12.25 81.98 Z M 12.25 81.98" />
    <path fill="#e2642a" fill-rule="evenodd" d="M 19.3 78.59 L 17.01 84.82 C 16.9 85.13 16.77 85.36 16.61 85.52 C 16.34 85.79 15.95 85.93 15.46 85.93 L 14.94 85.93 L 14.94 84.72 L 15.25 84.72 C 15.44 84.72 15.59 84.69 15.68 84.62 C 15.77 84.55 15.85 84.42 15.91 84.24 L 16.14 83.58 L 14.31 78.59 L 15.72 78.59 L 16.83 81.91 L 17.9 78.59 L 19.3 78.59" />
    <path fill="#e2642a" fill-rule="evenodd" d="M 21.44 77.9 L 20.04 78.96 L 20.04 76.62 L 21.44 76.62 L 21.44 77.9" />
    <path fill="#e2642a" fill-rule="evenodd" d="M 26.05 83.96 L 24.7 83.96 L 24.7 78.06 L 23.22 79.36 L 23.22 77.92 L 24.7 76.62 L 26.05 76.62 L 26.05 83.96" />
    <path fill="#e2642a" fill-rule="evenodd" d="M 32.81 81.48 C 32.81 81.93 32.77 82.29 32.68 82.56 C 32.59 82.88 32.41 83.17 32.16 83.42 C 31.76 83.82 31.22 84.02 30.55 84.02 C 29.85 84.02 29.3 83.82 28.91 83.43 C 28.57 83.09 28.37 82.58 28.32 81.91 L 29.65 81.91 C 29.72 82.51 30.02 82.81 30.54 82.81 C 30.81 82.81 31.02 82.74 31.17 82.58 C 31.37 82.38 31.46 82.02 31.46 81.48 C 31.46 80.6 31.16 80.16 30.57 80.16 C 30.11 80.16 29.81 80.36 29.68 80.76 L 28.47 80.76 L 28.47 76.62 L 32.64 76.62 L 32.64 77.82 L 29.68 77.82 L 29.68 79.4 C 29.94 79.15 30.31 79.03 30.78 79.03 C 31.37 79.03 31.82 79.2 32.15 79.53 C 32.59 79.97 32.81 80.62 32.81 81.48" />
</svg>