<?xml version="1.0" encoding="utf-8"?>
<!-- Generator: Avocode 2.4.1-9839e14 - http://avocode.com -->
<svg height="17" width="22" xmlns:xlink="http://www.w3.org/1999/xlink" xmlns="http://www.w3.org/2000/svg" viewBox="0 0 22 17">
    <path fill="#ff6b00" fill-rule="evenodd" d="M 0 15 L 0 17 L 10 17 L 10 15 C 10 12.58 8.28 10.56 6 10.1 L 6 9.86 C 7.72 9.41 9 7.86 9 6 L 9 4 C 9 1.79 7.21 0 5 0 C 2.79 0 1 1.79 1 4 L 1 6 C 1 7.86 2.28 9.41 4 9.86 L 4 10.1 C 1.72 10.56 0 12.58 0 15 L 0 15 Z M 3 6 L 3 4 C 3 2.9 3.9 2 5 2 C 6.1 2 7 2.9 7 4 L 7 6 C 7 7.1 6.1 8 5 8 C 3.9 8 3 7.1 3 6 L 3 6 Z M 5 12 C 6.65 12 8 13.35 8 15 L 2 15 C 2 13.35 3.35 12 5 12 L 5 12 Z M 5 12" />
    <path fill="#ff6b00" fill-rule="evenodd" d="M 12 15 L 12 17 L 22 17 L 22 15 C 22 12.58 20.28 10.56 18 10.1 L 18 9.86 C 19.72 9.41 21 7.86 21 6 L 21 4 C 21 1.79 19.21 0 17 0 C 14.79 0 13 1.79 13 4 L 13 6 C 13 7.86 14.28 9.41 16 9.86 L 16 10.1 C 13.72 10.56 12 12.58 12 15 L 12 15 Z M 15 6 L 15 4 C 15 2.9 15.9 2 17 2 C 18.1 2 19 2.9 19 4 L 19 6 C 19 7.1 18.1 8 17 8 C 15.9 8 15 7.1 15 6 L 15 6 Z M 17 12 C 18.65 12 20 13.35 20 15 L 14 15 C 14 13.35 15.35 12 17 12 L 17 12 Z M 17 12" />
</svg>