<?xml version="1.0" encoding="utf-8"?>
<!-- Generator: Avocode 2.4.1-9839e14 - http://avocode.com -->
<svg height="18" width="19" xmlns:xlink="http://www.w3.org/1999/xlink" xmlns="http://www.w3.org/2000/svg" viewBox="0 0 19 18">
    <path fill="#ffffff" fill-rule="evenodd" d="M 1.5 10 L 8.5 10 L 8.5 17 C 8.5 17.55 8.95 18 9.5 18 C 10.05 18 10.5 17.55 10.5 17 L 10.5 10 L 17.5 10 C 18.05 10 18.5 9.55 18.5 9 C 18.5 8.45 18.05 8 17.5 8 L 10.5 8 L 10.5 1 C 10.5 0.45 10.05 0 9.5 0 C 8.95 0 8.5 0.45 8.5 1 L 8.5 8 L 1.5 8 C 0.95 8 0.5 8.45 0.5 9 C 0.5 9.55 0.95 10 1.5 10" />
</svg>