<?xml version="1.0" encoding="UTF-8" standalone="no"?>
<svg width="327px" height="423px" viewBox="0 0 327 423" version="1.1" xmlns="http://www.w3.org/2000/svg" xmlns:xlink="http://www.w3.org/1999/xlink" xmlns:sketch="http://www.bohemiancoding.com/sketch/ns">
    <!-- Generator: bin/sketchtool 1.4 (311) - http://www.bohemiancoding.com/sketch -->
    <title>Robotas</title>
    <desc>Created with bin/sketchtool.</desc>
    <defs></defs>
    <g id="Page-1" stroke="none" stroke-width="1" fill="none" fill-rule="evenodd" sketch:type="MSPage">
        <g id="Desktop-HD" sketch:type="MSArtboardGroup" transform="translate(-619.000000, 0.000000)" fill="#FF6B00">
            <g id="Robotas" sketch:type="MSLayerGroup" transform="translate(770.500000, 44.500000) rotate(-180.000000) translate(-770.500000, -44.500000) translate(595.000000, -334.000000)">
                <path d="M326.872191,681.215505 L326.872191,411.126323 C326.872191,395.013655 313.795721,381.938155 297.701338,381.938155 L276.935559,381.938155 C272.926588,374.976614 265.459235,370.261509 256.868338,370.261509 L221.885338,370.261509 L221.885338,358.567636 L233.545765,358.567636 C246.439853,358.567636 256.868338,348.126186 256.868338,335.216068 L256.868338,323.541145 L262.718338,323.541145 C272.338147,323.541145 280.209838,315.659668 280.209838,306.00895 L280.209838,282.657382 C280.209838,273.025614 272.338147,265.144136 262.718338,265.144136 L256.868338,265.144136 L256.868338,253.450264 C256.868338,240.559095 246.439853,230.098695 233.545765,230.098695 L128.558912,230.098695 C115.664824,230.098695 105.236338,240.559095 105.236338,253.450264 L105.236338,265.144136 L99.4052647,265.144136 C89.76825,265.144136 81.8948382,273.025614 81.8948382,282.657382 L81.8948382,306.00895 C81.8948382,315.659668 89.76825,323.541145 99.4052647,323.541145 L105.236338,323.541145 L105.236338,335.216068 C105.236338,348.126186 115.664824,358.567636 128.558912,358.567636 L140.219338,358.567636 L140.219338,370.261509 L105.236338,370.261509 C96.6643676,370.261509 89.1970147,374.976614 85.1691176,381.938155 L52.7429118,381.938155 C43.0491176,381.938155 35.2324853,374.054955 35.2324853,364.405959 L35.2324853,75.9197727 C48.5309118,73.1754682 58.5722647,61.3713409 58.5722647,47.3018273 L58.5722647,29.7696318 C58.5722647,26.5653591 55.9432059,23.9313091 52.7429118,23.9313091 L46.9118382,23.9313091 L46.9118382,6.41806364 C46.9118382,3.21379091 44.2810588,0.579740909 41.0807647,0.579740909 C37.8632647,0.579740909 35.2324853,3.21379091 35.2324853,6.41806364 L35.2324853,23.9313091 L23.5703382,23.9313091 L23.5703382,6.41806364 C23.5703382,3.21379091 20.9584853,0.579740909 17.7409853,0.579740909 C14.5406912,0.579740909 11.9099118,3.21379091 11.9099118,6.41806364 L11.9099118,23.9313091 L6.07883824,23.9313091 C2.85961765,23.9313091 0.247764706,26.5653591 0.247764706,29.7696318 L0.247764706,47.3018273 C0.247764706,61.3713409 10.2736324,73.1754682 23.5703382,75.9197727 L23.5703382,364.405959 C23.5703382,380.537577 36.6485294,393.613077 52.7429118,393.613077 L81.8948382,393.613077 L81.8948382,452.010086 C81.8948382,464.920205 92.34225,475.380605 105.236338,475.380605 L128.558912,475.380605 L128.558912,510.996268 C108.840971,513.850827 93.5569853,530.738723 93.5569853,551.290859 L93.5569853,574.642427 C93.5569853,577.86565 96.1860441,580.48075 99.4052647,580.48075 L169.391912,580.48075 C172.592206,580.48075 175.221265,577.86565 175.221265,574.642427 L175.221265,551.290859 C175.221265,530.738723 159.937279,513.850827 140.219338,510.996268 L140.219338,475.380605 L221.885338,475.380605 L221.885338,510.996268 C202.167397,513.850827 186.883412,530.738723 186.883412,551.290859 L186.883412,574.642427 C186.883412,577.86565 189.512471,580.48075 192.714485,580.48075 L262.718338,580.48075 C265.918632,580.48075 268.547691,577.86565 268.547691,574.642427 L268.547691,551.290859 C268.547691,530.738723 253.263706,513.850827 233.545765,510.996268 L233.545765,475.380605 L256.868338,475.380605 C269.762426,475.380605 280.209838,464.920205 280.209838,452.010086 L280.209838,393.613077 L297.701338,393.613077 C307.321147,393.613077 315.211765,401.496277 315.211765,411.126323 L315.211765,681.215505 C301.913338,683.959809 291.870265,695.763936 291.870265,709.83345 L291.870265,727.346695 C291.870265,730.569918 294.501044,733.203968 297.701338,733.203968 L303.532412,733.203968 L303.532412,750.717214 C303.532412,753.921486 306.161471,756.555536 309.363485,756.555536 C312.580985,756.555536 315.211765,753.921486 315.211765,750.717214 L315.211765,733.203968 L326.872191,733.203968 L326.872191,750.717214 C326.872191,753.921486 329.484044,756.555536 332.703265,756.555536 C335.903559,756.555536 338.534338,753.921486 338.534338,750.717214 L338.534338,733.203968 L344.365412,733.203968 C347.565706,733.203968 350.194765,730.569918 350.194765,727.346695 L350.194765,709.83345 C350.194765,695.763936 340.170618,683.959809 326.872191,681.215505 L326.872191,681.215505 Z M256.868338,276.819059 L262.718338,276.819059 C265.918632,276.819059 268.547691,279.453109 268.547691,282.657382 L268.547691,306.00895 C268.547691,309.232173 265.918632,311.8645 262.718338,311.8645 L256.868338,311.8645 L256.868338,276.819059 L256.868338,276.819059 Z M105.236338,311.8645 L99.4052647,311.8645 C96.1860441,311.8645 93.5569853,309.232173 93.5569853,306.00895 L93.5569853,282.657382 C93.5569853,279.453109 96.1860441,276.819059 99.4052647,276.819059 L105.236338,276.819059 L105.236338,311.8645 L105.236338,311.8645 Z M235.385074,330.1702 C235.385074,333.484727 232.663103,336.210082 229.371618,336.210082 C226.061206,336.210082 223.337515,333.484727 223.337515,330.1702 L223.337515,318.126614 C223.337515,314.812086 226.061206,312.103959 229.371618,312.103959 C232.663103,312.103959 235.385074,314.812086 235.385074,318.126614 L235.385074,330.1702 L235.385074,330.1702 Z M139.135368,330.1702 C139.135368,333.484727 136.411676,336.210082 133.120191,336.210082 C129.809779,336.210082 127.087809,333.484727 127.087809,330.1702 L127.087809,318.126614 C127.087809,314.812086 129.809779,312.103959 133.120191,312.103959 C136.411676,312.103959 139.135368,314.812086 139.135368,318.126614 L139.135368,330.1702 L139.135368,330.1702 Z M163.560838,551.290859 L163.560838,568.804105 L151.898691,568.804105 L151.898691,557.129182 C151.898691,553.924909 149.269632,551.290859 146.050412,551.290859 C142.850118,551.290859 140.219338,553.924909 140.219338,557.129182 L140.219338,568.804105 L128.558912,568.804105 L128.558912,557.129182 C128.558912,553.924909 125.928132,551.290859 122.727838,551.290859 C119.527544,551.290859 116.896765,553.924909 116.896765,557.129182 L116.896765,568.804105 L105.236338,568.804105 L105.236338,551.290859 C105.236338,535.176468 118.295603,522.083741 134.389985,522.083741 C150.482647,522.083741 163.560838,535.176468 163.560838,551.290859 L163.560838,551.290859 Z M163.450721,435.104964 C163.450721,438.419491 160.745956,441.144845 157.435544,441.144845 L121.275662,441.144845 C117.963529,441.144845 115.241559,438.419491 115.241559,435.104964 L115.241559,410.979891 C115.241559,407.646414 117.963529,404.940009 121.275662,404.940009 L157.435544,404.940009 C160.745956,404.940009 163.450721,407.646414 163.450721,410.979891 L163.450721,435.104964 L163.450721,435.104964 Z M199.629529,429.082309 C199.629529,432.396836 196.907559,435.104964 193.597147,435.104964 C190.286735,435.104964 187.563044,432.396836 187.563044,429.082309 L187.563044,417.000823 C187.563044,413.686295 190.286735,410.979891 193.597147,410.979891 C196.907559,410.979891 199.629529,413.686295 199.629529,417.000823 L199.629529,429.082309 L199.629529,429.082309 Z M151.898691,358.567636 L210.223191,358.567636 L210.223191,370.261509 L151.898691,370.261509 L151.898691,358.567636 Z M151.164,330.1702 L151.164,318.126614 C151.164,314.812086 153.867044,312.103959 157.179176,312.103959 C160.489588,312.103959 163.192632,314.812086 163.192632,318.126614 L163.192632,330.1702 C163.192632,333.484727 160.489588,336.210082 157.179176,336.210082 C153.867044,336.210082 151.164,333.484727 151.164,330.1702 L151.164,330.1702 Z M175.221265,330.1702 L175.221265,318.126614 C175.221265,314.812086 177.926029,312.103959 181.236441,312.103959 C184.546853,312.103959 187.251618,314.812086 187.251618,318.126614 L187.251618,330.1702 C187.251618,333.484727 184.546853,336.210082 181.236441,336.210082 C177.926029,336.210082 175.221265,333.484727 175.221265,330.1702 L175.221265,330.1702 Z M211.308882,330.1702 C211.308882,333.484727 208.605838,336.210082 205.295426,336.210082 C201.983294,336.210082 199.28025,333.484727 199.28025,330.1702 L199.28025,318.126614 C199.28025,314.812086 201.983294,312.103959 205.295426,312.103959 C208.605838,312.103959 211.308882,314.812086 211.308882,318.126614 L211.308882,330.1702 L211.308882,330.1702 Z M188.189338,282.638432 L174.283544,282.638432 C171.377471,292.712941 162.089735,300.060373 151.164,300.060373 C137.865574,300.060373 127.087809,289.286436 127.087809,275.9732 C127.087809,262.658241 137.865574,251.884305 151.164,251.884305 C162.697103,251.884305 172.408103,260.079318 174.706809,270.999686 L187.766074,270.999686 C190.045853,260.079318 199.720721,251.884305 211.308882,251.884305 C224.607309,251.884305 235.385074,262.658241 235.385074,275.9732 C235.385074,289.286436 224.607309,300.060373 211.308882,300.060373 C200.347015,300.060373 191.076485,292.712941 188.189338,282.638432 L188.189338,282.638432 Z M217.709471,435.104964 C214.380132,435.104964 211.677088,432.396836 211.677088,429.082309 L211.677088,417.000823 C211.677088,413.686295 214.380132,410.979891 217.709471,410.979891 C221.019882,410.979891 223.724647,413.686295 223.724647,417.000823 L223.724647,429.082309 C223.724647,432.396836 221.019882,435.104964 217.709471,435.104964 L217.709471,435.104964 Z M256.868338,551.290859 L256.868338,568.804105 L245.207912,568.804105 L245.207912,557.129182 C245.207912,553.924909 242.596059,551.290859 239.376838,551.290859 C236.176544,551.290859 233.545765,553.924909 233.545765,557.129182 L233.545765,568.804105 L221.885338,568.804105 L221.885338,557.129182 C221.885338,553.924909 219.254559,551.290859 216.054265,551.290859 C212.835044,551.290859 210.223191,553.924909 210.223191,557.129182 L210.223191,568.804105 L198.543838,568.804105 L198.543838,551.290859 C198.543838,535.176468 211.622029,522.083741 227.716412,522.083741 C243.809074,522.083741 256.868338,535.176468 256.868338,551.290859 L256.868338,551.290859 Z M247.836971,429.082309 C247.836971,432.396836 245.115,435.104964 241.804588,435.104964 C238.494176,435.104964 235.791132,432.396836 235.791132,429.082309 L235.791132,417.000823 C235.791132,413.686295 238.494176,410.979891 241.804588,410.979891 C245.115,410.979891 247.836971,413.686295 247.836971,417.000823 L247.836971,429.082309 L247.836971,429.082309 Z" id="Fill-1" sketch:type="MSShapeGroup"></path>
                <path d="M211.308882,263.927891 C217.967559,263.927891 223.337515,269.323473 223.337515,275.9732 C223.337515,282.621205 217.967559,288.016786 211.308882,288.016786 C204.669132,288.016786 199.28025,282.621205 199.28025,275.9732 C199.28025,269.323473 204.669132,263.927891 211.308882,263.927891" id="Fill-2" sketch:type="MSShapeGroup"></path>
                <path d="M151.164,263.927891 C157.80375,263.927891 163.192632,269.323473 163.192632,275.9732 C163.192632,282.621205 157.80375,288.016786 151.164,288.016786 C144.505324,288.016786 139.135368,282.621205 139.135368,275.9732 C139.135368,269.323473 144.505324,263.927891 151.164,263.927891" id="Fill-3" sketch:type="MSShapeGroup"></path>
            </g>
        </g>
    </g>
</svg>