<?xml version="1.0" encoding="utf-8"?>
<!-- Generator: Avocode 2.4.1-9839e14 - http://avocode.com -->
<svg height="22" width="22" xmlns:xlink="http://www.w3.org/1999/xlink" xmlns="http://www.w3.org/2000/svg" viewBox="0 0 22 22">
    <path fill="#ff6b00" fill-rule="evenodd" d="M 11 0 C 4.93 0 0 4.93 0 11 C 0 17.07 4.93 22 11 22 C 17.07 22 22 17.07 22 11 C 22 4.93 17.07 0 11 0 L 11 0 Z M 11 20.17 C 5.95 20.17 1.83 16.05 1.83 11 C 1.83 5.95 5.95 1.83 11 1.83 C 16.05 1.83 20.17 5.95 20.17 11 C 20.17 16.05 16.05 20.17 11 20.17 L 11 20.17 Z M 11 20.17" />
    <path fill="#ff6b00" fill-rule="evenodd" d="M 11 4.58 C 7.46 4.58 4.58 7.46 4.58 11 C 4.58 14.54 7.46 17.42 11 17.42 C 14.54 17.42 17.42 14.54 17.42 11 C 17.42 7.46 14.54 4.58 11 4.58 L 11 4.58 Z M 11 15.58 C 8.47 15.58 6.42 13.53 6.42 11 C 6.42 8.47 8.47 6.42 11 6.42 C 13.53 6.42 15.58 8.47 15.58 11 C 15.58 13.53 13.53 15.58 11 15.58 L 11 15.58 Z M 11 15.58" />
    <path fill="#ff6b00" fill-rule="evenodd" d="M 11 9.17 C 9.99 9.17 9.17 9.99 9.17 11 C 9.17 12.01 9.99 12.83 11 12.83 C 12.01 12.83 12.83 12.01 12.83 11 C 12.83 9.99 12.01 9.17 11 9.17" />
</svg>