<?xml version="1.0" encoding="UTF-8" standalone="no"?>
<svg width="60px" height="60px" viewBox="0 0 60 60" version="1.1" xmlns="http://www.w3.org/2000/svg" xmlns:xlink="http://www.w3.org/1999/xlink" xmlns:sketch="http://www.bohemiancoding.com/sketch/ns">
    <!-- Generator: bin/sketchtool 1.4 (311) - http://www.bohemiancoding.com/sketch -->
    <title>Circle arrows</title>
    <desc>Created with bin/sketchtool.</desc>
    <defs></defs>
    <g id="Page-1" stroke="none" stroke-width="1" fill="none" fill-rule="evenodd" sketch:type="MSPage">
        <g id="Workshopai" sketch:type="MSArtboardGroup" transform="translate(-739.000000, -380.000000)">
            <g id="Circle-arrows" sketch:type="MSLayerGroup" transform="translate(739.000000, 380.000000)">
                <circle id="Oval-16" fill="#D9D9D9" sketch:type="MSShapeGroup" cx="30" cy="30" r="30"></circle>
                <path d="M30.5518723,19.167 C30.5258723,19.15 30.4938723,19.145 30.4668723,19.131 C30.4098723,19.1 30.3528723,19.078 30.2908723,19.059 C30.2568723,19.048 30.2268723,19.026 30.1908723,19.02 C30.1578723,19.013 30.1238723,19.021 30.0898723,19.018 C30.0588723,19.015 30.0318723,19 29.9998723,19 C29.9678723,19 29.9408723,19.015 29.9098723,19.018 C29.8758723,19.021 29.8418723,19.013 29.8078723,19.02 C29.7718723,19.027 29.7418723,19.048 29.7068723,19.059 C29.6458723,19.078 29.5898723,19.016 29.5348723,19.046 C29.5058723,19.061 29.4738723,19 29.4458723,19 C29.4458723,19 29.4458723,19 29.4448723,19 L23.4448723,23.084 C22.9858723,23.391 22.8618723,24.053 23.1678723,24.513 C23.3608723,24.802 23.6778723,24.979 24.0008723,24.979 C24.1908723,24.979 24.3838723,24.935 24.5548723,24.822 L28.9998723,21.869 L28.9998723,38.131 L24.5548723,35.168 C24.0948723,34.862 23.4748723,34.985 23.1678723,35.445 C22.8618723,35.905 22.9858723,36.525 23.4448723,36.832 L29.4448723,40.832 C29.4578723,40.84 29.4718723,40.843 29.4848723,40.85 C29.5178723,40.871 29.5508723,40.889 29.5858723,40.905 C29.6078723,40.915 29.6298723,40.921 29.6518723,40.93 C29.6548723,40.931 29.6568723,40.932 29.6588723,40.932 C29.6848723,40.942 29.7098723,40.954 29.7368723,40.962 C29.8188723,40.984 29.9038723,40.998 29.9898723,40.999 C29.9928723,40.999 29.9958723,41 29.9988723,41 L29.9998723,41 L30.0008723,41 C30.0038723,41 30.0068723,40.999 30.0098723,40.999 C30.0958723,40.998 30.1808723,40.984 30.2628723,40.962 C30.2898723,40.954 30.3148723,40.942 30.3408723,40.932 C30.3428723,40.932 30.3448723,40.931 30.3478723,40.93 C30.3698723,40.921 30.3918723,40.915 30.4138723,40.905 C30.4488723,40.889 30.4818723,40.871 30.5148723,40.85 C30.5278723,40.843 30.5418723,40.84 30.5548723,40.832 L36.5548723,36.832 C37.0138723,36.525 37.1378723,35.905 36.8318723,35.445 C36.5258723,34.985 35.9038723,34.862 35.4448723,35.168 L30.9998723,38.131 L30.9998723,21.869 L35.4448723,24.832 C35.6158723,24.945 35.8088723,25 35.9988723,25 C36.3218723,25 36.6388723,24.844 36.8318723,24.555 C37.1378723,24.095 37.0138723,23.475 36.5548723,23.168 L30.5548723,19.168 C30.5538723,19.167 30.5528723,19.167 30.5518723,19.167" id="Imported-Layers" fill="#FFFFFF" sketch:type="MSShapeGroup" transform="translate(30.000000, 30.000000) rotate(-270.000000) translate(-30.000000, -30.000000) "></path>
            </g>
        </g>
    </g>
</svg>