<?xml version="1.0" encoding="utf-8"?>
<!-- Generator: Avocode 2.4.2-d618096 - http://avocode.com -->
<svg height="29" width="9" xmlns:xlink="http://www.w3.org/1999/xlink" xmlns="http://www.w3.org/2000/svg" viewBox="0 0 9 29">
    <path fill="#ce0000" fill-rule="evenodd" d="M 2.74 2.84 L 5.48 2.84 L 5.48 15.64 L 2.74 15.64 L 2.74 2.84 L 2.74 2.84 Z M 2.74 18.48 L 5.48 18.48 C 6.99 18.48 8.21 17.2 8.21 15.64 L 8.21 2.84 C 8.21 1.28 6.99 0 5.48 0 L 2.74 0 C 1.23 0 0 1.28 0 2.84 L 0 15.64 C 0 17.2 1.23 18.48 2.74 18.48 L 2.74 18.48 Z M 2.74 18.48" />
    <path fill="#ce0000" fill-rule="evenodd" d="M 2.74 24.17 L 5.48 24.17 L 5.48 25.59 L 2.74 25.59 L 2.74 24.17 L 2.74 24.17 Z M 0 25.59 C 0 27.16 1.23 28.44 2.74 28.44 L 5.48 28.44 C 6.99 28.44 8.21 27.16 8.21 25.59 L 8.21 24.17 C 8.21 22.61 6.99 21.33 5.48 21.33 L 2.74 21.33 C 1.23 21.33 0 22.61 0 24.17 L 0 25.59 L 0 25.59 Z M 0 25.59" />
</svg>