<?xml version="1.0" encoding="utf-8"?>
<!-- Generator: Avocode 2.4.2-d618096 - http://avocode.com -->
<svg height="21" width="25" xmlns:xlink="http://www.w3.org/1999/xlink" xmlns="http://www.w3.org/2000/svg" viewBox="0 0 25 21">
    <path fill="#0b0b0a" fill-rule="evenodd" d="M 19.76 5.98 L 18.73 7.69 C 20.82 8.86 22.1 10.41 22.66 11.2 C 21.74 12.48 18.82 15.86 13.64 16.18 L 12.43 18.19 C 12.57 18.2 12.72 18.2 12.86 18.2 C 20.93 18.2 24.58 11.96 24.73 11.7 C 24.9 11.39 24.9 11.01 24.73 10.7 C 24.63 10.53 23.06 7.84 19.76 5.98" />
    <path fill="#0b0b0a" fill-rule="evenodd" d="M 10.9 11.08 L 9.87 12.79 L 8.61 14.9 C 5.28 13.81 3.34 11.51 2.62 10.49 C 3.29 9.56 5.02 7.52 7.9 6.35 C 9.17 5.84 10.68 5.49 12.42 5.49 C 13.04 5.49 13.63 5.53 14.18 5.61 L 13.99 5.93 L 10.9 11.08 L 10.9 11.08 Z M 15.29 7.65 L 16.23 6.08 L 17.28 4.33 L 19.28 1 L 17.56 -0.02 L 15.29 3.77 C 14.51 3.61 13.67 3.51 12.77 3.5 C 12.66 3.49 12.54 3.49 12.42 3.49 C 12.3 3.49 12.17 3.49 12.05 3.5 C 4.24 3.68 0.7 9.73 0.55 9.99 C 0.38 10.3 0.38 10.68 0.55 10.99 C 0.67 11.19 2.86 14.94 7.56 16.65 L 5.56 19.98 L 7.28 21 L 9.55 17.21 L 10.66 15.37 L 13.02 11.43 L 15.29 7.65 L 15.29 7.65 Z M 15.29 7.65" />
</svg>