<?xml version="1.0" encoding="utf-8"?>
<!-- Generator: Avocode 2.4.2-d618096 - http://avocode.com -->
<svg height="113" width="74" xmlns:xlink="http://www.w3.org/1999/xlink" xmlns="http://www.w3.org/2000/svg" viewBox="0 0 74 113">
    <path fill="#fc6b0e" fill-rule="evenodd" d="M 3.45 0.69 L 27 0.69 L 27 24.19 L 3.45 24.19 L 3.45 0.69 Z M 3.45 0.69" />
    <path fill="#fffffe" fill-rule="evenodd" d="M 18.15 11.34 L 15.63 11.34 C 15.54 11.34 15.47 11.41 15.47 11.5 L 15.47 11.84 C 15.47 11.93 15.54 12 15.63 12 L 17.65 12 L 17.65 13.02 L 15.63 13.02 C 15.54 13.02 15.47 13.09 15.47 13.18 L 15.47 14.52 L 14.12 14.52 L 14.12 10.44 C 14.12 10.35 14.19 10.28 14.27 10.28 L 18.15 10.28 L 18.15 11.34" />
    <path fill="#fffffe" fill-rule="evenodd" d="M 12.38 14.52 L 12.38 11.5 C 12.38 11.41 12.31 11.34 12.22 11.34 L 10.82 11.34 C 10.73 11.34 10.66 11.41 10.66 11.5 L 10.66 14.52 L 9.3 14.52 L 9.3 10.44 C 9.3 10.35 9.37 10.28 9.46 10.28 L 13.58 10.28 C 13.66 10.28 13.73 10.35 13.73 10.44 L 13.73 14.52 L 12.38 14.52" />
    <path fill="#fffffe" fill-rule="evenodd" d="M 19.65 11.85 L 20.8 12.57 L 20.8 12.58 L 20.8 12.19 C 20.8 11.87 20.74 11.65 20.63 11.53 C 20.51 11.4 20.31 11.34 20.01 11.34 L 18.48 11.34 L 18.48 10.28 L 20.32 10.28 C 20.99 10.28 21.45 10.39 21.72 10.63 C 21.98 10.86 22.11 11.24 22.11 11.77 L 22.11 13.39 L 22.11 13.39 L 22.61 13.69 L 22.07 14.53 L 21.6 14.24 L 21.6 14.25 C 21.32 14.43 20.91 14.52 20.34 14.52 L 17.72 14.52 L 17.72 13.45 L 20.28 13.45 L 20.31 13.44 L 19.11 12.7 L 19.65 11.85" />
    <path fill="#fffffe" fill-rule="evenodd" d="M 7.87 13.46 L 8.94 13.46 L 8.94 14.52 L 7.87 14.52 L 7.87 13.46 Z M 7.87 13.46" />
    <path fill="#4f958a" fill-rule="evenodd" d="M 41.43 76.64 L 45.2 78.36 L 45.2 78.18 L 41.43 76.64" />
    <path fill="#4f958a" fill-rule="evenodd" d="M 40.87 68.57 L 40.87 69.05 L 45.21 70.79 L 45.21 70.3 L 40.87 68.57" />
    <path fill="#4f958a" fill-rule="evenodd" d="M 40.87 67.7 L 40.87 68.18 L 45.21 69.91 L 45.21 69.43 L 40.87 67.7" />
    <path fill="#4f958a" fill-rule="evenodd" d="M 40.86 75.53 L 40.86 76 L 45.2 77.78 L 45.2 77.31 L 40.86 75.53" />
    <path fill="#4f958a" fill-rule="evenodd" d="M 40.86 72.92 L 40.86 73.4 L 45.2 75.17 L 45.2 74.68 L 40.86 72.92" />
    <path fill="#4f958a" fill-rule="evenodd" d="M 40.86 72.05 L 40.86 72.53 L 45.2 74.29 L 45.2 73.8 L 40.86 72.05" />
    <path fill="#4f958a" fill-rule="evenodd" d="M 40.88 65.09 L 40.88 65.57 L 45.22 67.28 L 45.22 66.8 L 40.88 65.09" />
    <path fill="#4f958a" fill-rule="evenodd" d="M 40.87 69.44 L 40.87 69.92 L 45.21 71.66 L 45.21 71.18 L 40.87 69.44" />
    <path fill="#4f958a" fill-rule="evenodd" d="M 40.88 65.96 L 40.88 66.44 L 45.22 68.16 L 45.22 67.67 L 40.88 65.96" />
    <path fill="#4f958a" fill-rule="evenodd" d="M 40.87 71.18 L 40.86 71.66 L 45.2 73.41 L 45.21 72.93 L 40.87 71.18" />
    <path fill="#4f958a" fill-rule="evenodd" d="M 40.88 64.22 L 40.88 64.7 L 45.22 66.41 L 45.22 65.92 L 40.88 64.22" />
    <path fill="#4f958a" fill-rule="evenodd" d="M 40.86 73.79 L 40.86 74.27 L 45.2 76.04 L 45.2 75.56 L 40.86 73.79" />
    <path fill="#4f958a" fill-rule="evenodd" d="M 40.87 66.83 L 40.87 67.31 L 45.21 69.03 L 45.21 68.55 L 40.87 66.83" />
    <path fill="#4f958a" fill-rule="evenodd" d="M 40.86 74.66 L 40.86 75.14 L 45.2 76.92 L 45.2 76.43 L 40.86 74.66" />
    <path fill="#4f958a" fill-rule="evenodd" d="M 40.87 70.31 L 40.87 70.79 L 45.21 72.54 L 45.21 72.05 L 40.87 70.31" />
    <path fill="#4f958a" fill-rule="evenodd" d="M 42.56 62.26 L 41.74 62.42 L 46.45 64.25 L 47.28 64.09 L 42.56 62.26" />
    <path fill="#4f958a" fill-rule="evenodd" d="M 41.08 62.56 L 40.88 62.6 L 40.88 62.96 L 45.22 64.65 L 45.22 64.5 L 45.78 64.39 L 41.08 62.56" />
    <path fill="#4f958a" fill-rule="evenodd" d="M 45.53 61.66 L 44.7 61.82 L 49.45 63.66 L 50.05 63.54 L 47.14 62.28 L 45.53 61.66" />
    <path fill="#4f958a" fill-rule="evenodd" d="M 44.04 61.96 L 43.22 62.13 L 47.95 63.96 L 48.78 63.79 L 44.04 61.96" />
    <path fill="#4f958a" fill-rule="evenodd" d="M 40.88 63.35 L 40.88 63.83 L 45.22 65.53 L 45.22 65.05 L 40.88 63.35" />
    <path fill="#4f958a" fill-rule="evenodd" d="M 30.92 72.49 L 31.32 72.94 L 35.26 74.56 L 35.13 74.42 L 30.92 72.49" />
    <path fill="#4f958a" fill-rule="evenodd" d="M 35.3 77.56 L 35.93 78.3 L 39.03 79.59 L 39.03 79.59 L 39.94 79.97 L 39.28 79.22 L 35.3 77.56" />
    <path fill="#4f958a" fill-rule="evenodd" d="M 36.46 78.91 L 37.09 79.65 L 39.03 80.46 L 39.03 80.46 L 41.11 81.34 L 40.46 80.58 L 36.46 78.91" />
    <path fill="#4f958a" fill-rule="evenodd" d="M 37.62 80.26 L 38.26 81 L 39.03 81.33 L 39.03 81.33 L 42.3 82.7 L 41.64 81.94 L 37.62 80.26" />
    <path fill="#4f958a" fill-rule="evenodd" d="M 34.13 76.21 L 34.77 76.95 L 38.75 78.61 L 38.11 77.87 L 34.41 76.33 L 34.42 76.33 L 34.13 76.21" />
    <path fill="#4f958a" fill-rule="evenodd" d="M 39.97 82.98 L 40.62 83.74 L 44.67 85.45 L 44.01 84.69 L 39.97 82.98" />
    <path fill="#4f958a" fill-rule="evenodd" d="M 31.83 73.54 L 32.46 74.27 L 36.42 75.91 L 35.78 75.17 L 34.41 74.61 L 34.42 74.6 L 31.83 73.54" />
    <path fill="#4f958a" fill-rule="evenodd" d="M 38.79 81.62 L 39.44 82.38 L 43.48 84.08 L 42.82 83.31 L 38.79 81.62" />
    <path fill="#4f958a" fill-rule="evenodd" d="M 32.98 74.87 L 33.61 75.61 L 37.58 77.25 L 36.95 76.52 L 34.41 75.47 L 34.42 75.46 L 32.98 74.87" />
    <path fill="#4f958a" fill-rule="evenodd" d="M 26.35 85.75 L 26.35 86.22 L 30.49 88.03 L 30.49 87.55 L 26.35 85.75" />
    <path fill="#4f958a" fill-rule="evenodd" d="M 26.36 77.24 L 26.36 77.71 L 30.51 79.47 L 30.51 78.99 L 26.36 77.24" />
    <path fill="#4f958a" fill-rule="evenodd" d="M 26.38 67.9 L 26.38 68.37 L 30.53 70.06 L 30.53 69.58 L 26.38 67.9" />
    <path fill="#4f958a" fill-rule="evenodd" d="M 26.35 84.9 L 26.35 85.37 L 30.5 87.17 L 30.5 86.7 L 26.35 84.9" />
    <path fill="#4f958a" fill-rule="evenodd" d="M 26.38 68.75 L 26.38 69.22 L 30.53 70.91 L 30.53 70.44 L 26.38 68.75" />
    <path fill="#4f958a" fill-rule="evenodd" d="M 26.38 69.6 L 26.38 70.06 L 30.53 71.76 L 30.53 71.3 L 26.38 69.6" />
    <path fill="#4f958a" fill-rule="evenodd" d="M 29.18 87.84 L 30.49 88.47 L 30.49 88.41 L 29.18 87.84" />
    <path fill="#4f958a" fill-rule="evenodd" d="M 26.36 78.94 L 26.36 79.42 L 30.51 81.18 L 30.51 80.7 L 26.36 78.94" />
    <path fill="#4f958a" fill-rule="evenodd" d="M 28.12 65.19 L 27.34 65.35 L 31.84 67.16 L 32.63 67 L 28.12 65.19" />
    <path fill="#4f958a" fill-rule="evenodd" d="M 26.36 78.09 L 26.36 78.57 L 30.51 80.32 L 30.51 79.85 L 26.36 78.09" />
    <path fill="#4f958a" fill-rule="evenodd" d="M 29.54 64.9 L 28.75 65.06 L 33.27 66.87 L 34.07 66.71 L 29.54 64.9" />
    <path fill="#4f958a" fill-rule="evenodd" d="M 26.36 79.8 L 26.36 80.27 L 30.51 82.03 L 30.51 81.56 L 26.36 79.8" />
    <path fill="#4f958a" fill-rule="evenodd" d="M 26.37 74.69 L 26.37 75.16 L 30.52 76.9 L 30.52 76.42 L 26.37 74.69" />
    <path fill="#4f958a" fill-rule="evenodd" d="M 26.71 65.48 L 26.39 65.54 L 26.38 65.81 L 30.53 67.49 L 30.53 67.42 L 31.2 67.28 L 26.71 65.48" />
    <path fill="#4f958a" fill-rule="evenodd" d="M 26.37 71.29 L 26.37 71.76 L 30.52 73.47 L 30.52 73 L 26.37 71.29" />
    <path fill="#4f958a" fill-rule="evenodd" d="M 26.37 72.99 L 26.37 73.46 L 30.52 75.18 L 30.52 74.71 L 26.37 72.99" />
    <path fill="#4f958a" fill-rule="evenodd" d="M 30.65 64.68 L 30.17 64.77 L 34.71 66.59 L 34.85 66.56 L 30.65 64.68" />
    <path fill="#4f958a" fill-rule="evenodd" d="M 26.37 73.84 L 26.37 74.31 L 30.52 76.04 L 30.52 75.57 L 26.37 73.84" />
    <path fill="#4f958a" fill-rule="evenodd" d="M 26.37 72.14 L 26.37 72.61 L 30.52 74.33 L 30.52 73.85 L 26.37 72.14" />
    <path fill="#4f958a" fill-rule="evenodd" d="M 26.35 81.5 L 26.35 81.97 L 30.5 83.75 L 30.5 83.27 L 26.35 81.5" />
    <path fill="#4f958a" fill-rule="evenodd" d="M 26.38 70.45 L 26.37 70.91 L 30.52 72.62 L 30.52 72.15 L 26.38 70.45" />
    <path fill="#4f958a" fill-rule="evenodd" d="M 26.36 80.65 L 26.36 81.12 L 30.5 82.89 L 30.5 82.42 L 26.36 80.65" />
    <path fill="#4f958a" fill-rule="evenodd" d="M 26.35 84.05 L 26.35 84.52 L 30.5 86.32 L 30.5 85.84 L 26.35 84.05" />
    <path fill="#4f958a" fill-rule="evenodd" d="M 26.35 82.35 L 26.35 82.82 L 30.5 84.6 L 30.5 84.13 L 26.35 82.35" />
    <path fill="#4f958a" fill-rule="evenodd" d="M 26.35 83.2 L 26.35 83.67 L 30.5 85.46 L 30.5 84.99 L 26.35 83.2" />
    <path fill="#4f958a" fill-rule="evenodd" d="M 26.38 67.05 L 26.38 67.52 L 30.53 69.2 L 30.53 68.73 L 26.38 67.05" />
    <path fill="#4f958a" fill-rule="evenodd" d="M 26.38 66.19 L 26.38 66.67 L 30.53 68.35 L 30.53 67.87 L 26.38 66.19" />
    <path fill="#4f958a" fill-rule="evenodd" d="M 26.37 75.54 L 26.37 76.01 L 30.51 77.75 L 30.51 77.28 L 26.37 75.54" />
    <path fill="#4f958a" fill-rule="evenodd" d="M 26.36 76.39 L 26.36 76.86 L 30.51 78.61 L 30.51 78.14 L 26.36 76.39" />
    <path fill="#4f958a" fill-rule="evenodd" d="M 60.83 76.24 L 59.98 76.39 L 62.54 77.41 L 62.53 77.41 L 64.94 78.38 L 65.82 78.23 L 60.83 76.24" />
    <path fill="#4f958a" fill-rule="evenodd" d="M 68.08 74.96 L 67.85 75 L 70.93 76.21 L 68.08 74.96" />
    <path fill="#4f958a" fill-rule="evenodd" d="M 60 78.6 L 61.02 79.05 L 61.1 79.04 L 60 78.6" />
    <path fill="#4f958a" fill-rule="evenodd" d="M 65.55 75.41 L 64.68 75.56 L 69.72 77.55 L 70.61 77.4 L 65.55 75.41" />
    <path fill="#4f958a" fill-rule="evenodd" d="M 67.14 75.13 L 66.26 75.28 L 71.33 77.28 L 72.22 77.12 L 67.14 75.13" />
    <path fill="#4f958a" fill-rule="evenodd" d="M 59.28 76.52 L 58.43 76.66 L 62.54 78.31 L 62.53 78.32 L 63.37 78.65 L 64.24 78.5 L 59.28 76.52" />
    <path fill="#4f958a" fill-rule="evenodd" d="M 57.73 76.79 L 56.88 76.94 L 61.81 78.92 L 62.67 78.77 L 57.73 76.79" />
    <path fill="#4f958a" fill-rule="evenodd" d="M 63.97 75.69 L 63.1 75.84 L 68.12 77.83 L 69.01 77.68 L 63.97 75.69" />
    <path fill="#4f958a" fill-rule="evenodd" d="M 62.4 75.96 L 61.54 76.11 L 62.54 76.51 L 62.53 76.52 L 66.53 78.1 L 67.41 77.95 L 62.4 75.96" />
    <path fill="#4f958a" fill-rule="evenodd" d="M 59.62 67.7 L 58.77 67.86 L 62.54 69.32 L 62.53 69.33 L 63.71 69.78 L 64.58 69.62 L 59.62 67.7" />
    <path fill="#4f958a" fill-rule="evenodd" d="M 61.18 67.41 L 60.32 67.57 L 62.54 68.42 L 62.53 68.43 L 65.29 69.49 L 66.17 69.33 L 61.18 67.41" />
    <path fill="#4f958a" fill-rule="evenodd" d="M 56.53 68.29 L 56.48 68.3 L 61.04 70.28 L 61.44 70.2 L 57.58 68.7 L 57.58 68.7 L 56.53 68.29" />
    <path fill="#4f958a" fill-rule="evenodd" d="M 58.06 68 L 57.22 68.16 L 62.15 70.07 L 63.01 69.91 L 58.06 68" />
    <path fill="#4f958a" fill-rule="evenodd" d="M 64.32 66.81 L 63.44 66.98 L 68.47 68.9 L 69.36 68.74 L 64.32 66.81" />
    <path fill="#4f958a" fill-rule="evenodd" d="M 65.9 66.51 L 65.02 66.68 L 70.07 68.6 L 70.96 68.44 L 65.9 66.51" />
    <path fill="#4f958a" fill-rule="evenodd" d="M 62.74 67.11 L 61.89 67.27 L 62.54 67.52 L 62.53 67.53 L 66.88 69.2 L 67.76 69.03 L 62.74 67.11" />
    <path fill="#4f958a" fill-rule="evenodd" d="M 51.57 62.82 L 51.57 63.31 L 56.06 65.03 L 56.06 64.54 L 51.57 62.82" />
    <path fill="#4f958a" fill-rule="evenodd" d="M 51.57 63.7 L 51.57 64.19 L 56.05 65.92 L 56.06 65.43 L 51.57 63.7" />
    <path fill="#4f958a" fill-rule="evenodd" d="M 58.15 59.09 L 57.3 59.26 L 62.24 61.11 L 63.1 60.94 L 58.15 59.09" />
    <path fill="#4f958a" fill-rule="evenodd" d="M 51.56 66.36 L 51.56 66.83 L 56.05 68.58 L 56.05 68.1 L 51.56 66.36" />
    <path fill="#4f958a" fill-rule="evenodd" d="M 51.57 61.05 L 51.57 61.54 L 56.06 63.25 L 56.06 62.76 L 51.57 61.05" />
    <path fill="#4f958a" fill-rule="evenodd" d="M 51.54 79.61 L 51.54 80.1 L 56.02 81.94 L 56.02 81.45 L 51.54 79.61" />
    <path fill="#4f958a" fill-rule="evenodd" d="M 51.57 64.59 L 51.57 65.08 L 56.05 66.81 L 56.05 66.32 L 51.57 64.59" />
    <path fill="#4f958a" fill-rule="evenodd" d="M 51.55 73.42 L 51.55 73.91 L 56.03 75.71 L 56.03 75.21 L 51.55 73.42" />
    <path fill="#4f958a" fill-rule="evenodd" d="M 51.55 72.54 L 51.55 73.03 L 56.04 74.82 L 56.04 74.32 L 51.55 72.54" />
    <path fill="#4f958a" fill-rule="evenodd" d="M 51.54 80.5 L 51.53 80.99 L 56.02 82.83 L 56.02 82.34 L 51.54 80.5" />
    <path fill="#4f958a" fill-rule="evenodd" d="M 51.54 78.73 L 51.54 79.22 L 56.02 81.05 L 56.02 80.55 L 51.54 78.73" />
    <path fill="#4f958a" fill-rule="evenodd" d="M 51.53 81.38 L 51.53 81.87 L 56.02 83.72 L 56.02 83.23 L 51.53 81.38" />
    <path fill="#4f958a" fill-rule="evenodd" d="M 53.44 83.05 L 56.02 84.24 L 56.02 84.12 L 53.44 83.05" />
    <path fill="#4f958a" fill-rule="evenodd" d="M 64.4 57.82 L 63.53 58 L 68.56 59.86 L 69.44 59.68 L 64.4 57.82" />
    <path fill="#4f958a" fill-rule="evenodd" d="M 61.26 58.46 L 60.41 58.63 L 62.54 59.42 L 62.53 59.43 L 65.38 60.49 L 66.25 60.31 L 61.26 58.46" />
    <path fill="#4f958a" fill-rule="evenodd" d="M 51.56 68.11 L 51.56 68.6 L 56.04 70.36 L 56.05 69.87 L 51.56 68.11" />
    <path fill="#4f958a" fill-rule="evenodd" d="M 59.7 58.77 L 58.85 58.95 L 62.54 60.32 L 62.53 60.33 L 63.8 60.8 L 64.67 60.63 L 59.7 58.77" />
    <path fill="#4f958a" fill-rule="evenodd" d="M 51.55 74.31 L 51.55 74.79 L 56.03 76.6 L 56.03 76.1 L 51.55 74.31" />
    <path fill="#4f958a" fill-rule="evenodd" d="M 51.57 65.47 L 51.57 65.96 L 56.05 67.7 L 56.05 67.21 L 51.57 65.47" />
    <path fill="#4f958a" fill-rule="evenodd" d="M 51.56 67.24 L 51.56 67.72 L 56.05 69.47 L 56.05 68.99 L 51.56 67.24" />
    <path fill="#4f958a" fill-rule="evenodd" d="M 53.55 60.02 L 52.7 60.2 L 57.57 62.04 L 58.41 61.87 L 57.58 61.56 L 57.58 61.55 L 53.55 60.02" />
    <path fill="#4f958a" fill-rule="evenodd" d="M 52.02 60.33 L 51.58 60.42 L 51.58 60.65 L 56.06 62.36 L 56.06 62.34 L 56.88 62.18 L 52.02 60.33" />
    <path fill="#4f958a" fill-rule="evenodd" d="M 62.83 58.14 L 61.97 58.31 L 62.54 58.52 L 62.53 58.53 L 66.96 60.17 L 67.85 60 L 62.83 58.14" />
    <path fill="#4f958a" fill-rule="evenodd" d="M 51.55 75.19 L 51.55 75.68 L 56.03 77.49 L 56.03 76.99 L 51.55 75.19" />
    <path fill="#4f958a" fill-rule="evenodd" d="M 55.08 59.71 L 54.23 59.89 L 59.12 61.73 L 59.97 61.56 L 57.58 60.66 L 57.58 60.66 L 55.08 59.71" />
    <path fill="#4f958a" fill-rule="evenodd" d="M 51.57 61.93 L 51.57 62.42 L 56.06 64.14 L 56.06 63.65 L 51.57 61.93" />
    <path fill="#4f958a" fill-rule="evenodd" d="M 56.62 59.4 L 55.76 59.57 L 60.67 61.42 L 61.53 61.25 L 57.58 59.77 L 57.58 59.76 L 56.62 59.4" />
    <path fill="#4f958a" fill-rule="evenodd" d="M 51.54 77.84 L 51.54 78.33 L 56.02 80.16 L 56.03 79.66 L 51.54 77.84" />
    <path fill="#4f958a" fill-rule="evenodd" d="M 51.56 70.77 L 51.55 71.26 L 56.04 73.03 L 56.04 72.54 L 51.56 70.77" />
    <path fill="#4f958a" fill-rule="evenodd" d="M 67.57 57.18 L 66.69 57.36 L 71.77 59.22 L 72.46 59.08 L 69.96 58.05 L 67.57 57.18" />
    <path fill="#4f958a" fill-rule="evenodd" d="M 51.54 76.96 L 51.54 77.45 L 56.03 79.27 L 56.03 78.77 L 51.54 76.96" />
    <path fill="#4f958a" fill-rule="evenodd" d="M 51.56 69 L 51.56 69.49 L 56.04 71.25 L 56.04 70.76 L 51.56 69" />
    <path fill="#4f958a" fill-rule="evenodd" d="M 51.55 71.65 L 51.55 72.14 L 56.04 73.92 L 56.04 73.43 L 51.55 71.65" />
    <path fill="#4f958a" fill-rule="evenodd" d="M 51.54 76.07 L 51.54 76.56 L 56.03 78.38 L 56.03 77.88 L 51.54 76.07" />
    <path fill="#4f958a" fill-rule="evenodd" d="M 51.56 69.88 L 51.56 70.37 L 56.04 72.14 L 56.04 71.65 L 51.56 69.88" />
    <path fill="#4f958a" fill-rule="evenodd" d="M 65.99 57.5 L 65.11 57.68 L 70.16 59.54 L 71.05 59.36 L 65.99 57.5" />
    <path fill="#4f958a" fill-rule="evenodd" d="M 16.42 74.67 L 16.42 75.14 L 20.43 76.84 L 20.44 76.38 L 17.72 75.23 L 17.72 75.23 L 16.42 74.67" />
    <path fill="#4f958a" fill-rule="evenodd" d="M 16.41 75.51 L 16.41 75.97 L 20.43 77.69 L 20.43 77.23 L 17.72 76.07 L 17.72 76.07 L 16.41 75.51" />
    <path fill="#4f958a" fill-rule="evenodd" d="M 16.39 88.06 L 16.39 88.15 L 20.41 90.14 L 20.41 89.86 L 17.72 88.66 L 17.72 88.65 L 16.39 88.06" />
    <path fill="#4f958a" fill-rule="evenodd" d="M 16.39 87.22 L 16.39 87.69 L 20.41 89.47 L 20.41 89.01 L 17.72 87.82 L 17.72 87.81 L 16.39 87.22" />
    <path fill="#4f958a" fill-rule="evenodd" d="M 16.42 73.83 L 16.42 74.3 L 20.44 76 L 20.44 75.54 L 17.72 74.39 L 17.72 74.39 L 16.42 73.83" />
    <path fill="#4f958a" fill-rule="evenodd" d="M 16.41 76.35 L 16.41 76.81 L 20.43 78.53 L 20.43 78.07 L 17.72 76.91 L 17.72 76.91 L 16.41 76.35" />
    <path fill="#4f958a" fill-rule="evenodd" d="M 16.42 71.32 L 16.42 71.79 L 20.44 73.47 L 20.44 73.01 L 17.72 71.87 L 17.72 71.87 L 16.42 71.32" />
    <path fill="#4f958a" fill-rule="evenodd" d="M 16.42 70.48 L 16.42 70.95 L 20.44 72.63 L 20.44 72.17 L 17.72 71.03 L 17.72 71.03 L 16.42 70.48" />
    <path fill="#4f958a" fill-rule="evenodd" d="M 16.42 73 L 16.42 73.46 L 20.44 75.16 L 20.44 74.7 L 17.72 73.55 L 17.72 73.55 L 16.42 73" />
    <path fill="#4f958a" fill-rule="evenodd" d="M 16.42 72.16 L 16.42 72.62 L 20.44 74.31 L 20.44 73.86 L 17.72 72.71 L 17.72 72.71 L 16.42 72.16" />
    <path fill="#4f958a" fill-rule="evenodd" d="M 16.41 78.85 L 16.41 79.31 L 20.43 81.05 L 20.43 80.59 L 17.72 79.42 L 17.72 79.41 L 16.41 78.85" />
    <path fill="#4f958a" fill-rule="evenodd" d="M 16.4 82.2 L 16.4 82.66 L 20.42 84.42 L 20.42 83.96 L 17.72 82.78 L 17.72 82.77 L 16.4 82.2" />
    <path fill="#4f958a" fill-rule="evenodd" d="M 16.43 69.65 L 16.42 70.11 L 20.44 71.79 L 20.44 71.33 L 17.72 70.19 L 17.72 70.19 L 16.43 69.65" />
    <path fill="#4f958a" fill-rule="evenodd" d="M 16.4 83.04 L 16.4 83.5 L 20.42 85.26 L 20.42 84.8 L 17.72 83.62 L 17.72 83.61 L 16.4 83.04" />
    <path fill="#4f958a" fill-rule="evenodd" d="M 16.41 79.69 L 16.41 80.15 L 20.42 81.89 L 20.43 81.43 L 17.72 80.26 L 17.72 80.25 L 16.41 79.69" />
    <path fill="#4f958a" fill-rule="evenodd" d="M 16.4 81.36 L 16.4 81.82 L 20.42 83.57 L 20.42 83.12 L 17.72 81.94 L 17.72 81.93 L 16.4 81.36" />
    <path fill="#4f958a" fill-rule="evenodd" d="M 16.39 86.38 L 16.39 86.55 L 16.63 86.67 L 16.49 86.69 L 16.39 86.65 L 16.39 86.85 L 20.41 88.63 L 20.41 88.17 L 17.72 86.98 L 17.72 86.97 L 16.39 86.38" />
    <path fill="#4f958a" fill-rule="evenodd" d="M 16.41 77.18 L 16.41 77.64 L 20.43 79.36 L 20.43 78.91 L 17.72 77.75 L 17.72 77.74 L 16.41 77.18" />
    <path fill="#4f958a" fill-rule="evenodd" d="M 16.39 85.55 L 16.39 86.01 L 20.41 87.79 L 20.41 87.33 L 17.72 86.14 L 17.72 86.13 L 16.39 85.55" />
    <path fill="#4f958a" fill-rule="evenodd" d="M 16.4 83.87 L 16.4 84.34 L 20.42 86.1 L 20.42 85.64 L 17.72 84.46 L 17.72 84.45 L 16.4 83.87" />
    <path fill="#4f958a" fill-rule="evenodd" d="M 16.4 84.71 L 16.4 85.17 L 20.41 86.95 L 20.42 86.49 L 17.72 85.3 L 17.72 85.29 L 16.4 84.71" />
    <path fill="#4f958a" fill-rule="evenodd" d="M 16.41 78.02 L 16.41 78.48 L 20.43 80.2 L 20.43 79.75 L 17.72 78.59 L 17.72 78.58 L 16.41 78.02" />
    <path fill="#4f958a" fill-rule="evenodd" d="M 17.11 67.42 L 16.43 67.55 L 16.43 67.6 L 20.7 69.36 L 21.46 69.21 L 17.72 67.67 L 17.72 67.67 L 17.11 67.42" />
    <path fill="#4f958a" fill-rule="evenodd" d="M 16.4 80.52 L 16.4 80.99 L 20.42 82.73 L 20.42 82.27 L 17.72 81.1 L 17.72 81.09 L 16.4 80.52" />
    <path fill="#4f958a" fill-rule="evenodd" d="M 19.84 66.86 L 19.09 67.01 L 22.1 68.25 L 22.1 68.25 L 23.46 68.81 L 24.23 68.66 L 19.84 66.86" />
    <path fill="#4f958a" fill-rule="evenodd" d="M 20.84 66.66 L 20.47 66.73 L 22.1 67.4 L 22.1 67.41 L 24.86 68.54 L 24.92 68.52 L 20.84 66.66" />
    <path fill="#4f958a" fill-rule="evenodd" d="M 18.47 67.14 L 17.72 67.29 L 22.08 69.09 L 22.84 68.94 L 18.47 67.14" />
    <path fill="#4f958a" fill-rule="evenodd" d="M 16.43 67.97 L 16.43 68.44 L 20.45 70.1 L 20.45 69.64 L 17.72 68.51 L 17.72 68.51 L 16.43 67.97" />
    <path fill="#4f958a" fill-rule="evenodd" d="M 16.43 68.81 L 16.43 69.27 L 20.45 70.94 L 20.45 70.48 L 17.72 69.35 L 17.72 69.35 L 16.43 68.81" />
    <path fill="#4f958a" fill-rule="evenodd" d="M 6.3 85.83 L 5.57 85.96 L 9.77 87.85 L 10.5 87.72 L 7.58 86.42 L 7.59 86.41 L 6.3 85.83" />
    <path fill="#4f958a" fill-rule="evenodd" d="M 7.61 85.6 L 6.89 85.73 L 11.11 87.62 L 11.84 87.49 L 7.61 85.6" />
    <path fill="#4f958a" fill-rule="evenodd" d="M 4.99 86.07 L 4.5 86.15 L 7.53 87.67 L 8.44 88.08 L 9.16 87.95 L 7.58 87.24 L 7.59 87.24 L 4.99 86.07" />
    <path fill="#4f958a" fill-rule="evenodd" d="M 11.61 84.9 L 10.88 85.03 L 11.82 85.45 L 11.82 85.45 L 15.14 86.93 L 15.89 86.8 L 11.61 84.9" />
    <path fill="#4f958a" fill-rule="evenodd" d="M 10.27 85.13 L 9.54 85.26 L 11.82 86.28 L 11.82 86.28 L 13.78 87.16 L 14.53 87.03 L 10.27 85.13" />
    <path fill="#4f958a" fill-rule="evenodd" d="M 8.94 85.37 L 8.21 85.5 L 11.82 87.11 L 11.82 87.12 L 12.44 87.39 L 13.18 87.26 L 8.94 85.37" />
    <path fill="#4f958a" fill-rule="evenodd" d="M 12.66 84.71 L 12.21 84.79 L 16.49 86.69 L 16.63 86.67 L 12.66 84.71" />
    <path fill="#4f958a" fill-rule="evenodd" d="M 0.33 81.52 L 0.33 81.97 L 4.14 83.68 L 4.14 83.22 L 0.33 81.52" />
    <path fill="#4f958a" fill-rule="evenodd" d="M 0.34 75.82 L 0.34 76.26 L 4.15 77.93 L 4.15 77.48 L 0.34 75.82" />
    <path fill="#4f958a" fill-rule="evenodd" d="M 0.33 79.89 L 0.33 80.34 L 4.15 82.03 L 4.15 81.58 L 0.33 79.89" />
    <path fill="#4f958a" fill-rule="evenodd" d="M 0.35 72.55 L 0.35 73.01 L 4.16 74.66 L 4.16 74.2 L 0.35 72.55" />
    <path fill="#4f958a" fill-rule="evenodd" d="M 0.35 71.74 L 0.35 72.19 L 4.16 73.83 L 4.16 73.38 L 0.35 71.74" />
    <path fill="#4f958a" fill-rule="evenodd" d="M 0.34 73.37 L 0.34 73.82 L 4.16 75.48 L 4.16 75.02 L 0.34 73.37" />
    <path fill="#4f958a" fill-rule="evenodd" d="M 0.34 75 L 0.34 75.44 L 4.15 77.11 L 4.16 76.66 L 0.34 75" />
    <path fill="#4f958a" fill-rule="evenodd" d="M 0.33 82.33 L 0.33 82.79 L 4.14 84.5 L 4.14 84.04 L 0.33 82.33" />
    <path fill="#4f958a" fill-rule="evenodd" d="M 0.34 74.19 L 0.34 74.64 L 4.16 76.3 L 4.16 75.84 L 0.34 74.19" />
    <path fill="#4f958a" fill-rule="evenodd" d="M 0.32 83.97 L 0.32 84.42 L 4.14 86.14 L 4.14 85.68 L 0.32 83.97" />
    <path fill="#4f958a" fill-rule="evenodd" d="M 0.33 83.15 L 0.32 83.6 L 4.14 85.32 L 4.14 84.86 L 0.33 83.15" />
    <path fill="#4f958a" fill-rule="evenodd" d="M 0.33 80.7 L 0.33 81.15 L 4.14 82.85 L 4.14 82.4 L 0.33 80.7" />
    <path fill="#4f958a" fill-rule="evenodd" d="M 0.32 86.41 L 0.32 86.87 L 4.13 88.6 L 4.13 88.15 L 0.32 86.41" />
    <path fill="#4f958a" fill-rule="evenodd" d="M 0.31 89.68 L 0.31 90.13 L 4.13 91.88 L 4.13 91.43 L 0.31 89.68" />
    <path fill="#4f958a" fill-rule="evenodd" d="M 0.32 84.78 L 0.32 85.23 L 4.14 86.96 L 4.14 86.5 L 0.32 84.78" />
    <path fill="#4f958a" fill-rule="evenodd" d="M 0.32 85.6 L 0.32 86.05 L 4.13 87.78 L 4.14 87.33 L 0.32 85.6" />
    <path fill="#4f958a" fill-rule="evenodd" d="M 0.32 88.04 L 0.32 88.5 L 4.13 90.24 L 4.13 89.79 L 0.32 88.04" />
    <path fill="#4f958a" fill-rule="evenodd" d="M 0.32 87.23 L 0.32 87.68 L 4.13 89.42 L 4.13 88.97 L 0.32 87.23" />
    <path fill="#4f958a" fill-rule="evenodd" d="M 0.31 90.49 L 0.31 90.88 L 1.55 91.52 L 4.13 92.71 L 4.13 92.25 L 0.31 90.49" />
    <path fill="#4f958a" fill-rule="evenodd" d="M 0.35 70.92 L 0.35 71.37 L 4.16 73.01 L 4.16 72.65 L 4.3 72.62 L 0.35 70.92" />
    <path fill="#4f958a" fill-rule="evenodd" d="M 0.34 77.44 L 0.34 77.89 L 4.15 79.57 L 4.15 79.12 L 0.34 77.44" />
    <path fill="#4f958a" fill-rule="evenodd" d="M 0.34 78.25 L 0.33 78.71 L 4.15 80.39 L 4.15 79.94 L 0.34 78.25" />
    <path fill="#4f958a" fill-rule="evenodd" d="M 0.34 76.62 L 0.34 77.08 L 4.15 78.75 L 4.15 78.3 L 0.34 76.62" />
    <path fill="#4f958a" fill-rule="evenodd" d="M 0.33 79.07 L 0.33 79.52 L 4.15 81.21 L 4.15 80.76 L 0.33 79.07" />
    <path fill="#4f958a" fill-rule="evenodd" d="M 0.31 88.86 L 0.31 89.31 L 4.13 91.06 L 4.13 90.61 L 0.31 88.86" />
    <path fill="#4f958a" fill-rule="evenodd" d="M 1.48 70.59 L 0.76 70.73 L 4.89 72.5 L 5.62 72.36 L 1.48 70.59" />
    <path fill="#4f958a" fill-rule="evenodd" d="M 2.78 70.32 L 2.06 70.47 L 6.2 72.24 L 6.93 72.1 L 2.78 70.32" />
    <path fill="#4f958a" fill-rule="evenodd" d="M 4.08 70.06 L 3.36 70.21 L 7.52 71.98 L 8.25 71.84 L 7.58 71.55 L 7.59 71.55 L 4.08 70.06" />
    <path fill="#4f958a" fill-rule="evenodd" d="M 50.2 33.45 L 50.2 33.94 L 54.66 35.46 L 54.67 34.97 L 50.2 33.45" />
    <path fill="#4f958a" fill-rule="evenodd" d="M 50.16 52.86 L 50.16 53.35 L 54.63 55 L 54.63 54.51 L 50.16 52.86" />
    <path fill="#4f958a" fill-rule="evenodd" d="M 50.2 34.33 L 50.2 34.82 L 54.66 36.35 L 54.66 35.86 L 50.2 34.33" />
    <path fill="#4f958a" fill-rule="evenodd" d="M 50.19 36.1 L 50.19 36.58 L 54.66 38.12 L 54.66 37.64 L 50.19 36.1" />
    <path fill="#4f958a" fill-rule="evenodd" d="M 50.2 32.57 L 50.2 33.06 L 54.67 34.57 L 54.67 34.08 L 50.2 32.57" />
    <path fill="#4f958a" fill-rule="evenodd" d="M 50.2 35.22 L 50.19 35.7 L 54.66 37.23 L 54.66 36.75 L 50.2 35.22" />
    <path fill="#4f958a" fill-rule="evenodd" d="M 50.16 51.98 L 50.16 52.47 L 54.63 54.11 L 54.63 53.62 L 50.16 51.98" />
    <path fill="#4f958a" fill-rule="evenodd" d="M 50.21 29.04 L 50.21 29.53 L 54.67 31.02 L 54.67 30.53 L 50.21 29.04" />
    <path fill="#4f958a" fill-rule="evenodd" d="M 50.2 31.69 L 50.2 32.17 L 54.67 33.68 L 54.67 33.19 L 50.2 31.69" />
    <path fill="#4f958a" fill-rule="evenodd" d="M 50.21 29.92 L 50.21 30.41 L 54.67 31.91 L 54.67 31.41 L 50.21 29.92" />
    <path fill="#4f958a" fill-rule="evenodd" d="M 51.07 28.44 L 50.23 28.65 L 55.06 30.26 L 55.91 30.04 L 51.07 28.44" />
    <path fill="#4f958a" fill-rule="evenodd" d="M 50.16 53.74 L 50.16 53.88 L 54.62 55.74 L 54.62 55.4 L 50.16 53.74" />
    <path fill="#4f958a" fill-rule="evenodd" d="M 52.59 28.06 L 51.74 28.27 L 56.59 29.87 L 57.44 29.67 L 56.26 29.28 L 56.26 29.27 L 52.59 28.06" />
    <path fill="#4f958a" fill-rule="evenodd" d="M 50.16 51.09 L 50.16 51.58 L 54.63 53.22 L 54.63 52.73 L 50.16 51.09" />
    <path fill="#4f958a" fill-rule="evenodd" d="M 50.2 30.8 L 50.2 31.29 L 54.67 32.79 L 54.67 32.3 L 50.2 30.8" />
    <path fill="#4f958a" fill-rule="evenodd" d="M 50.19 36.97 L 50.19 37.46 L 54.66 39 L 54.66 38.51 L 50.19 36.97" />
    <path fill="#4f958a" fill-rule="evenodd" d="M 50.18 41.38 L 50.18 41.87 L 54.65 43.45 L 54.65 42.96 L 50.18 41.38" />
    <path fill="#4f958a" fill-rule="evenodd" d="M 50.17 46.68 L 50.17 47.17 L 54.64 48.78 L 54.64 48.29 L 50.17 46.68" />
    <path fill="#4f958a" fill-rule="evenodd" d="M 50.18 43.15 L 50.18 43.64 L 54.65 45.23 L 54.65 44.73 L 50.18 43.15" />
    <path fill="#4f958a" fill-rule="evenodd" d="M 50.18 44.03 L 50.18 44.52 L 54.64 46.11 L 54.64 45.62 L 50.18 44.03" />
    <path fill="#4f958a" fill-rule="evenodd" d="M 50.17 47.56 L 50.17 48.05 L 54.64 49.67 L 54.64 49.18 L 50.17 47.56" />
    <path fill="#4f958a" fill-rule="evenodd" d="M 50.18 42.27 L 50.18 42.76 L 54.65 44.34 L 54.65 43.84 L 50.18 42.27" />
    <path fill="#4f958a" fill-rule="evenodd" d="M 50.17 45.8 L 50.17 46.29 L 54.64 47.89 L 54.64 47.4 L 50.17 45.8" />
    <path fill="#4f958a" fill-rule="evenodd" d="M 50.19 38.74 L 50.19 39.23 L 54.65 40.78 L 54.66 40.29 L 50.19 38.74" />
    <path fill="#4f958a" fill-rule="evenodd" d="M 50.19 40.5 L 50.18 40.99 L 54.65 42.56 L 54.65 42.07 L 50.19 40.5" />
    <path fill="#4f958a" fill-rule="evenodd" d="M 50.17 50.21 L 50.16 50.7 L 54.63 52.33 L 54.63 51.84 L 50.17 50.21" />
    <path fill="#4f958a" fill-rule="evenodd" d="M 50.19 37.85 L 50.19 38.34 L 54.66 39.89 L 54.66 39.4 L 50.19 37.85" />
    <path fill="#4f958a" fill-rule="evenodd" d="M 50.17 48.45 L 50.17 48.94 L 54.63 50.56 L 54.64 50.07 L 50.17 48.45" />
    <path fill="#4f958a" fill-rule="evenodd" d="M 50.17 49.33 L 50.17 49.82 L 54.63 51.45 L 54.63 50.95 L 50.17 49.33" />
    <path fill="#4f958a" fill-rule="evenodd" d="M 50.19 39.62 L 50.19 40.11 L 54.65 41.67 L 54.65 41.18 L 50.19 39.62" />
    <path fill="#4f958a" fill-rule="evenodd" d="M 50.18 44.92 L 50.18 45.4 L 54.64 47 L 54.64 46.51 L 50.18 44.92" />
    <path fill="#4f958a" fill-rule="evenodd" d="M 63.41 25.33 L 62.54 25.55 L 67.55 27.16 L 68.44 26.95 L 63.41 25.33" />
    <path fill="#4f958a" fill-rule="evenodd" d="M 68.08 24.16 L 67.28 24.36 L 72.37 25.97 L 72.79 25.87 L 68.08 24.16" />
    <path fill="#4f958a" fill-rule="evenodd" d="M 58.72 26.51 L 57.88 26.72 L 61.19 27.8 L 61.19 27.81 L 62.81 28.34 L 63.68 28.12 L 58.72 26.51" />
    <path fill="#4f958a" fill-rule="evenodd" d="M 55.65 27.29 L 54.8 27.5 L 59.69 29.11 L 60.54 28.9 L 56.26 27.49 L 56.26 27.49 L 55.65 27.29" />
    <path fill="#4f958a" fill-rule="evenodd" d="M 61.84 25.73 L 60.99 25.94 L 61.19 26.01 L 61.19 26.01 L 65.96 27.56 L 66.84 27.34 L 61.84 25.73" />
    <path fill="#4f958a" fill-rule="evenodd" d="M 60.28 26.12 L 59.43 26.33 L 61.19 26.91 L 61.19 26.91 L 64.38 27.95 L 65.26 27.73 L 60.28 26.12" />
    <path fill="#4f958a" fill-rule="evenodd" d="M 57.17 26.9 L 56.33 27.11 L 61.19 28.7 L 61.19 28.71 L 61.24 28.73 L 62.11 28.51 L 57.17 26.9" />
    <path fill="#4f958a" fill-rule="evenodd" d="M 64.99 24.94 L 64.11 25.16 L 69.15 26.77 L 70.04 26.55 L 64.99 24.94" />
    <path fill="#4f958a" fill-rule="evenodd" d="M 54.11 27.67 L 53.26 27.88 L 58.14 29.49 L 58.99 29.28 L 56.26 28.38 L 56.26 28.38 L 54.11 27.67" />
    <path fill="#4f958a" fill-rule="evenodd" d="M 66.57 24.54 L 65.69 24.76 L 70.75 26.37 L 71.65 26.15 L 66.57 24.54" />
    <path fill="#4f958a" fill-rule="evenodd" d="M 64.36 35.7 L 63.48 35.91 L 68.51 37.6 L 69.4 37.39 L 64.36 35.7" />
    <path fill="#4f958a" fill-rule="evenodd" d="M 62.78 36.07 L 61.91 36.28 L 66.92 37.97 L 67.8 37.76 L 62.78 36.07" />
    <path fill="#4f958a" fill-rule="evenodd" d="M 67.42 34.98 L 66.65 35.16 L 71.72 36.85 L 72.13 36.76 L 67.42 34.98" />
    <path fill="#4f958a" fill-rule="evenodd" d="M 59.66 36.81 L 58.81 37.01 L 61.44 37.91 L 61.44 37.91 L 63.75 38.7 L 64.62 38.5 L 59.66 36.81" />
    <path fill="#4f958a" fill-rule="evenodd" d="M 61.21 36.44 L 60.36 36.64 L 61.44 37.01 L 61.44 37.01 L 65.33 38.33 L 66.21 38.13 L 61.21 36.44" />
    <path fill="#4f958a" fill-rule="evenodd" d="M 56.56 37.54 L 55.87 37.7 L 57.8 38.45 L 60.63 39.42 L 61.48 39.23 L 56.56 37.54" />
    <path fill="#4f958a" fill-rule="evenodd" d="M 65.94 35.33 L 65.06 35.53 L 70.11 37.23 L 71 37.02 L 65.94 35.33" />
    <path fill="#4f958a" fill-rule="evenodd" d="M 58.1 37.17 L 57.26 37.37 L 61.44 38.8 L 61.44 38.81 L 62.18 39.06 L 63.05 38.86 L 58.1 37.17" />
    <path fill="#4f958a" fill-rule="evenodd" d="M 41.92 40.97 L 41.1 41.16 L 45.8 42.84 L 46.63 42.65 L 41.92 40.97" />
    <path fill="#4f958a" fill-rule="evenodd" d="M 40.45 41.32 L 39.64 41.51 L 44.31 43.18 L 45.14 42.99 L 40.45 41.32" />
    <path fill="#4f958a" fill-rule="evenodd" d="M 44.79 40.3 L 44.06 40.47 L 48.8 42.14 L 49.18 42.05 L 44.79 40.3" />
    <path fill="#4f958a" fill-rule="evenodd" d="M 37.53 42.01 L 36.73 42.19 L 39.2 43.08 L 39.19 43.09 L 41.36 43.87 L 42.17 43.68 L 37.53 42.01" />
    <path fill="#4f958a" fill-rule="evenodd" d="M 38.99 41.66 L 38.19 41.85 L 39.2 42.21 L 39.19 42.22 L 42.83 43.53 L 43.65 43.34 L 38.99 41.66" />
    <path fill="#4f958a" fill-rule="evenodd" d="M 34.63 42.69 L 33.99 42.84 L 35.79 43.58 L 38.44 44.54 L 39.23 44.36 L 34.63 42.69" />
    <path fill="#4f958a" fill-rule="evenodd" d="M 43.4 40.62 L 42.58 40.82 L 47.3 42.49 L 48.13 42.3 L 43.4 40.62" />
    <path fill="#4f958a" fill-rule="evenodd" d="M 36.08 42.35 L 35.29 42.54 L 39.2 43.95 L 39.19 43.96 L 39.89 44.21 L 40.7 44.02 L 36.08 42.35" />
    <path fill="#4f958a" fill-rule="evenodd" d="M 3.07 44.42 L 3.06 44.44 C 2.98 44.56 2.91 44.67 2.84 44.79 L 6.79 46.3 L 6.9 46.12 L 6.97 46.02 L 7.02 45.94 L 3.07 44.42" />
    <path fill="#4f958a" fill-rule="evenodd" d="M 8.61 39.1 L 8.48 39.18 L 8.14 39.38 L 12.25 40.91 C 12.35 40.86 12.44 40.81 12.54 40.75 L 12.71 40.66 L 12.74 40.64 L 8.61 39.1" />
    <path fill="#4f958a" fill-rule="evenodd" d="M 1.26 56.8 C 1.33 56.99 1.4 57.17 1.48 57.34 L 5.21 58.86 C 5.14 58.68 5.07 58.5 5.01 58.32 L 1.26 56.8" />
    <path fill="#4f958a" fill-rule="evenodd" d="M 1.7 57.8 C 1.8 58 1.91 58.19 2.03 58.38 L 5.7 59.88 C 5.6 59.69 5.5 59.5 5.41 59.3 L 1.7 57.8" />
    <path fill="#4f958a" fill-rule="evenodd" d="M 7.77 39.61 L 7.77 39.61 L 7.61 39.72 C 7.52 39.78 7.43 39.85 7.34 39.91 L 11.43 41.44 L 11.52 41.37 L 11.68 41.27 L 11.87 41.15 L 8.19 39.78 L 8.2 39.77 L 7.77 39.61" />
    <path fill="#4f958a" fill-rule="evenodd" d="M 2.66 45.08 L 2.58 45.23 C 2.53 45.3 2.49 45.38 2.45 45.46 L 6.38 46.97 L 6.42 46.9 C 6.46 46.83 6.5 46.77 6.54 46.7 L 6.6 46.6 L 2.66 45.08" />
    <path fill="#4f958a" fill-rule="evenodd" d="M 9.54 38.62 C 9.46 38.66 9.38 38.7 9.3 38.74 L 9.15 38.82 L 9.02 38.88 L 12.44 40.15 L 12.44 40.16 L 13.16 40.42 L 13.23 40.39 C 13.39 40.31 13.55 40.24 13.71 40.17 L 9.54 38.62" />
    <path fill="#4f958a" fill-rule="evenodd" d="M 0.78 54.97 C 0.81 55.14 0.84 55.3 0.88 55.46 L 4.65 56.99 C 4.62 56.83 4.59 56.66 4.57 56.5 L 0.78 54.97" />
    <path fill="#4f958a" fill-rule="evenodd" d="M 0.97 55.87 C 1.02 56.04 1.07 56.21 1.12 56.38 L 4.87 57.9 C 4.82 57.73 4.78 57.56 4.74 57.39 L 0.97 55.87" />
    <path fill="#4f958a" fill-rule="evenodd" d="M 4.51 42.51 C 4.42 42.61 4.33 42.72 4.24 42.83 L 4.22 42.85 L 8.21 44.37 C 8.31 44.26 8.4 44.14 8.5 44.03 L 8.19 43.91 L 8.2 43.91 L 4.51 42.51" />
    <path fill="#4f958a" fill-rule="evenodd" d="M 3.51 43.77 L 3.5 43.79 L 3.37 43.97 L 3.27 44.13 L 7.22 45.65 L 7.23 45.64 L 7.36 45.46 L 7.48 45.29 L 3.51 43.77" />
    <path fill="#4f958a" fill-rule="evenodd" d="M 5.07 41.9 C 4.97 42 4.86 42.1 4.77 42.21 L 4.75 42.23 L 8.76 43.75 C 8.86 43.64 8.97 43.53 9.07 43.42 L 8.19 43.09 L 8.2 43.08 L 5.07 41.9" />
    <path fill="#4f958a" fill-rule="evenodd" d="M 0.67 54.11 C 0.68 54.27 0.7 54.43 0.72 54.58 L 4.51 56.11 C 4.49 55.95 4.48 55.79 4.46 55.63 L 0.67 54.11" />
    <path fill="#4f958a" fill-rule="evenodd" d="M 5.66 41.3 L 5.47 41.49 L 5.37 41.58 L 5.32 41.63 L 9.35 43.15 C 9.46 43.03 9.57 42.93 9.69 42.82 L 8.19 42.26 L 8.2 42.25 L 5.66 41.3" />
    <path fill="#4f958a" fill-rule="evenodd" d="M 6.31 40.72 C 6.23 40.78 6.15 40.85 6.07 40.92 L 5.94 41.04 L 9.98 42.56 C 10.1 42.45 10.23 42.35 10.36 42.24 L 8.19 41.43 L 8.2 41.43 L 6.31 40.72" />
    <path fill="#4f958a" fill-rule="evenodd" d="M 2.36 58.88 C 2.53 59.12 2.71 59.34 2.9 59.56 L 6.49 61.03 C 6.32 60.82 6.16 60.6 6.01 60.37 L 2.36 58.88" />
    <path fill="#4f958a" fill-rule="evenodd" d="M 7.01 40.15 C 6.9 40.23 6.8 40.31 6.7 40.39 L 6.68 40.41 L 6.61 40.46 L 10.67 41.99 C 10.79 41.89 10.91 41.8 11.03 41.71 L 11.05 41.7 L 11.07 41.68 L 8.19 40.6 L 8.2 40.6 L 7.01 40.15" />
    <path fill="#4f958a" fill-rule="evenodd" d="M 3.99 43.13 L 3.91 43.23 C 3.85 43.32 3.79 43.4 3.73 43.49 L 7.7 45 L 7.77 44.9 C 7.84 44.82 7.91 44.73 7.98 44.65 L 3.99 43.13" />
    <path fill="#4f958a" fill-rule="evenodd" d="M 3.48 60.16 C 3.61 60.28 3.74 60.4 3.88 60.51 C 4.15 60.74 4.42 60.94 4.71 61.12 L 7.94 62.45 L 7.74 62.29 C 7.47 62.07 7.23 61.84 7 61.6 L 3.48 60.16" />
    <path fill="#4f958a" fill-rule="evenodd" d="M 1.95 46.45 L 1.93 46.47 L 1.85 46.65 L 1.78 46.83 L 5.68 48.35 L 5.69 48.33 L 5.77 48.16 L 5.86 47.96 L 1.95 46.45" />
    <path fill="#4f958a" fill-rule="evenodd" d="M 1.64 47.15 L 1.63 47.18 C 1.58 47.3 1.54 47.41 1.5 47.53 L 5.39 49.05 L 5.46 48.86 L 5.52 48.72 L 5.55 48.66 L 1.64 47.15" />
    <path fill="#4f958a" fill-rule="evenodd" d="M 0.97 49.32 L 0.92 49.51 C 0.91 49.58 0.89 49.66 0.88 49.74 L 4.73 51.26 L 4.74 51.2 C 4.76 51.11 4.79 51.02 4.81 50.92 L 4.83 50.84 L 0.97 49.32" />
    <path fill="#4f958a" fill-rule="evenodd" d="M 13.17 37.46 C 13.08 37.48 12.99 37.5 12.9 37.52 L 12.74 37.55 C 12.62 37.57 12.5 37.6 12.38 37.63 L 12.44 37.65 L 12.44 37.66 L 16.67 39.21 L 16.71 39.2 L 16.87 39.17 C 17 39.15 17.12 39.12 17.25 39.1 L 17.42 39.07 L 17.52 39.06 L 13.17 37.46" />
    <path fill="#4f958a" fill-rule="evenodd" d="M 16 37.29 L 20.82 39.05 L 20.99 39.08 L 21.16 39.11 C 21.25 39.13 21.34 39.15 21.43 39.17 L 21.59 39.2 C 21.69 39.23 21.78 39.26 21.88 39.29 L 22 39.32 C 22.14 39.36 22.28 39.41 22.41 39.46 C 22.53 39.5 22.65 39.55 22.77 39.59 L 18.72 37.92 C 18.6 37.87 18.49 37.83 18.37 37.79 L 18.37 37.78 C 18.23 37.74 18.1 37.69 17.96 37.65 L 17.85 37.62 C 17.75 37.59 17.65 37.56 17.55 37.54 L 17.4 37.5 C 17.31 37.48 17.22 37.46 17.13 37.44 L 16.97 37.41 C 16.88 37.4 16.79 37.38 16.7 37.37 L 16.59 37.35 L 16.54 37.34 C 16.4 37.33 16.26 37.31 16.13 37.3 L 16.07 37.29 L 16 37.29" />
    <path fill="#4f958a" fill-rule="evenodd" d="M 1.16 48.58 L 1.14 48.62 C 1.12 48.71 1.09 48.81 1.07 48.9 L 1.05 48.99 L 4.91 50.51 L 4.97 50.31 C 4.99 50.24 5.01 50.17 5.03 50.1 L 1.16 48.58" />
    <path fill="#4f958a" fill-rule="evenodd" d="M 0.6 53.27 C 0.61 53.42 0.62 53.58 0.63 53.73 L 4.44 55.26 C 4.43 55.1 4.42 54.95 4.42 54.79 L 0.6 53.27" />
    <path fill="#4f958a" fill-rule="evenodd" d="M 1.38 47.86 L 1.33 48.02 C 1.3 48.1 1.28 48.18 1.25 48.25 L 5.13 49.77 L 5.16 49.71 C 5.19 49.6 5.22 49.5 5.26 49.39 L 5.27 49.38 L 1.38 47.86" />
    <path fill="#4f958a" fill-rule="evenodd" d="M 0.81 50.08 L 0.8 50.12 C 0.79 50.24 0.77 50.36 0.75 50.48 L 0.75 50.51 L 4.59 52.03 C 4.6 51.96 4.61 51.89 4.62 51.82 C 4.64 51.75 4.65 51.67 4.67 51.6 L 0.81 50.08" />
    <path fill="#4f958a" fill-rule="evenodd" d="M 14.92 37.27 C 14.81 37.27 14.69 37.28 14.58 37.29 L 14.45 37.3 C 14.29 37.31 14.12 37.32 13.95 37.34 L 13.88 37.35 L 18.29 38.97 L 18.44 38.95 L 18.57 38.95 C 18.7 38.94 18.82 38.93 18.95 38.93 L 19.11 38.93 C 19.15 38.93 19.2 38.92 19.24 38.92 C 19.31 38.92 19.38 38.93 19.46 38.93 L 14.92 37.27" />
    <path fill="#4f958a" fill-rule="evenodd" d="M 10.59 38.18 L 10.52 38.21 L 10.35 38.27 C 10.23 38.32 10.12 38.37 10 38.42 L 12.44 39.32 L 12.44 39.32 L 14.18 39.97 L 14.29 39.93 L 14.46 39.86 C 14.57 39.82 14.69 39.78 14.8 39.74 L 10.59 38.18" />
    <path fill="#4f958a" fill-rule="evenodd" d="M 0.63 51.64 L 0.61 52 L 0.61 52.09 L 4.43 53.61 L 4.44 53.49 C 4.45 53.38 4.45 53.27 4.46 53.16 L 0.63 51.64" />
    <path fill="#4f958a" fill-rule="evenodd" d="M 0.6 52.45 L 0.59 52.64 C 0.59 52.73 0.6 52.81 0.6 52.9 L 4.41 54.42 L 4.41 54.36 C 4.41 54.23 4.42 54.1 4.42 53.97 L 0.6 52.45" />
    <path fill="#4f958a" fill-rule="evenodd" d="M 11.78 37.79 L 11.64 37.82 L 11.47 37.88 C 11.35 37.92 11.23 37.95 11.11 38 L 12.44 38.49 L 12.44 38.49 L 15.34 39.56 L 15.43 39.53 L 15.6 39.48 C 15.75 39.44 15.9 39.4 16.05 39.36 L 11.78 37.79" />
    <path fill="#4f958a" fill-rule="evenodd" d="M 2.29 45.76 L 2.22 45.88 L 2.19 45.95 L 2.11 46.1 L 2.09 46.14 L 6.01 47.65 L 6.03 47.62 L 6.13 47.43 L 6.21 47.28 L 2.29 45.76" />
    <path fill="#4f958a" fill-rule="evenodd" d="M 0.7 50.85 C 0.69 50.94 0.68 51.03 0.67 51.12 L 0.66 51.29 L 4.49 52.81 C 4.51 52.69 4.52 52.57 4.53 52.44 L 4.54 52.38 L 0.7 50.85" />
    <path fill="#4f958a" fill-rule="evenodd" d="M 18.8 50.14 L 18.78 50.25 C 18.76 50.32 18.75 50.4 18.73 50.47 L 18.71 50.57 L 22.8 52.14 L 22.83 52 L 22.86 51.83 L 22.88 51.7 L 18.8 50.14" />
    <path fill="#4f958a" fill-rule="evenodd" d="M 18.63 50.92 L 18.59 51.04 C 18.57 51.12 18.55 51.19 18.53 51.27 L 18.51 51.34 L 22.61 52.91 L 22.64 52.8 L 22.69 52.63 L 22.72 52.49 L 18.63 50.92" />
    <path fill="#4f958a" fill-rule="evenodd" d="M 18.4 51.67 L 18.35 51.81 C 18.31 51.89 18.27 51.98 18.24 52.07 L 22.35 53.66 L 22.39 53.57 L 22.41 53.53 L 22.5 53.25 L 18.4 51.67" />
    <path fill="#4f958a" fill-rule="evenodd" d="M 18.1 52.4 L 18.08 52.44 C 18.03 52.56 17.97 52.67 17.91 52.79 L 22.04 54.39 L 22.12 54.21 L 22.17 54.1 L 22.22 53.99 L 18.1 52.4" />
    <path fill="#4f958a" fill-rule="evenodd" d="M 18.81 46.79 C 18.84 46.95 18.86 47.11 18.88 47.28 L 22.9 48.81 C 22.88 48.64 22.85 48.47 22.81 48.3 L 18.81 46.79" />
    <path fill="#4f958a" fill-rule="evenodd" d="M 17.75 53.1 C 17.69 53.21 17.63 53.32 17.56 53.44 L 17.54 53.48 L 21.66 55.09 C 21.72 54.99 21.78 54.89 21.83 54.8 L 21.85 54.75 L 21.86 54.74 L 21.88 54.7 L 17.75 53.1" />
    <path fill="#4f958a" fill-rule="evenodd" d="M 18.57 45.86 C 18.62 46.03 18.67 46.2 18.72 46.38 L 22.71 47.88 C 22.65 47.7 22.6 47.52 22.53 47.35 L 18.57 45.86" />
    <path fill="#4f958a" fill-rule="evenodd" d="M 18.92 47.67 C 18.93 47.83 18.94 47.99 18.94 48.15 L 22.99 49.69 C 22.98 49.52 22.97 49.36 22.95 49.2 L 18.92 47.67" />
    <path fill="#4f958a" fill-rule="evenodd" d="M 18.9 49.35 L 18.9 49.42 C 18.89 49.5 18.88 49.59 18.87 49.67 L 18.85 49.79 L 22.93 51.35 L 22.95 51.17 L 22.96 51.01 L 22.97 50.9 L 18.9 49.35" />
    <path fill="#4f958a" fill-rule="evenodd" d="M 17.35 53.78 C 17.3 53.85 17.26 53.93 17.21 54 L 17.1 54.15 L 21.24 55.77 C 21.32 55.64 21.4 55.52 21.48 55.39 L 17.35 53.78" />
    <path fill="#4f958a" fill-rule="evenodd" d="M 13.4 57.25 C 13.33 57.28 13.26 57.31 13.19 57.33 L 13.13 57.35 C 13.02 57.39 12.91 57.43 12.8 57.46 L 15.01 58.34 L 15.01 58.35 L 17.04 59.16 L 17.11 59.14 L 17.17 59.12 C 17.31 59.06 17.45 59 17.59 58.94 L 17.63 58.93 L 13.4 57.25" />
    <path fill="#4f958a" fill-rule="evenodd" d="M 12.24 57.62 L 12.18 57.63 C 12 57.67 11.82 57.7 11.65 57.73 L 11.49 57.75 L 11.44 57.75 L 15.01 59.18 L 15.01 59.18 L 15.76 59.48 C 15.89 59.46 16.01 59.44 16.15 59.41 C 16.27 59.39 16.39 59.35 16.51 59.32 L 12.24 57.62" />
    <path fill="#4f958a" fill-rule="evenodd" d="M 14.33 56.78 L 14.14 56.9 L 14.06 56.94 C 13.99 56.98 13.92 57.01 13.85 57.04 L 15.01 57.51 L 15.01 57.51 L 18.05 58.72 L 18.1 58.69 L 18.13 58.68 C 18.26 58.61 18.4 58.53 18.53 58.45 L 14.33 56.78" />
    <path fill="#4f958a" fill-rule="evenodd" d="M 15.12 56.26 L 15.09 56.28 L 15.09 56.28 C 14.96 56.38 14.83 56.46 14.71 56.55 L 15.01 56.67 L 15.01 56.67 L 18.88 58.21 C 18.95 58.16 19.02 58.12 19.09 58.07 L 19.09 58.07 L 19.29 57.9 L 15.12 56.26" />
    <path fill="#4f958a" fill-rule="evenodd" d="M 18.12 44.85 C 18.23 45.03 18.32 45.22 18.4 45.42 L 22.34 46.9 C 22.24 46.69 22.13 46.5 22.01 46.31 L 18.12 44.85" />
    <path fill="#4f958a" fill-rule="evenodd" d="M 16.37 55.08 C 16.31 55.14 16.25 55.21 16.19 55.28 L 16.14 55.33 L 16.06 55.42 L 20.21 57.05 C 20.32 56.94 20.42 56.83 20.52 56.71 L 20.52 56.71 L 16.37 55.08" />
    <path fill="#4f958a" fill-rule="evenodd" d="M 16.89 54.44 C 16.8 54.56 16.71 54.68 16.61 54.8 L 20.76 56.42 C 20.84 56.32 20.92 56.22 21 56.11 L 21.03 56.06 L 16.89 54.44" />
    <path fill="#4f958a" fill-rule="evenodd" d="M 15.79 55.68 L 15.77 55.7 C 15.69 55.77 15.61 55.85 15.53 55.92 L 15.43 56.01 L 19.59 57.65 L 19.78 57.48 L 19.85 57.42 L 19.89 57.38 L 19.95 57.32 L 15.79 55.68" />
    <path fill="#4f958a" fill-rule="evenodd" d="M 18.95 48.52 C 18.95 48.63 18.94 48.74 18.94 48.84 L 18.93 48.97 L 22.99 50.52 C 23 50.41 23 50.29 23 50.17 L 23 50.07 L 18.95 48.52" />
    <path fill="#4f958a" fill-rule="evenodd" d="M 17.27 43.69 C 17.47 43.9 17.65 44.12 17.82 44.36 L 21.65 45.8 C 21.46 45.56 21.25 45.33 21.02 45.12 L 20.95 45.07 L 17.27 43.69" />
    <path fill="#4f958a" fill-rule="evenodd" d="M 28.68 38.69 L 28.68 39.16 L 32.86 40.67 L 32.86 40.19 L 28.68 38.69" />
    <path fill="#4f958a" fill-rule="evenodd" d="M 28.65 57.46 L 28.65 57.94 L 32.82 59.56 L 32.82 59.09 L 28.65 57.46" />
    <path fill="#4f958a" fill-rule="evenodd" d="M 28.68 39.54 L 28.68 40.02 L 32.86 41.53 L 32.86 41.05 L 28.68 39.54" />
    <path fill="#4f958a" fill-rule="evenodd" d="M 28.68 41.25 L 28.68 41.71 L 32.86 43.24 L 32.86 42.77 L 28.68 41.25" />
    <path fill="#4f958a" fill-rule="evenodd" d="M 28.68 37.84 L 28.68 38.31 L 32.86 39.81 L 32.86 39.33 L 28.68 37.84" />
    <path fill="#4f958a" fill-rule="evenodd" d="M 28.68 40.4 L 28.68 40.86 L 32.86 42.38 L 32.86 41.91 L 28.68 40.4" />
    <path fill="#4f958a" fill-rule="evenodd" d="M 28.65 56.61 L 28.65 57.08 L 32.83 58.71 L 32.83 58.23 L 28.65 56.61" />
    <path fill="#4f958a" fill-rule="evenodd" d="M 28.69 34.42 L 28.69 34.89 L 32.87 36.37 L 32.87 35.89 L 28.69 34.42" />
    <path fill="#4f958a" fill-rule="evenodd" d="M 28.69 36.98 L 28.68 37.45 L 32.86 38.95 L 32.87 38.47 L 28.69 36.98" />
    <path fill="#4f958a" fill-rule="evenodd" d="M 28.69 35.27 L 28.69 35.75 L 32.87 37.23 L 32.87 36.75 L 28.69 35.27" />
    <path fill="#4f958a" fill-rule="evenodd" d="M 29.49 33.85 L 28.71 34.04 L 33.23 35.64 L 34.02 35.44 L 29.49 33.85" />
    <path fill="#4f958a" fill-rule="evenodd" d="M 28.64 58.32 L 28.64 58.45 L 32.82 60.28 L 32.82 59.95 L 28.64 58.32" />
    <path fill="#4f958a" fill-rule="evenodd" d="M 30.92 33.49 L 30.13 33.69 L 34.67 35.28 L 35.45 35.08 L 34.35 34.7 L 34.35 34.69 L 30.92 33.49" />
    <path fill="#4f958a" fill-rule="evenodd" d="M 28.65 55.76 L 28.65 56.23 L 32.83 57.85 L 32.83 57.37 L 28.65 55.76" />
    <path fill="#4f958a" fill-rule="evenodd" d="M 28.69 36.13 L 28.69 36.6 L 32.87 38.09 L 32.87 37.61 L 28.69 36.13" />
    <path fill="#4f958a" fill-rule="evenodd" d="M 28.68 42.09 L 28.67 42.57 L 32.85 44.09 L 32.86 43.62 L 28.68 42.09" />
    <path fill="#4f958a" fill-rule="evenodd" d="M 28.67 46.36 L 28.67 46.84 L 32.85 48.39 L 32.85 47.92 L 28.67 46.36" />
    <path fill="#4f958a" fill-rule="evenodd" d="M 28.66 51.49 L 28.66 51.96 L 32.84 53.55 L 32.84 53.07 L 28.66 51.49" />
    <path fill="#4f958a" fill-rule="evenodd" d="M 28.66 48.07 L 28.66 48.54 L 32.84 50.11 L 32.84 49.63 L 28.66 48.07" />
    <path fill="#4f958a" fill-rule="evenodd" d="M 28.66 48.93 L 28.66 49.4 L 32.84 50.97 L 32.84 50.49 L 28.66 48.93" />
    <path fill="#4f958a" fill-rule="evenodd" d="M 28.66 52.34 L 28.66 52.81 L 32.83 54.41 L 32.83 53.93 L 28.66 52.34" />
    <path fill="#4f958a" fill-rule="evenodd" d="M 28.67 47.22 L 28.67 47.69 L 32.84 49.25 L 32.84 48.78 L 28.67 47.22" />
    <path fill="#4f958a" fill-rule="evenodd" d="M 28.66 50.63 L 28.66 51.11 L 32.84 52.69 L 32.84 52.21 L 28.66 50.63" />
    <path fill="#4f958a" fill-rule="evenodd" d="M 28.67 43.8 L 28.67 44.27 L 32.85 45.81 L 32.85 45.34 L 28.67 43.8" />
    <path fill="#4f958a" fill-rule="evenodd" d="M 28.67 45.51 L 28.67 45.98 L 32.85 47.53 L 32.85 47.06 L 28.67 45.51" />
    <path fill="#4f958a" fill-rule="evenodd" d="M 28.65 54.9 L 28.65 55.38 L 32.83 56.99 L 32.83 56.51 L 28.65 54.9" />
    <path fill="#4f958a" fill-rule="evenodd" d="M 28.67 42.95 L 28.67 43.42 L 32.85 44.95 L 32.85 44.48 L 28.67 42.95" />
    <path fill="#4f958a" fill-rule="evenodd" d="M 28.65 53.19 L 28.65 53.67 L 32.83 55.27 L 32.83 54.79 L 28.65 53.19" />
    <path fill="#4f958a" fill-rule="evenodd" d="M 28.65 54.05 L 28.65 54.52 L 32.83 56.13 L 32.83 55.65 L 28.65 54.05" />
    <path fill="#4f958a" fill-rule="evenodd" d="M 28.67 44.66 L 28.67 45.13 L 32.85 46.67 L 32.85 46.2 L 28.67 44.66" />
    <path fill="#4f958a" fill-rule="evenodd" d="M 28.66 49.78 L 28.66 50.25 L 32.84 51.83 L 32.84 51.35 L 28.66 49.78" />
    <path fill="#4f958a" fill-rule="evenodd" d="M 41.04 30.94 L 40.22 31.15 L 44.91 32.75 L 45.73 32.54 L 41.04 30.94" />
    <path fill="#4f958a" fill-rule="evenodd" d="M 45.4 29.84 L 44.65 30.03 L 49.4 31.63 L 49.8 31.54 L 45.4 29.84" />
    <path fill="#4f958a" fill-rule="evenodd" d="M 36.65 32.04 L 35.86 32.24 L 38.96 33.31 L 38.96 33.32 L 40.47 33.84 L 41.29 33.64 L 36.65 32.04" />
    <path fill="#4f958a" fill-rule="evenodd" d="M 33.78 32.77 L 32.98 32.97 L 37.56 34.56 L 38.36 34.37 L 34.35 32.97 L 34.35 32.97 L 33.78 32.77" />
    <path fill="#4f958a" fill-rule="evenodd" d="M 39.57 31.31 L 38.77 31.51 L 38.96 31.58 L 38.96 31.58 L 43.42 33.11 L 44.24 32.91 L 39.57 31.31" />
    <path fill="#4f958a" fill-rule="evenodd" d="M 38.11 31.68 L 37.31 31.88 L 38.96 32.45 L 38.96 32.45 L 41.94 33.48 L 42.76 33.28 L 38.11 31.68" />
    <path fill="#4f958a" fill-rule="evenodd" d="M 35.21 32.41 L 34.42 32.61 L 38.96 34.18 L 38.96 34.19 L 39.01 34.21 L 39.82 34 L 35.21 32.41" />
    <path fill="#4f958a" fill-rule="evenodd" d="M 42.51 30.57 L 41.69 30.78 L 46.4 32.38 L 47.23 32.17 L 42.51 30.57" />
    <path fill="#4f958a" fill-rule="evenodd" d="M 32.34 33.13 L 31.55 33.33 L 36.11 34.92 L 36.9 34.73 L 34.35 33.84 L 34.35 33.83 L 32.34 33.13" />
    <path fill="#4f958a" fill-rule="evenodd" d="M 43.99 30.2 L 43.17 30.41 L 47.9 32.01 L 48.73 31.8 L 43.99 30.2" />
    <path fill="#343534" fill-rule="evenodd" d="M 20.33 68.58 L 19.56 69.47 L 19.52 90.17 L 20.53 90.99 L 25 90.25 L 25.78 89.38 L 25.82 68.47 L 24.79 67.68 L 20.33 68.58" />
    <path fill="#343534" fill-rule="evenodd" d="M 9.22 87.1 L 9.25 71.76 L 8.28 70.99 L 4.04 71.84 L 3.32 72.7 L 3.28 92.86 L 4.24 93.67 L 16.74 91.61 L 17.5 90.75 L 17.51 86.64 L 16.51 85.84 L 9.22 87.1" />
    <path fill="#343534" fill-rule="evenodd" d="M 45.06 63.63 L 44.24 64.56 L 44.21 75.84 L 35.55 65.97 L 34.69 65.7 L 30.38 66.56 L 29.59 67.48 L 29.55 88.5 L 30.59 89.33 L 35.21 88.57 L 36.01 87.68 L 36.03 76.92 L 44.4 86.61 L 45.28 86.92 L 50.11 86.12 L 50.95 85.21 L 51 63.47 L 49.89 62.66 L 45.06 63.63" />
    <path fill="#343534" fill-rule="evenodd" d="M 72.65 76.11 L 62.03 77.96 L 62.03 75.22 L 71.41 73.55 L 72.31 72.59 L 72.32 68.32 L 71.13 67.47 L 62.05 69.17 L 62.05 66.46 L 72.6 64.45 L 73.49 63.47 L 73.5 59 L 72.32 58.17 L 55.93 61.45 L 55.07 62.41 L 55.03 84.27 L 56.16 85.13 L 72.93 82.37 L 73.83 81.42 L 73.84 76.98 L 72.65 76.11" />
    <path fill="#343534" fill-rule="evenodd" d="M 25.4 40.07 C 22.85 38.11 19.7 37.58 16.05 38.5 C 12.5 39.38 9.5 41.38 7.12 44.43 C 4.77 47.45 3.58 50.81 3.57 54.43 C 3.56 58.1 4.77 60.97 7.16 62.95 C 9.15 64.6 11.55 65.33 14.33 65.13 C 14.95 65.09 15.59 65 16.25 64.86 C 19.84 64.12 22.94 62.2 25.45 59.14 C 27.96 56.07 29.25 52.59 29.26 48.81 C 29.27 44.98 27.96 42.04 25.4 40.07 L 25.4 40.07 Z M 22.11 50.21 C 22.11 52.19 21.51 53.96 20.29 55.61 C 19.11 57.22 17.71 58.18 16.03 58.54 C 14.41 58.89 13.1 58.56 12.01 57.54 C 10.87 56.49 10.33 55.05 10.33 53.14 C 10.34 51.23 10.93 49.43 12.09 47.81 C 13.25 46.19 14.63 45.21 16.3 44.8 C 16.57 44.74 16.84 44.69 17.09 44.67 C 18.37 44.54 19.45 44.89 20.38 45.74 C 21.55 46.8 22.11 48.27 22.11 50.21 L 22.11 50.21 Z M 22.11 50.21" />
    <path fill="#343534" fill-rule="evenodd" d="M 38.36 60.03 L 39.17 59.1 L 39.19 50.14 L 49.33 47.88 L 50.17 46.92 L 50.18 41.97 L 49.07 41.2 L 39.2 43.5 L 39.21 39.92 L 49.93 37.37 L 50.77 36.39 L 50.78 31.44 L 49.67 30.68 L 32.75 34.89 L 31.95 35.84 L 31.91 60.37 L 32.95 61.15 L 38.36 60.03" />
    <path fill="#343534" fill-rule="evenodd" d="M 61.35 54.46 L 61.37 45.2 L 72.23 42.78 L 73.12 41.78 L 73.13 36.66 L 71.95 35.87 L 61.39 38.33 L 61.39 34.63 L 72.87 31.9 L 73.76 30.88 L 73.78 25.75 L 72.59 24.98 L 54.48 29.48 L 53.63 30.48 L 53.58 55.83 L 54.7 56.64 L 60.49 55.43 L 61.35 54.46" />
    <path fill="#fc6b0e" fill-rule="evenodd" d="M 10.8 105.45 C 10.8 106.53 10.78 107.23 10.72 107.57 C 10.6 108.31 10.31 108.92 9.83 109.4 C 9.21 110.01 8.36 110.32 7.27 110.32 L 3.78 110.32 L 3.78 100.67 L 7.27 100.67 C 8.36 100.67 9.21 100.98 9.83 101.59 C 10.31 102.07 10.6 102.67 10.72 103.38 C 10.78 103.71 10.8 104.4 10.8 105.45 L 10.8 105.45 Z M 8.92 105.45 C 8.92 104.68 8.89 104.13 8.85 103.82 C 8.79 103.45 8.68 103.16 8.51 102.95 C 8.18 102.55 7.71 102.35 7.1 102.35 L 5.67 102.35 L 5.67 108.64 L 7.1 108.64 C 7.71 108.64 8.18 108.44 8.51 108.04 C 8.68 107.83 8.79 107.53 8.85 107.13 C 8.89 106.8 8.92 106.24 8.92 105.45 L 8.92 105.45 Z M 8.92 105.45" />
    <path fill="#fc6b0e" fill-rule="evenodd" d="M 17.96 110.32 L 16.24 110.32 L 16.24 109.71 C 15.78 110.16 15.2 110.39 14.5 110.39 C 13.7 110.39 13.1 110.18 12.7 109.78 C 12.31 109.37 12.11 108.84 12.11 108.18 C 12.11 107.58 12.31 107.09 12.72 106.71 C 13.13 106.32 13.73 106.13 14.52 106.13 L 16.18 106.13 L 16.18 105.78 C 16.18 105.04 15.74 104.67 14.87 104.67 C 14.3 104.67 13.85 104.86 13.52 105.25 L 12.39 104.15 C 12.73 103.78 13.09 103.53 13.49 103.38 C 13.85 103.25 14.34 103.18 14.95 103.18 C 16.96 103.18 17.96 104.01 17.96 105.67 L 17.96 110.32 L 17.96 110.32 Z M 16.18 107.72 L 16.18 107.34 L 14.79 107.34 C 14.13 107.34 13.8 107.6 13.8 108.14 C 13.8 108.68 14.14 108.95 14.82 108.95 C 15.42 108.95 15.82 108.8 16.02 108.5 C 16.13 108.34 16.18 108.08 16.18 107.72 L 16.18 107.72 Z M 16.18 107.72" />
    <path fill="#fc6b0e" fill-rule="evenodd" d="M 25.51 103.26 L 22.48 111.46 C 22.34 111.85 22.16 112.16 21.95 112.36 C 21.59 112.72 21.08 112.91 20.43 112.91 L 19.74 112.91 L 19.74 111.32 L 20.15 111.32 C 20.41 111.32 20.6 111.27 20.72 111.18 C 20.85 111.09 20.95 110.93 21.03 110.68 L 21.33 109.82 L 18.91 103.26 L 20.77 103.26 L 22.24 107.62 L 23.65 103.26 L 25.51 103.26" />
    <path fill="#fc6b0e" fill-rule="evenodd" d="M 28.33 102.35 L 26.49 103.75 L 26.49 100.67 L 28.33 100.67 L 28.33 102.35" />
    <path fill="#fc6b0e" fill-rule="evenodd" d="M 34.42 110.32 L 32.64 110.32 L 32.64 102.57 L 30.68 104.28 L 30.68 102.38 L 32.64 100.67 L 34.42 100.67 L 34.42 110.32" />
    <path fill="#fc6b0e" fill-rule="evenodd" d="M 43.35 107.07 C 43.35 107.65 43.3 108.12 43.19 108.48 C 43.06 108.9 42.83 109.28 42.5 109.61 C 41.97 110.14 41.26 110.4 40.37 110.4 C 39.44 110.4 38.72 110.14 38.21 109.63 C 37.75 109.18 37.49 108.51 37.42 107.62 L 39.18 107.62 C 39.28 108.42 39.67 108.81 40.36 108.81 C 40.71 108.81 40.99 108.71 41.19 108.5 C 41.45 108.25 41.57 107.77 41.57 107.07 C 41.57 105.91 41.18 105.33 40.39 105.33 C 39.79 105.33 39.4 105.59 39.22 106.12 L 37.62 106.12 L 37.62 100.67 L 43.14 100.67 L 43.14 102.26 L 39.22 102.26 L 39.22 104.33 C 39.57 104 40.05 103.84 40.68 103.84 C 41.45 103.84 42.05 104.06 42.48 104.49 C 43.06 105.07 43.35 105.93 43.35 107.07" />
</svg>