<?xml version="1.0" encoding="utf-8"?>
<!-- Generator: Avocode 2.4.2-d618096 - http://avocode.com -->
<svg height="14" width="25" xmlns:xlink="http://www.w3.org/1999/xlink" xmlns="http://www.w3.org/2000/svg" viewBox="0 0 25 14">
    <path fill="#0b0b0a" fill-rule="evenodd" d="M 12.14 12 C 6.43 12 3.31 8.36 2.34 7 C 3.02 6.07 4.75 4.02 7.65 2.85 C 7.33 3.51 7.14 4.23 7.14 5 C 7.14 7.76 9.39 10 12.14 10 C 14.9 10 17.14 7.76 17.14 5 C 17.14 4.22 16.95 3.5 16.63 2.84 C 19.55 4 21.27 6.05 21.95 7 C 20.98 8.35 17.82 12 12.14 12 L 12.14 12 Z M 12.14 2 C 13.8 2 15.14 3.35 15.14 5 C 15.14 6.65 13.8 8 12.14 8 C 10.49 8 9.14 6.65 9.14 5 C 9.14 3.35 10.49 2 12.14 2 L 12.14 2 Z M 12.14 0 C 4.07 0 0.43 6.24 0.27 6.5 C 0.1 6.81 0.1 7.19 0.27 7.49 C 0.43 7.76 4.07 14 12.14 14 C 20.22 14 23.86 7.76 24.01 7.49 C 24.19 7.19 24.19 6.81 24.01 6.5 C 23.86 6.24 20.22 0 12.14 0 L 12.14 0 Z M 12.14 0" />
</svg>